  0
SECTION
  2
HEADER
  9
$ANGBASE
  50
0.0
  9
$ANGDIR
  70
1
  9
$MEASUREMENT
  70
1
  0
ENDSEC
  0
SECTION
  2
TABLES
  0
TABLE
  2
LTYPE
  70
4
  0
LTYPE
  5
40F
  2
CONTINUOUS
  70
0
  3
Solid line
  72
65
  73
0
  40
0.0
  0
LTYPE
  5
410
  2
DASHDOT
 70
0
  3
Dash Dot ____ _ ____ _
 72
65
 73
4
 40
2.0
 49
1.25
 49
-0.25
 49
0.25
 49
-0.25
  0
LTYPE
  5
411
  2
DASHED
 70
0
  3
Dashed __ __ __ __ __
 72
65
 73
2
 40
0.75
 49
0.5
 49
-0.25
  0
LTYPE
  5
43B
  2
DOTTED
 70
0
  3
Dotted .  .  .  .
 72
65
 73
2
 40
0.2
 49
0.0
 49
-0.2
  0
ENDTAB
  0
TABLE
  2
STYLE
  70
4
  0
STYLE
  2
KICAD
  70
0
  40
0
  41
1
  42
1
  50
0
  71
0
  3
isocp.shx
  0
STYLE
  2
KICADB
  70
0
  40
0
  41
1
  42
1
  50
0
  71
0
  3
isocp.shx
  0
STYLE
  2
KICADI
  70
0
  40
0
  41
1
  42
1
  50
15
  71
0
  3
isocp.shx
  0
STYLE
  2
KICADBI
  70
0
  40
0
  41
1
  42
1
  50
15
  71
0
  3
isocp.shx
  0
ENDTAB
  0
TABLE
  2
LAYER
  70
1
  0
LAYER
  2
BLACK
  70
0
  62
7
  6
CONTINUOUS
  0
ENDTAB
  0
ENDSEC
  0
SECTION
  2
ENTITIES
0
LINE
8
BLACK
6
CONTINUOUS
10
121.548
20
-87.4176
11
121.591
21
-87.4352
0
LINE
8
BLACK
6
CONTINUOUS
10
121.591
20
-87.4352
11
121.608
21
-87.4776
0
LINE
8
BLACK
6
CONTINUOUS
10
121.608
20
-87.4776
11
121.608
21
-95.1576
0
LINE
8
BLACK
6
CONTINUOUS
10
121.608
20
-95.1576
11
121.591
21
-95.2
0
LINE
8
BLACK
6
CONTINUOUS
10
121.591
20
-95.2
11
121.548
21
-95.2176
0
LINE
8
BLACK
6
CONTINUOUS
10
121.548
20
-95.2176
11
118.888
21
-95.2176
0
LINE
8
BLACK
6
CONTINUOUS
10
118.888
20
-95.2176
11
118.846
21
-95.2
0
LINE
8
BLACK
6
CONTINUOUS
10
118.846
20
-95.2
11
118.828
21
-95.1576
0
LINE
8
BLACK
6
CONTINUOUS
10
118.828
20
-95.1576
11
118.828
21
-87.4776
0
LINE
8
BLACK
6
CONTINUOUS
10
118.828
20
-87.4776
11
118.846
21
-87.4352
0
LINE
8
BLACK
6
CONTINUOUS
10
118.846
20
-87.4352
11
118.888
21
-87.4176
0
LINE
8
BLACK
6
CONTINUOUS
10
118.888
20
-87.4176
11
121.548
21
-87.4176
0
LINE
8
BLACK
6
CONTINUOUS
10
118.948
20
-87.5376
11
118.948
21
-95.0976
0
LINE
8
BLACK
6
CONTINUOUS
10
118.948
20
-95.0976
11
121.488
21
-95.0976
0
LINE
8
BLACK
6
CONTINUOUS
10
121.488
20
-95.0976
11
121.488
21
-87.5376
0
LINE
8
BLACK
6
CONTINUOUS
10
121.488
20
-87.5376
11
118.948
21
-87.5376
0
LINE
8
BLACK
6
CONTINUOUS
10
124.357
20
-94.6726
11
124.375
21
-94.715
0
LINE
8
BLACK
6
CONTINUOUS
10
124.375
20
-94.715
11
124.357
21
-94.7574
0
LINE
8
BLACK
6
CONTINUOUS
10
124.357
20
-94.7574
11
124.315
21
-94.775
0
LINE
8
BLACK
6
CONTINUOUS
10
124.315
20
-94.775
11
123.792
21
-94.775
0
LINE
8
BLACK
6
CONTINUOUS
10
123.792
20
-94.775
11
123.75
21
-94.7574
0
LINE
8
BLACK
6
CONTINUOUS
10
123.75
20
-94.7574
11
123.732
21
-94.715
0
LINE
8
BLACK
6
CONTINUOUS
10
123.732
20
-94.715
11
123.75
21
-94.6726
0
LINE
8
BLACK
6
CONTINUOUS
10
123.75
20
-94.6726
11
123.792
21
-94.655
0
LINE
8
BLACK
6
CONTINUOUS
10
123.792
20
-94.655
11
124.315
21
-94.655
0
LINE
8
BLACK
6
CONTINUOUS
10
124.315
20
-94.655
11
124.357
21
-94.6726
0
LINE
8
BLACK
6
CONTINUOUS
10
124.357
20
-93.2026
11
124.375
21
-93.245
0
LINE
8
BLACK
6
CONTINUOUS
10
124.375
20
-93.245
11
124.357
21
-93.2874
0
LINE
8
BLACK
6
CONTINUOUS
10
124.357
20
-93.2874
11
124.315
21
-93.305
0
LINE
8
BLACK
6
CONTINUOUS
10
124.315
20
-93.305
11
123.792
21
-93.305
0
LINE
8
BLACK
6
CONTINUOUS
10
123.792
20
-93.305
11
123.75
21
-93.2874
0
LINE
8
BLACK
6
CONTINUOUS
10
123.75
20
-93.2874
11
123.732
21
-93.245
0
LINE
8
BLACK
6
CONTINUOUS
10
123.732
20
-93.245
11
123.75
21
-93.2026
0
LINE
8
BLACK
6
CONTINUOUS
10
123.75
20
-93.2026
11
123.792
21
-93.185
0
LINE
8
BLACK
6
CONTINUOUS
10
123.792
20
-93.185
11
124.315
21
-93.185
0
LINE
8
BLACK
6
CONTINUOUS
10
124.315
20
-93.185
11
124.357
21
-93.2026
0
LINE
8
BLACK
6
CONTINUOUS
10
123.719
20
-91.6837
11
123.72
21
-91.6837
0
LINE
8
BLACK
6
CONTINUOUS
10
123.72
20
-91.6837
11
123.863
21
-91.7313
0
LINE
8
BLACK
6
CONTINUOUS
10
123.863
20
-91.7313
11
123.886
21
-91.7437
0
LINE
8
BLACK
6
CONTINUOUS
10
123.886
20
-91.7437
11
123.888
21
-91.7475
0
LINE
8
BLACK
6
CONTINUOUS
10
123.888
20
-91.7475
11
123.892
21
-91.7494
0
LINE
8
BLACK
6
CONTINUOUS
10
123.892
20
-91.7494
11
123.94
21
-91.797
0
LINE
8
BLACK
6
CONTINUOUS
10
123.94
20
-91.797
11
123.955
21
-91.8184
0
LINE
8
BLACK
6
CONTINUOUS
10
123.955
20
-91.8184
11
123.959
21
-91.8695
0
LINE
8
BLACK
6
CONTINUOUS
10
123.959
20
-91.8695
11
123.93
21
-91.9115
0
LINE
8
BLACK
6
CONTINUOUS
10
123.93
20
-91.9115
11
123.88
21
-91.9248
0
LINE
8
BLACK
6
CONTINUOUS
10
123.88
20
-91.9248
11
123.834
21
-91.9031
0
LINE
8
BLACK
6
CONTINUOUS
10
123.834
20
-91.9031
11
123.799
21
-91.868
0
LINE
8
BLACK
6
CONTINUOUS
10
123.799
20
-91.868
11
123.684
21
-91.8298
0
LINE
8
BLACK
6
CONTINUOUS
10
123.684
20
-91.8298
11
123.613
21
-91.8298
0
LINE
8
BLACK
6
CONTINUOUS
10
123.613
20
-91.8298
11
123.499
21
-91.868
0
LINE
8
BLACK
6
CONTINUOUS
10
123.499
20
-91.868
11
123.425
21
-91.9421
0
LINE
8
BLACK
6
CONTINUOUS
10
123.425
20
-91.9421
11
123.386
21
-92.0191
0
LINE
8
BLACK
6
CONTINUOUS
10
123.386
20
-92.0191
11
123.343
21
-92.1926
0
LINE
8
BLACK
6
CONTINUOUS
10
123.343
20
-92.1926
11
123.343
21
-92.317
0
LINE
8
BLACK
6
CONTINUOUS
10
123.343
20
-92.317
11
123.386
21
-92.4905
0
LINE
8
BLACK
6
CONTINUOUS
10
123.386
20
-92.4905
11
123.425
21
-92.5675
0
LINE
8
BLACK
6
CONTINUOUS
10
123.425
20
-92.5675
11
123.499
21
-92.6416
0
LINE
8
BLACK
6
CONTINUOUS
10
123.499
20
-92.6416
11
123.613
21
-92.6798
0
LINE
8
BLACK
6
CONTINUOUS
10
123.613
20
-92.6798
11
123.684
21
-92.6798
0
LINE
8
BLACK
6
CONTINUOUS
10
123.684
20
-92.6798
11
123.799
21
-92.6416
0
LINE
8
BLACK
6
CONTINUOUS
10
123.799
20
-92.6416
11
123.834
21
-92.6065
0
LINE
8
BLACK
6
CONTINUOUS
10
123.834
20
-92.6065
11
123.855
21
-92.5916
0
LINE
8
BLACK
6
CONTINUOUS
10
123.855
20
-92.5916
11
123.906
21
-92.5871
0
LINE
8
BLACK
6
CONTINUOUS
10
123.906
20
-92.5871
11
123.948
21
-92.6166
0
LINE
8
BLACK
6
CONTINUOUS
10
123.948
20
-92.6166
11
123.962
21
-92.6661
0
LINE
8
BLACK
6
CONTINUOUS
10
123.962
20
-92.6661
11
123.94
21
-92.7126
0
LINE
8
BLACK
6
CONTINUOUS
10
123.94
20
-92.7126
11
123.892
21
-92.7602
0
LINE
8
BLACK
6
CONTINUOUS
10
123.892
20
-92.7602
11
123.871
21
-92.7752
0
LINE
8
BLACK
6
CONTINUOUS
10
123.871
20
-92.7752
11
123.867
21
-92.7756
0
LINE
8
BLACK
6
CONTINUOUS
10
123.867
20
-92.7756
11
123.863
21
-92.7784
0
LINE
8
BLACK
6
CONTINUOUS
10
123.863
20
-92.7784
11
123.835
21
-92.7876
0
LINE
8
BLACK
6
CONTINUOUS
10
123.835
20
-92.7876
11
124.104
21
-92.7876
0
LINE
8
BLACK
6
CONTINUOUS
10
124.104
20
-92.7876
11
124.202
21
-92.7876
0
LINE
8
BLACK
6
CONTINUOUS
10
124.202
20
-92.7876
11
124.194
21
-92.7418
0
LINE
8
BLACK
6
CONTINUOUS
10
124.194
20
-92.7418
11
124.22
21
-92.6974
0
LINE
8
BLACK
6
CONTINUOUS
10
124.22
20
-92.6974
11
124.268
21
-92.6798
0
LINE
8
BLACK
6
CONTINUOUS
10
124.268
20
-92.6798
11
124.479
21
-92.6798
0
LINE
8
BLACK
6
CONTINUOUS
10
124.479
20
-92.6798
11
124.479
21
-91.9835
0
LINE
8
BLACK
6
CONTINUOUS
10
124.479
20
-91.9835
11
124.416
21
-92.0459
0
LINE
8
BLACK
6
CONTINUOUS
10
124.416
20
-92.0459
11
124.398
21
-92.0588
0
LINE
8
BLACK
6
CONTINUOUS
10
124.398
20
-92.0588
11
124.397
21
-92.06
0
LINE
8
BLACK
6
CONTINUOUS
10
124.397
20
-92.06
11
124.301
21
-92.1076
0
LINE
8
BLACK
6
CONTINUOUS
10
124.301
20
-92.1076
11
124.276
21
-92.115
0
LINE
8
BLACK
6
CONTINUOUS
10
124.276
20
-92.115
11
124.227
21
-92.1031
0
LINE
8
BLACK
6
CONTINUOUS
10
124.227
20
-92.1031
11
124.196
21
-92.0619
0
LINE
8
BLACK
6
CONTINUOUS
10
124.196
20
-92.0619
11
124.199
21
-92.0107
0
LINE
8
BLACK
6
CONTINUOUS
10
124.199
20
-92.0107
11
124.234
21
-91.9735
0
LINE
8
BLACK
6
CONTINUOUS
10
124.234
20
-91.9735
11
124.319
21
-91.9313
0
LINE
8
BLACK
6
CONTINUOUS
10
124.319
20
-91.9313
11
124.4
21
-91.8499
0
LINE
8
BLACK
6
CONTINUOUS
10
124.4
20
-91.8499
11
124.491
21
-91.7132
0
LINE
8
BLACK
6
CONTINUOUS
10
124.491
20
-91.7132
11
124.509
21
-91.6944
0
LINE
8
BLACK
6
CONTINUOUS
10
124.509
20
-91.6944
11
124.513
21
-91.6932
0
LINE
8
BLACK
6
CONTINUOUS
10
124.513
20
-91.6932
11
124.516
21
-91.6899
0
LINE
8
BLACK
6
CONTINUOUS
10
124.516
20
-91.6899
11
124.538
21
-91.6861
0
LINE
8
BLACK
6
CONTINUOUS
10
124.538
20
-91.6861
11
124.558
21
-91.68
0
LINE
8
BLACK
6
CONTINUOUS
10
124.558
20
-91.68
11
124.562
21
-91.6817
0
LINE
8
BLACK
6
CONTINUOUS
10
124.562
20
-91.6817
11
124.567
21
-91.681
0
LINE
8
BLACK
6
CONTINUOUS
10
124.567
20
-91.681
11
124.585
21
-91.6918
0
LINE
8
BLACK
6
CONTINUOUS
10
124.585
20
-91.6918
11
124.605
21
-91.7006
0
LINE
8
BLACK
6
CONTINUOUS
10
124.605
20
-91.7006
11
124.607
21
-91.7045
0
LINE
8
BLACK
6
CONTINUOUS
10
124.607
20
-91.7045
11
124.611
21
-91.7066
0
LINE
8
BLACK
6
CONTINUOUS
10
124.611
20
-91.7066
11
124.618
21
-91.7271
0
LINE
8
BLACK
6
CONTINUOUS
10
124.618
20
-91.7271
11
124.628
21
-91.7466
0
LINE
8
BLACK
6
CONTINUOUS
10
124.628
20
-91.7466
11
124.627
21
-91.7508
0
LINE
8
BLACK
6
CONTINUOUS
10
124.627
20
-91.7508
11
124.629
21
-91.7548
0
LINE
8
BLACK
6
CONTINUOUS
10
124.629
20
-91.7548
11
124.629
21
-92.6798
0
LINE
8
BLACK
6
CONTINUOUS
10
124.629
20
-92.6798
11
124.839
21
-92.6798
0
LINE
8
BLACK
6
CONTINUOUS
10
124.839
20
-92.6798
11
124.865
21
-92.6843
0
LINE
8
BLACK
6
CONTINUOUS
10
124.865
20
-92.6843
11
124.904
21
-92.7173
0
LINE
8
BLACK
6
CONTINUOUS
10
124.904
20
-92.7173
11
124.913
21
-92.7678
0
LINE
8
BLACK
6
CONTINUOUS
10
124.913
20
-92.7678
11
124.902
21
-92.7876
0
LINE
8
BLACK
6
CONTINUOUS
10
124.902
20
-92.7876
11
124.904
21
-92.7876
0
LINE
8
BLACK
6
CONTINUOUS
10
124.904
20
-92.7876
11
124.947
21
-92.8052
0
LINE
8
BLACK
6
CONTINUOUS
10
124.947
20
-92.8052
11
124.964
21
-92.8476
0
LINE
8
BLACK
6
CONTINUOUS
10
124.964
20
-92.8476
11
124.947
21
-92.89
0
LINE
8
BLACK
6
CONTINUOUS
10
124.947
20
-92.89
11
124.904
21
-92.9076
0
LINE
8
BLACK
6
CONTINUOUS
10
124.904
20
-92.9076
11
124.104
21
-92.9076
0
LINE
8
BLACK
6
CONTINUOUS
10
124.104
20
-92.9076
11
123.304
21
-92.9076
0
LINE
8
BLACK
6
CONTINUOUS
10
123.304
20
-92.9076
11
123.262
21
-92.89
0
LINE
8
BLACK
6
CONTINUOUS
10
123.262
20
-92.89
11
123.244
21
-92.8476
0
LINE
8
BLACK
6
CONTINUOUS
10
123.244
20
-92.8476
11
123.262
21
-92.8052
0
LINE
8
BLACK
6
CONTINUOUS
10
123.262
20
-92.8052
11
123.304
21
-92.7876
0
LINE
8
BLACK
6
CONTINUOUS
10
123.304
20
-92.7876
11
123.462
21
-92.7876
0
LINE
8
BLACK
6
CONTINUOUS
10
123.462
20
-92.7876
11
123.435
21
-92.7784
0
LINE
8
BLACK
6
CONTINUOUS
10
123.435
20
-92.7784
11
123.412
21
-92.7659
0
LINE
8
BLACK
6
CONTINUOUS
10
123.412
20
-92.7659
11
123.409
21
-92.7621
0
LINE
8
BLACK
6
CONTINUOUS
10
123.409
20
-92.7621
11
123.405
21
-92.7602
0
LINE
8
BLACK
6
CONTINUOUS
10
123.405
20
-92.7602
11
123.31
21
-92.665
0
LINE
8
BLACK
6
CONTINUOUS
10
123.31
20
-92.665
11
123.297
21
-92.6466
0
LINE
8
BLACK
6
CONTINUOUS
10
123.297
20
-92.6466
11
123.296
21
-92.6455
0
LINE
8
BLACK
6
CONTINUOUS
10
123.296
20
-92.6455
11
123.248
21
-92.5503
0
LINE
8
BLACK
6
CONTINUOUS
10
123.248
20
-92.5503
11
123.245
21
-92.5379
0
LINE
8
BLACK
6
CONTINUOUS
10
123.245
20
-92.5379
11
123.243
21
-92.5349
0
LINE
8
BLACK
6
CONTINUOUS
10
123.243
20
-92.5349
11
123.195
21
-92.3444
0
LINE
8
BLACK
6
CONTINUOUS
10
123.195
20
-92.3444
11
123.194
21
-92.3295
0
LINE
8
BLACK
6
CONTINUOUS
10
123.194
20
-92.3295
11
123.193
21
-92.3262
0
LINE
8
BLACK
6
CONTINUOUS
10
123.193
20
-92.3262
11
123.193
21
-92.1834
0
LINE
8
BLACK
6
CONTINUOUS
10
123.193
20
-92.1834
11
123.195
21
-92.1686
0
LINE
8
BLACK
6
CONTINUOUS
10
123.195
20
-92.1686
11
123.195
21
-92.1652
0
LINE
8
BLACK
6
CONTINUOUS
10
123.195
20
-92.1652
11
123.243
21
-91.9747
0
LINE
8
BLACK
6
CONTINUOUS
10
123.243
20
-91.9747
11
123.248
21
-91.9629
0
LINE
8
BLACK
6
CONTINUOUS
10
123.248
20
-91.9629
11
123.248
21
-91.9594
0
LINE
8
BLACK
6
CONTINUOUS
10
123.248
20
-91.9594
11
123.296
21
-91.8641
0
LINE
8
BLACK
6
CONTINUOUS
10
123.296
20
-91.8641
11
123.309
21
-91.8461
0
LINE
8
BLACK
6
CONTINUOUS
10
123.309
20
-91.8461
11
123.31
21
-91.8446
0
LINE
8
BLACK
6
CONTINUOUS
10
123.31
20
-91.8446
11
123.405
21
-91.7494
0
LINE
8
BLACK
6
CONTINUOUS
10
123.405
20
-91.7494
11
123.427
21
-91.7345
0
LINE
8
BLACK
6
CONTINUOUS
10
123.427
20
-91.7345
11
123.431
21
-91.7341
0
LINE
8
BLACK
6
CONTINUOUS
10
123.431
20
-91.7341
11
123.435
21
-91.7313
0
LINE
8
BLACK
6
CONTINUOUS
10
123.435
20
-91.7313
11
123.578
21
-91.6837
0
LINE
8
BLACK
6
CONTINUOUS
10
123.578
20
-91.6837
11
123.6
21
-91.6804
0
LINE
8
BLACK
6
CONTINUOUS
10
123.6
20
-91.6804
11
123.601
21
-91.6798
0
LINE
8
BLACK
6
CONTINUOUS
10
123.601
20
-91.6798
11
123.696
21
-91.6798
0
LINE
8
BLACK
6
CONTINUOUS
10
123.696
20
-91.6798
11
123.719
21
-91.6837
0
LINE
8
BLACK
6
CONTINUOUS
10
132.35
20
-90.6361
11
132.403
21
-90.6823
0
LINE
8
BLACK
6
CONTINUOUS
10
132.403
20
-90.6823
11
132.423
21
-90.7498
0
LINE
8
BLACK
6
CONTINUOUS
10
132.423
20
-90.7498
11
132.423
21
-90.7677
0
LINE
8
BLACK
6
CONTINUOUS
10
132.423
20
-90.7677
11
132.631
21
-90.7677
0
LINE
8
BLACK
6
CONTINUOUS
10
132.631
20
-90.7677
11
132.666
21
-90.7728
0
LINE
8
BLACK
6
CONTINUOUS
10
132.666
20
-90.7728
11
132.726
21
-90.8108
0
LINE
8
BLACK
6
CONTINUOUS
10
132.726
20
-90.8108
11
132.755
21
-90.8749
0
LINE
8
BLACK
6
CONTINUOUS
10
132.755
20
-90.8749
11
132.745
21
-90.9446
0
LINE
8
BLACK
6
CONTINUOUS
10
132.745
20
-90.9446
11
132.699
21
-90.9979
0
LINE
8
BLACK
6
CONTINUOUS
10
132.699
20
-90.9979
11
132.631
21
-91.0177
0
LINE
8
BLACK
6
CONTINUOUS
10
132.631
20
-91.0177
11
132.423
21
-91.0177
0
LINE
8
BLACK
6
CONTINUOUS
10
132.423
20
-91.0177
11
132.423
21
-91.1308
0
LINE
8
BLACK
6
CONTINUOUS
10
132.423
20
-91.1308
11
132.418
21
-91.166
0
LINE
8
BLACK
6
CONTINUOUS
10
132.418
20
-91.166
11
132.38
21
-91.2253
0
LINE
8
BLACK
6
CONTINUOUS
10
132.38
20
-91.2253
11
132.316
21
-91.2545
0
LINE
8
BLACK
6
CONTINUOUS
10
132.316
20
-91.2545
11
132.246
21
-91.2445
0
LINE
8
BLACK
6
CONTINUOUS
10
132.246
20
-91.2445
11
132.193
21
-91.1984
0
LINE
8
BLACK
6
CONTINUOUS
10
132.193
20
-91.1984
11
132.173
21
-91.1308
0
LINE
8
BLACK
6
CONTINUOUS
10
132.173
20
-91.1308
11
132.173
21
-91.0177
0
LINE
8
BLACK
6
CONTINUOUS
10
132.173
20
-91.0177
11
131.804
21
-91.0177
0
LINE
8
BLACK
6
CONTINUOUS
10
131.804
20
-91.0177
11
131.772
21
-91.0335
0
LINE
8
BLACK
6
CONTINUOUS
10
131.772
20
-91.0335
11
131.756
21
-91.0651
0
LINE
8
BLACK
6
CONTINUOUS
10
131.756
20
-91.0651
11
131.756
21
-91.1308
0
LINE
8
BLACK
6
CONTINUOUS
10
131.756
20
-91.1308
11
131.751
21
-91.166
0
LINE
8
BLACK
6
CONTINUOUS
10
131.751
20
-91.166
11
131.713
21
-91.2253
0
LINE
8
BLACK
6
CONTINUOUS
10
131.713
20
-91.2253
11
131.649
21
-91.2545
0
LINE
8
BLACK
6
CONTINUOUS
10
131.649
20
-91.2545
11
131.579
21
-91.2445
0
LINE
8
BLACK
6
CONTINUOUS
10
131.579
20
-91.2445
11
131.526
21
-91.1984
0
LINE
8
BLACK
6
CONTINUOUS
10
131.526
20
-91.1984
11
131.506
21
-91.1308
0
LINE
8
BLACK
6
CONTINUOUS
10
131.506
20
-91.1308
11
131.506
21
-91.0356
0
LINE
8
BLACK
6
CONTINUOUS
10
131.506
20
-91.0356
11
131.511
21
-91.0003
0
LINE
8
BLACK
6
CONTINUOUS
10
131.511
20
-91.0003
11
131.517
21
-90.9908
0
LINE
8
BLACK
6
CONTINUOUS
10
131.517
20
-90.9908
11
131.519
21
-90.9797
0
LINE
8
BLACK
6
CONTINUOUS
10
131.519
20
-90.9797
11
131.567
21
-90.8844
0
LINE
8
BLACK
6
CONTINUOUS
10
131.567
20
-90.8844
11
131.571
21
-90.8792
0
LINE
8
BLACK
6
CONTINUOUS
10
131.571
20
-90.8792
11
131.571
21
-90.8765
0
LINE
8
BLACK
6
CONTINUOUS
10
131.571
20
-90.8765
11
131.575
21
-90.8734
0
LINE
8
BLACK
6
CONTINUOUS
10
131.575
20
-90.8734
11
131.587
21
-90.8552
0
LINE
8
BLACK
6
CONTINUOUS
10
131.587
20
-90.8552
11
131.607
21
-90.8438
0
LINE
8
BLACK
6
CONTINUOUS
10
131.607
20
-90.8438
11
131.623
21
-90.8285
0
LINE
8
BLACK
6
CONTINUOUS
10
131.623
20
-90.8285
11
131.718
21
-90.7809
0
LINE
8
BLACK
6
CONTINUOUS
10
131.718
20
-90.7809
11
131.752
21
-90.7697
0
LINE
8
BLACK
6
CONTINUOUS
10
131.752
20
-90.7697
11
131.763
21
-90.7709
0
LINE
8
BLACK
6
CONTINUOUS
10
131.763
20
-90.7709
11
131.774
21
-90.7677
0
LINE
8
BLACK
6
CONTINUOUS
10
131.774
20
-90.7677
11
132.173
21
-90.7677
0
LINE
8
BLACK
6
CONTINUOUS
10
132.173
20
-90.7677
11
132.173
21
-90.7498
0
LINE
8
BLACK
6
CONTINUOUS
10
132.173
20
-90.7498
11
132.178
21
-90.7146
0
LINE
8
BLACK
6
CONTINUOUS
10
132.178
20
-90.7146
11
132.216
21
-90.6554
0
LINE
8
BLACK
6
CONTINUOUS
10
132.216
20
-90.6554
11
132.28
21
-90.6261
0
LINE
8
BLACK
6
CONTINUOUS
10
132.28
20
-90.6261
11
132.35
21
-90.6361
0
LINE
8
BLACK
6
CONTINUOUS
10
132.19
20
-89.868
11
132.2
21
-89.8741
0
LINE
8
BLACK
6
CONTINUOUS
10
132.2
20
-89.8741
11
132.211
21
-89.8761
0
LINE
8
BLACK
6
CONTINUOUS
10
132.211
20
-89.8761
11
132.306
21
-89.9238
0
LINE
8
BLACK
6
CONTINUOUS
10
132.306
20
-89.9238
11
132.311
21
-89.9274
0
LINE
8
BLACK
6
CONTINUOUS
10
132.311
20
-89.9274
11
132.314
21
-89.9281
0
LINE
8
BLACK
6
CONTINUOUS
10
132.314
20
-89.9281
11
132.317
21
-89.9314
0
LINE
8
BLACK
6
CONTINUOUS
10
132.317
20
-89.9314
11
132.335
21
-89.944
0
LINE
8
BLACK
6
CONTINUOUS
10
132.335
20
-89.944
11
132.347
21
-89.9633
0
LINE
8
BLACK
6
CONTINUOUS
10
132.347
20
-89.9633
11
132.362
21
-89.9797
0
LINE
8
BLACK
6
CONTINUOUS
10
132.362
20
-89.9797
11
132.41
21
-90.0749
0
LINE
8
BLACK
6
CONTINUOUS
10
132.41
20
-90.0749
11
132.421
21
-90.1087
0
LINE
8
BLACK
6
CONTINUOUS
10
132.421
20
-90.1087
11
132.42
21
-90.1199
0
LINE
8
BLACK
6
CONTINUOUS
10
132.42
20
-90.1199
11
132.423
21
-90.1308
0
LINE
8
BLACK
6
CONTINUOUS
10
132.423
20
-90.1308
11
132.423
21
-90.3213
0
LINE
8
BLACK
6
CONTINUOUS
10
132.423
20
-90.3213
11
132.418
21
-90.3565
0
LINE
8
BLACK
6
CONTINUOUS
10
132.418
20
-90.3565
11
132.412
21
-90.366
0
LINE
8
BLACK
6
CONTINUOUS
10
132.412
20
-90.366
11
132.41
21
-90.3772
0
LINE
8
BLACK
6
CONTINUOUS
10
132.41
20
-90.3772
11
132.362
21
-90.4724
0
LINE
8
BLACK
6
CONTINUOUS
10
132.362
20
-90.4724
11
132.358
21
-90.4777
0
LINE
8
BLACK
6
CONTINUOUS
10
132.358
20
-90.4777
11
132.358
21
-90.4803
0
LINE
8
BLACK
6
CONTINUOUS
10
132.358
20
-90.4803
11
132.354
21
-90.4834
0
LINE
8
BLACK
6
CONTINUOUS
10
132.354
20
-90.4834
11
132.342
21
-90.5016
0
LINE
8
BLACK
6
CONTINUOUS
10
132.342
20
-90.5016
11
132.323
21
-90.5131
0
LINE
8
BLACK
6
CONTINUOUS
10
132.323
20
-90.5131
11
132.306
21
-90.5283
0
LINE
8
BLACK
6
CONTINUOUS
10
132.306
20
-90.5283
11
132.211
21
-90.5759
0
LINE
8
BLACK
6
CONTINUOUS
10
132.211
20
-90.5759
11
132.177
21
-90.5872
0
LINE
8
BLACK
6
CONTINUOUS
10
132.177
20
-90.5872
11
132.166
21
-90.5859
0
LINE
8
BLACK
6
CONTINUOUS
10
132.166
20
-90.5859
11
132.155
21
-90.5891
0
LINE
8
BLACK
6
CONTINUOUS
10
132.155
20
-90.5891
11
132.06
21
-90.5891
0
LINE
8
BLACK
6
CONTINUOUS
10
132.06
20
-90.5891
11
132.035
21
-90.5856
0
LINE
8
BLACK
6
CONTINUOUS
10
132.035
20
-90.5856
11
132.031
21
-90.5858
0
LINE
8
BLACK
6
CONTINUOUS
10
132.031
20
-90.5858
11
132.029
21
-90.5847
0
LINE
8
BLACK
6
CONTINUOUS
10
132.029
20
-90.5847
11
132.025
21
-90.5841
0
LINE
8
BLACK
6
CONTINUOUS
10
132.025
20
-90.5841
11
131.998
21
-90.5668
0
LINE
8
BLACK
6
CONTINUOUS
10
131.998
20
-90.5668
11
131.97
21
-90.551
0
LINE
8
BLACK
6
CONTINUOUS
10
131.97
20
-90.551
11
131.968
21
-90.5479
0
LINE
8
BLACK
6
CONTINUOUS
10
131.968
20
-90.5479
11
131.965
21
-90.546
0
LINE
8
BLACK
6
CONTINUOUS
10
131.965
20
-90.546
11
131.952
21
-90.5169
0
LINE
8
BLACK
6
CONTINUOUS
10
131.952
20
-90.5169
11
131.937
21
-90.4886
0
LINE
8
BLACK
6
CONTINUOUS
10
131.937
20
-90.4886
11
131.862
21
-90.1129
0
LINE
8
BLACK
6
CONTINUOUS
10
131.862
20
-90.1129
11
131.804
21
-90.1129
0
LINE
8
BLACK
6
CONTINUOUS
10
131.804
20
-90.1129
11
131.772
21
-90.1287
0
LINE
8
BLACK
6
CONTINUOUS
10
131.772
20
-90.1287
11
131.756
21
-90.1603
0
LINE
8
BLACK
6
CONTINUOUS
10
131.756
20
-90.1603
11
131.756
21
-90.2918
0
LINE
8
BLACK
6
CONTINUOUS
10
131.756
20
-90.2918
11
131.791
21
-90.3606
0
LINE
8
BLACK
6
CONTINUOUS
10
131.791
20
-90.3606
11
131.802
21
-90.3944
0
LINE
8
BLACK
6
CONTINUOUS
10
131.802
20
-90.3944
11
131.794
21
-90.4644
0
LINE
8
BLACK
6
CONTINUOUS
10
131.794
20
-90.4644
11
131.75
21
-90.5192
0
LINE
8
BLACK
6
CONTINUOUS
10
131.75
20
-90.5192
11
131.683
21
-90.5414
0
LINE
8
BLACK
6
CONTINUOUS
10
131.683
20
-90.5414
11
131.615
21
-90.524
0
LINE
8
BLACK
6
CONTINUOUS
10
131.615
20
-90.524
11
131.567
21
-90.4724
0
LINE
8
BLACK
6
CONTINUOUS
10
131.567
20
-90.4724
11
131.519
21
-90.3772
0
LINE
8
BLACK
6
CONTINUOUS
10
131.519
20
-90.3772
11
131.508
21
-90.3434
0
LINE
8
BLACK
6
CONTINUOUS
10
131.508
20
-90.3434
11
131.509
21
-90.3321
0
LINE
8
BLACK
6
CONTINUOUS
10
131.509
20
-90.3321
11
131.506
21
-90.3213
0
LINE
8
BLACK
6
CONTINUOUS
10
131.506
20
-90.3213
11
131.506
21
-90.1308
0
LINE
8
BLACK
6
CONTINUOUS
10
131.506
20
-90.1308
11
131.511
21
-90.0956
0
LINE
8
BLACK
6
CONTINUOUS
10
131.511
20
-90.0956
11
131.517
21
-90.086
0
LINE
8
BLACK
6
CONTINUOUS
10
131.517
20
-90.086
11
131.519
21
-90.0749
0
LINE
8
BLACK
6
CONTINUOUS
10
131.519
20
-90.0749
11
131.567
21
-89.9797
0
LINE
8
BLACK
6
CONTINUOUS
10
131.567
20
-89.9797
11
131.571
21
-89.9744
0
LINE
8
BLACK
6
CONTINUOUS
10
131.571
20
-89.9744
11
131.571
21
-89.9717
0
LINE
8
BLACK
6
CONTINUOUS
10
131.571
20
-89.9717
11
131.575
21
-89.9687
0
LINE
8
BLACK
6
CONTINUOUS
10
131.575
20
-89.9687
11
131.587
21
-89.9504
0
LINE
8
BLACK
6
CONTINUOUS
10
131.587
20
-89.9504
11
131.607
21
-89.939
0
LINE
8
BLACK
6
CONTINUOUS
10
131.607
20
-89.939
11
131.623
21
-89.9238
0
LINE
8
BLACK
6
CONTINUOUS
10
131.623
20
-89.9238
11
131.718
21
-89.8761
0
LINE
8
BLACK
6
CONTINUOUS
10
131.718
20
-89.8761
11
131.752
21
-89.8649
0
LINE
8
BLACK
6
CONTINUOUS
10
131.752
20
-89.8649
11
131.763
21
-89.8661
0
LINE
8
BLACK
6
CONTINUOUS
10
131.763
20
-89.8661
11
131.774
21
-89.8629
0
LINE
8
BLACK
6
CONTINUOUS
10
131.774
20
-89.8629
11
132.155
21
-89.8629
0
LINE
8
BLACK
6
CONTINUOUS
10
132.155
20
-89.8629
11
132.19
21
-89.868
0
LINE
8
BLACK
6
CONTINUOUS
10
132.158
20
-90.3205
11
132.173
21
-90.2918
0
LINE
8
BLACK
6
CONTINUOUS
10
132.173
20
-90.2918
11
132.173
21
-90.1603
0
LINE
8
BLACK
6
CONTINUOUS
10
132.173
20
-90.1603
11
132.157
21
-90.1287
0
LINE
8
BLACK
6
CONTINUOUS
10
132.157
20
-90.1287
11
132.125
21
-90.1129
0
LINE
8
BLACK
6
CONTINUOUS
10
132.125
20
-90.1129
11
132.117
21
-90.1129
0
LINE
8
BLACK
6
CONTINUOUS
10
132.117
20
-90.1129
11
132.158
21
-90.3205
0
LINE
8
BLACK
6
CONTINUOUS
10
126.502
20
-90.0415
11
126.517
21
-90.0768
0
LINE
8
BLACK
6
CONTINUOUS
10
126.517
20
-90.0768
11
126.517
21
-90.4007
0
LINE
8
BLACK
6
CONTINUOUS
10
126.517
20
-90.4007
11
126.512
21
-90.4114
0
LINE
8
BLACK
6
CONTINUOUS
10
126.512
20
-90.4114
11
126.511
21
-90.423
0
LINE
8
BLACK
6
CONTINUOUS
10
126.511
20
-90.423
11
126.492
21
-90.4611
0
LINE
8
BLACK
6
CONTINUOUS
10
126.492
20
-90.4611
11
126.486
21
-90.4665
0
LINE
8
BLACK
6
CONTINUOUS
10
126.486
20
-90.4665
11
126.483
21
-90.4741
0
LINE
8
BLACK
6
CONTINUOUS
10
126.483
20
-90.4741
11
126.464
21
-90.4932
0
LINE
8
BLACK
6
CONTINUOUS
10
126.464
20
-90.4932
11
126.456
21
-90.4963
0
LINE
8
BLACK
6
CONTINUOUS
10
126.456
20
-90.4963
11
126.451
21
-90.5025
0
LINE
8
BLACK
6
CONTINUOUS
10
126.451
20
-90.5025
11
126.413
21
-90.5216
0
LINE
8
BLACK
6
CONTINUOUS
10
126.413
20
-90.5216
11
126.401
21
-90.5224
0
LINE
8
BLACK
6
CONTINUOUS
10
126.401
20
-90.5224
11
126.39
21
-90.5268
0
LINE
8
BLACK
6
CONTINUOUS
10
126.39
20
-90.5268
11
126.314
21
-90.5268
0
LINE
8
BLACK
6
CONTINUOUS
10
126.314
20
-90.5268
11
126.303
21
-90.5224
0
LINE
8
BLACK
6
CONTINUOUS
10
126.303
20
-90.5224
11
126.292
21
-90.5216
0
LINE
8
BLACK
6
CONTINUOUS
10
126.292
20
-90.5216
11
126.254
21
-90.5025
0
LINE
8
BLACK
6
CONTINUOUS
10
126.254
20
-90.5025
11
126.248
21
-90.4963
0
LINE
8
BLACK
6
CONTINUOUS
10
126.248
20
-90.4963
11
126.241
21
-90.4932
0
LINE
8
BLACK
6
CONTINUOUS
10
126.241
20
-90.4932
11
126.222
21
-90.4741
0
LINE
8
BLACK
6
CONTINUOUS
10
126.222
20
-90.4741
11
126.219
21
-90.4665
0
LINE
8
BLACK
6
CONTINUOUS
10
126.219
20
-90.4665
11
126.212
21
-90.4611
0
LINE
8
BLACK
6
CONTINUOUS
10
126.212
20
-90.4611
11
126.193
21
-90.423
0
LINE
8
BLACK
6
CONTINUOUS
10
126.193
20
-90.423
11
126.192
21
-90.4114
0
LINE
8
BLACK
6
CONTINUOUS
10
126.192
20
-90.4114
11
126.188
21
-90.4007
0
LINE
8
BLACK
6
CONTINUOUS
10
126.188
20
-90.4007
11
126.188
21
-90.0768
0
LINE
8
BLACK
6
CONTINUOUS
10
126.188
20
-90.0768
11
126.203
21
-90.0415
0
LINE
8
BLACK
6
CONTINUOUS
10
126.203
20
-90.0415
11
126.238
21
-90.0268
0
LINE
8
BLACK
6
CONTINUOUS
10
126.238
20
-90.0268
11
126.273
21
-90.0415
0
LINE
8
BLACK
6
CONTINUOUS
10
126.273
20
-90.0415
11
126.288
21
-90.0768
0
LINE
8
BLACK
6
CONTINUOUS
10
126.288
20
-90.0768
11
126.288
21
-90.3889
0
LINE
8
BLACK
6
CONTINUOUS
10
126.288
20
-90.3889
11
126.298
21
-90.4091
0
LINE
8
BLACK
6
CONTINUOUS
10
126.298
20
-90.4091
11
126.306
21
-90.4167
0
LINE
8
BLACK
6
CONTINUOUS
10
126.306
20
-90.4167
11
126.326
21
-90.4268
0
LINE
8
BLACK
6
CONTINUOUS
10
126.326
20
-90.4268
11
126.379
21
-90.4268
0
LINE
8
BLACK
6
CONTINUOUS
10
126.379
20
-90.4268
11
126.399
21
-90.4167
0
LINE
8
BLACK
6
CONTINUOUS
10
126.399
20
-90.4167
11
126.406
21
-90.4091
0
LINE
8
BLACK
6
CONTINUOUS
10
126.406
20
-90.4091
11
126.417
21
-90.3889
0
LINE
8
BLACK
6
CONTINUOUS
10
126.417
20
-90.3889
11
126.417
21
-90.0768
0
LINE
8
BLACK
6
CONTINUOUS
10
126.417
20
-90.0768
11
126.431
21
-90.0415
0
LINE
8
BLACK
6
CONTINUOUS
10
126.431
20
-90.0415
11
126.467
21
-90.0268
0
LINE
8
BLACK
6
CONTINUOUS
10
126.467
20
-90.0268
11
126.502
21
-90.0415
0
LINE
8
BLACK
6
CONTINUOUS
10
126.766
20
-90.0324
11
126.78
21
-90.0352
0
LINE
8
BLACK
6
CONTINUOUS
10
126.78
20
-90.0352
11
126.783
21
-90.0395
0
LINE
8
BLACK
6
CONTINUOUS
10
126.783
20
-90.0395
11
126.788
21
-90.0415
0
LINE
8
BLACK
6
CONTINUOUS
10
126.788
20
-90.0415
11
126.793
21
-90.0549
0
LINE
8
BLACK
6
CONTINUOUS
10
126.793
20
-90.0549
11
126.801
21
-90.067
0
LINE
8
BLACK
6
CONTINUOUS
10
126.801
20
-90.067
11
126.8
21
-90.0721
0
LINE
8
BLACK
6
CONTINUOUS
10
126.8
20
-90.0721
11
126.802
21
-90.0768
0
LINE
8
BLACK
6
CONTINUOUS
10
126.802
20
-90.0768
11
126.802
21
-90.4268
0
LINE
8
BLACK
6
CONTINUOUS
10
126.802
20
-90.4268
11
126.867
21
-90.4268
0
LINE
8
BLACK
6
CONTINUOUS
10
126.867
20
-90.4268
11
126.902
21
-90.4415
0
LINE
8
BLACK
6
CONTINUOUS
10
126.902
20
-90.4415
11
126.917
21
-90.4768
0
LINE
8
BLACK
6
CONTINUOUS
10
126.917
20
-90.4768
11
126.902
21
-90.5122
0
LINE
8
BLACK
6
CONTINUOUS
10
126.902
20
-90.5122
11
126.867
21
-90.5268
0
LINE
8
BLACK
6
CONTINUOUS
10
126.867
20
-90.5268
11
126.752
21
-90.5268
0
LINE
8
BLACK
6
CONTINUOUS
10
126.752
20
-90.5268
11
126.638
21
-90.5268
0
LINE
8
BLACK
6
CONTINUOUS
10
126.638
20
-90.5268
11
126.603
21
-90.5122
0
LINE
8
BLACK
6
CONTINUOUS
10
126.603
20
-90.5122
11
126.588
21
-90.4768
0
LINE
8
BLACK
6
CONTINUOUS
10
126.588
20
-90.4768
11
126.603
21
-90.4415
0
LINE
8
BLACK
6
CONTINUOUS
10
126.603
20
-90.4415
11
126.638
21
-90.4268
0
LINE
8
BLACK
6
CONTINUOUS
10
126.638
20
-90.4268
11
126.702
21
-90.4268
0
LINE
8
BLACK
6
CONTINUOUS
10
126.702
20
-90.4268
11
126.702
21
-90.2124
0
LINE
8
BLACK
6
CONTINUOUS
10
126.702
20
-90.2124
11
126.698
21
-90.2168
0
LINE
8
BLACK
6
CONTINUOUS
10
126.698
20
-90.2168
11
126.66
21
-90.2359
0
LINE
8
BLACK
6
CONTINUOUS
10
126.66
20
-90.2359
11
126.622
21
-90.2386
0
LINE
8
BLACK
6
CONTINUOUS
10
126.622
20
-90.2386
11
126.593
21
-90.2135
0
LINE
8
BLACK
6
CONTINUOUS
10
126.593
20
-90.2135
11
126.591
21
-90.1753
0
LINE
8
BLACK
6
CONTINUOUS
10
126.591
20
-90.1753
11
126.616
21
-90.1464
0
LINE
8
BLACK
6
CONTINUOUS
10
126.616
20
-90.1464
11
126.647
21
-90.131
0
LINE
8
BLACK
6
CONTINUOUS
10
126.647
20
-90.131
11
126.675
21
-90.1021
0
LINE
8
BLACK
6
CONTINUOUS
10
126.675
20
-90.1021
11
126.711
21
-90.0491
0
LINE
8
BLACK
6
CONTINUOUS
10
126.711
20
-90.0491
11
126.715
21
-90.0462
0
LINE
8
BLACK
6
CONTINUOUS
10
126.715
20
-90.0462
11
126.717
21
-90.0415
0
LINE
8
BLACK
6
CONTINUOUS
10
126.717
20
-90.0415
11
126.73
21
-90.0359
0
LINE
8
BLACK
6
CONTINUOUS
10
126.73
20
-90.0359
11
126.743
21
-90.0278
0
LINE
8
BLACK
6
CONTINUOUS
10
126.743
20
-90.0278
11
126.748
21
-90.0288
0
LINE
8
BLACK
6
CONTINUOUS
10
126.748
20
-90.0288
11
126.752
21
-90.0268
0
LINE
8
BLACK
6
CONTINUOUS
10
126.752
20
-90.0268
11
126.766
21
-90.0324
0
LINE
8
BLACK
6
CONTINUOUS
10
130.972
20
-89.4401
11
130.993
21
-89.4983
0
LINE
8
BLACK
6
CONTINUOUS
10
130.993
20
-89.4983
11
130.975
21
-89.5576
0
LINE
8
BLACK
6
CONTINUOUS
10
130.975
20
-89.5576
11
130.926
21
-89.5954
0
LINE
8
BLACK
6
CONTINUOUS
10
130.926
20
-89.5954
11
130.657
21
-89.6917
0
LINE
8
BLACK
6
CONTINUOUS
10
130.657
20
-89.6917
11
130.926
21
-89.788
0
LINE
8
BLACK
6
CONTINUOUS
10
130.926
20
-89.788
11
130.975
21
-89.8258
0
LINE
8
BLACK
6
CONTINUOUS
10
130.975
20
-89.8258
11
130.993
21
-89.8851
0
LINE
8
BLACK
6
CONTINUOUS
10
130.993
20
-89.8851
11
130.972
21
-89.9433
0
LINE
8
BLACK
6
CONTINUOUS
10
130.972
20
-89.9433
11
130.921
21
-89.9781
0
LINE
8
BLACK
6
CONTINUOUS
10
130.921
20
-89.9781
11
130.859
21
-89.9764
0
LINE
8
BLACK
6
CONTINUOUS
10
130.859
20
-89.9764
11
130.326
21
-89.7859
0
LINE
8
BLACK
6
CONTINUOUS
10
130.326
20
-89.7859
11
130.304
21
-89.7687
0
LINE
8
BLACK
6
CONTINUOUS
10
130.304
20
-89.7687
11
130.28
21
-89.7528
0
LINE
8
BLACK
6
CONTINUOUS
10
130.28
20
-89.7528
11
130.279
21
-89.75
0
LINE
8
BLACK
6
CONTINUOUS
10
130.279
20
-89.75
11
130.277
21
-89.7481
0
LINE
8
BLACK
6
CONTINUOUS
10
130.277
20
-89.7481
11
130.269
21
-89.7211
0
LINE
8
BLACK
6
CONTINUOUS
10
130.269
20
-89.7211
11
130.26
21
-89.6946
0
LINE
8
BLACK
6
CONTINUOUS
10
130.26
20
-89.6946
11
130.26
21
-89.6917
0
LINE
8
BLACK
6
CONTINUOUS
10
130.26
20
-89.6917
11
130.26
21
-89.6888
0
LINE
8
BLACK
6
CONTINUOUS
10
130.26
20
-89.6888
11
130.269
21
-89.6623
0
LINE
8
BLACK
6
CONTINUOUS
10
130.269
20
-89.6623
11
130.277
21
-89.6353
0
LINE
8
BLACK
6
CONTINUOUS
10
130.277
20
-89.6353
11
130.279
21
-89.6334
0
LINE
8
BLACK
6
CONTINUOUS
10
130.279
20
-89.6334
11
130.28
21
-89.6306
0
LINE
8
BLACK
6
CONTINUOUS
10
130.28
20
-89.6306
11
130.304
21
-89.6147
0
LINE
8
BLACK
6
CONTINUOUS
10
130.304
20
-89.6147
11
130.326
21
-89.5975
0
LINE
8
BLACK
6
CONTINUOUS
10
130.326
20
-89.5975
11
130.859
21
-89.4071
0
LINE
8
BLACK
6
CONTINUOUS
10
130.859
20
-89.4071
11
130.921
21
-89.4053
0
LINE
8
BLACK
6
CONTINUOUS
10
130.921
20
-89.4053
11
130.972
21
-89.4401
0
LINE
8
BLACK
6
CONTINUOUS
10
124.104
20
-89.6676
11
124.904
21
-89.6676
0
LINE
8
BLACK
6
CONTINUOUS
10
124.904
20
-89.6676
11
124.947
21
-89.6852
0
LINE
8
BLACK
6
CONTINUOUS
10
124.947
20
-89.6852
11
124.964
21
-89.7276
0
LINE
8
BLACK
6
CONTINUOUS
10
124.964
20
-89.7276
11
124.947
21
-89.77
0
LINE
8
BLACK
6
CONTINUOUS
10
124.947
20
-89.77
11
124.904
21
-89.7876
0
LINE
8
BLACK
6
CONTINUOUS
10
124.904
20
-89.7876
11
124.104
21
-89.7876
0
LINE
8
BLACK
6
CONTINUOUS
10
124.104
20
-89.7876
11
122.304
21
-89.7876
0
LINE
8
BLACK
6
CONTINUOUS
10
122.304
20
-89.7876
11
122.262
21
-89.77
0
LINE
8
BLACK
6
CONTINUOUS
10
122.262
20
-89.77
11
122.244
21
-89.7276
0
LINE
8
BLACK
6
CONTINUOUS
10
122.244
20
-89.7276
11
122.262
21
-89.6852
0
LINE
8
BLACK
6
CONTINUOUS
10
122.262
20
-89.6852
11
122.304
21
-89.6676
0
LINE
8
BLACK
6
CONTINUOUS
10
122.304
20
-89.6676
11
124.104
21
-89.6676
0
LINE
8
BLACK
6
CONTINUOUS
10
132.333
20
-89.0109
11
132.392
21
-89.0489
0
LINE
8
BLACK
6
CONTINUOUS
10
132.392
20
-89.0489
11
132.422
21
-89.113
0
LINE
8
BLACK
6
CONTINUOUS
10
132.422
20
-89.113
11
132.412
21
-89.1827
0
LINE
8
BLACK
6
CONTINUOUS
10
132.412
20
-89.1827
11
132.399
21
-89.1969
0
LINE
8
BLACK
6
CONTINUOUS
10
132.399
20
-89.1969
11
132.41
21
-89.2178
0
LINE
8
BLACK
6
CONTINUOUS
10
132.41
20
-89.2178
11
132.421
21
-89.2515
0
LINE
8
BLACK
6
CONTINUOUS
10
132.421
20
-89.2515
11
132.42
21
-89.2628
0
LINE
8
BLACK
6
CONTINUOUS
10
132.42
20
-89.2628
11
132.423
21
-89.2737
0
LINE
8
BLACK
6
CONTINUOUS
10
132.423
20
-89.2737
11
132.423
21
-89.4165
0
LINE
8
BLACK
6
CONTINUOUS
10
132.423
20
-89.4165
11
132.418
21
-89.4517
0
LINE
8
BLACK
6
CONTINUOUS
10
132.418
20
-89.4517
11
132.412
21
-89.4613
0
LINE
8
BLACK
6
CONTINUOUS
10
132.412
20
-89.4613
11
132.41
21
-89.4724
0
LINE
8
BLACK
6
CONTINUOUS
10
132.41
20
-89.4724
11
132.362
21
-89.5677
0
LINE
8
BLACK
6
CONTINUOUS
10
132.362
20
-89.5677
11
132.358
21
-89.5729
0
LINE
8
BLACK
6
CONTINUOUS
10
132.358
20
-89.5729
11
132.358
21
-89.5756
0
LINE
8
BLACK
6
CONTINUOUS
10
132.358
20
-89.5756
11
132.354
21
-89.5787
0
LINE
8
BLACK
6
CONTINUOUS
10
132.354
20
-89.5787
11
132.342
21
-89.5969
0
LINE
8
BLACK
6
CONTINUOUS
10
132.342
20
-89.5969
11
132.323
21
-89.6083
0
LINE
8
BLACK
6
CONTINUOUS
10
132.323
20
-89.6083
11
132.306
21
-89.6236
0
LINE
8
BLACK
6
CONTINUOUS
10
132.306
20
-89.6236
11
132.211
21
-89.6712
0
LINE
8
BLACK
6
CONTINUOUS
10
132.211
20
-89.6712
11
132.177
21
-89.6824
0
LINE
8
BLACK
6
CONTINUOUS
10
132.177
20
-89.6824
11
132.166
21
-89.6812
0
LINE
8
BLACK
6
CONTINUOUS
10
132.166
20
-89.6812
11
132.155
21
-89.6844
0
LINE
8
BLACK
6
CONTINUOUS
10
132.155
20
-89.6844
11
131.631
21
-89.6844
0
LINE
8
BLACK
6
CONTINUOUS
10
131.631
20
-89.6844
11
131.596
21
-89.6793
0
LINE
8
BLACK
6
CONTINUOUS
10
131.596
20
-89.6793
11
131.537
21
-89.6412
0
LINE
8
BLACK
6
CONTINUOUS
10
131.537
20
-89.6412
11
131.507
21
-89.5772
0
LINE
8
BLACK
6
CONTINUOUS
10
131.507
20
-89.5772
11
131.517
21
-89.5074
0
LINE
8
BLACK
6
CONTINUOUS
10
131.517
20
-89.5074
11
131.564
21
-89.4542
0
LINE
8
BLACK
6
CONTINUOUS
10
131.564
20
-89.4542
11
131.631
21
-89.4344
0
LINE
8
BLACK
6
CONTINUOUS
10
131.631
20
-89.4344
11
132.125
21
-89.4344
0
LINE
8
BLACK
6
CONTINUOUS
10
132.125
20
-89.4344
11
132.157
21
-89.4186
0
LINE
8
BLACK
6
CONTINUOUS
10
132.157
20
-89.4186
11
132.173
21
-89.387
0
LINE
8
BLACK
6
CONTINUOUS
10
132.173
20
-89.387
11
132.173
21
-89.3032
0
LINE
8
BLACK
6
CONTINUOUS
10
132.173
20
-89.3032
11
132.149
21
-89.2558
0
LINE
8
BLACK
6
CONTINUOUS
10
132.149
20
-89.2558
11
131.631
21
-89.2558
0
LINE
8
BLACK
6
CONTINUOUS
10
131.631
20
-89.2558
11
131.596
21
-89.2507
0
LINE
8
BLACK
6
CONTINUOUS
10
131.596
20
-89.2507
11
131.537
21
-89.2127
0
LINE
8
BLACK
6
CONTINUOUS
10
131.537
20
-89.2127
11
131.507
21
-89.1486
0
LINE
8
BLACK
6
CONTINUOUS
10
131.507
20
-89.1486
11
131.517
21
-89.0789
0
LINE
8
BLACK
6
CONTINUOUS
10
131.517
20
-89.0789
11
131.564
21
-89.0256
0
LINE
8
BLACK
6
CONTINUOUS
10
131.564
20
-89.0256
11
131.631
21
-89.0058
0
LINE
8
BLACK
6
CONTINUOUS
10
131.631
20
-89.0058
11
132.298
21
-89.0058
0
LINE
8
BLACK
6
CONTINUOUS
10
132.298
20
-89.0058
11
132.333
21
-89.0109
0
LINE
8
BLACK
6
CONTINUOUS
10
124.364
20
-89.266
11
124.381
21
-89.3084
0
LINE
8
BLACK
6
CONTINUOUS
10
124.381
20
-89.3084
11
124.364
21
-89.3508
0
LINE
8
BLACK
6
CONTINUOUS
10
124.364
20
-89.3508
11
124.321
21
-89.3684
0
LINE
8
BLACK
6
CONTINUOUS
10
124.321
20
-89.3684
11
124.04
21
-89.3684
0
LINE
8
BLACK
6
CONTINUOUS
10
124.04
20
-89.3684
11
123.998
21
-89.3508
0
LINE
8
BLACK
6
CONTINUOUS
10
123.998
20
-89.3508
11
123.98
21
-89.3084
0
LINE
8
BLACK
6
CONTINUOUS
10
123.98
20
-89.3084
11
123.998
21
-89.266
0
LINE
8
BLACK
6
CONTINUOUS
10
123.998
20
-89.266
11
124.04
21
-89.2484
0
LINE
8
BLACK
6
CONTINUOUS
10
124.04
20
-89.2484
11
124.321
21
-89.2484
0
LINE
8
BLACK
6
CONTINUOUS
10
124.321
20
-89.2484
11
124.364
21
-89.266
0
LINE
8
BLACK
6
CONTINUOUS
10
130.481
20
-88.6502
11
130.525
21
-88.6939
0
LINE
8
BLACK
6
CONTINUOUS
10
130.525
20
-88.6939
11
130.534
21
-88.755
0
LINE
8
BLACK
6
CONTINUOUS
10
130.534
20
-88.755
11
130.506
21
-88.81
0
LINE
8
BLACK
6
CONTINUOUS
10
130.506
20
-88.81
11
130.48
21
-88.8367
0
LINE
8
BLACK
6
CONTINUOUS
10
130.48
20
-88.8367
11
130.46
21
-88.8772
0
LINE
8
BLACK
6
CONTINUOUS
10
130.46
20
-88.8772
11
130.46
21
-89.0586
0
LINE
8
BLACK
6
CONTINUOUS
10
130.46
20
-89.0586
11
130.48
21
-89.0991
0
LINE
8
BLACK
6
CONTINUOUS
10
130.48
20
-89.0991
11
130.495
21
-89.1143
0
LINE
8
BLACK
6
CONTINUOUS
10
130.495
20
-89.1143
11
130.535
21
-89.1346
0
LINE
8
BLACK
6
CONTINUOUS
10
130.535
20
-89.1346
11
130.679
21
-89.1346
0
LINE
8
BLACK
6
CONTINUOUS
10
130.679
20
-89.1346
11
130.719
21
-89.1143
0
LINE
8
BLACK
6
CONTINUOUS
10
130.719
20
-89.1143
11
130.734
21
-89.0991
0
LINE
8
BLACK
6
CONTINUOUS
10
130.734
20
-89.0991
11
130.755
21
-89.0586
0
LINE
8
BLACK
6
CONTINUOUS
10
130.755
20
-89.0586
11
130.755
21
-88.9679
0
LINE
8
BLACK
6
CONTINUOUS
10
130.755
20
-88.9679
11
130.761
21
-88.9487
0
LINE
8
BLACK
6
CONTINUOUS
10
130.761
20
-88.9487
11
130.763
21
-88.9285
0
LINE
8
BLACK
6
CONTINUOUS
10
130.763
20
-88.9285
11
130.77
21
-88.9199
0
LINE
8
BLACK
6
CONTINUOUS
10
130.77
20
-88.9199
11
130.774
21
-88.9091
0
LINE
8
BLACK
6
CONTINUOUS
10
130.774
20
-88.9091
11
130.79
21
-88.8972
0
LINE
8
BLACK
6
CONTINUOUS
10
130.79
20
-88.8972
11
130.804
21
-88.882
0
LINE
8
BLACK
6
CONTINUOUS
10
130.804
20
-88.882
11
130.815
21
-88.8795
0
LINE
8
BLACK
6
CONTINUOUS
10
130.815
20
-88.8795
11
130.824
21
-88.8728
0
LINE
8
BLACK
6
CONTINUOUS
10
130.824
20
-88.8728
11
130.844
21
-88.8728
0
LINE
8
BLACK
6
CONTINUOUS
10
130.844
20
-88.8728
11
130.864
21
-88.8683
0
LINE
8
BLACK
6
CONTINUOUS
10
130.864
20
-88.8683
11
130.874
21
-88.8728
0
LINE
8
BLACK
6
CONTINUOUS
10
130.874
20
-88.8728
11
130.886
21
-88.8728
0
LINE
8
BLACK
6
CONTINUOUS
10
130.886
20
-88.8728
11
130.902
21
-88.8847
0
LINE
8
BLACK
6
CONTINUOUS
10
130.902
20
-88.8847
11
130.921
21
-88.8926
0
LINE
8
BLACK
6
CONTINUOUS
10
130.921
20
-88.8926
11
131.06
21
-89.0142
0
LINE
8
BLACK
6
CONTINUOUS
10
131.06
20
-89.0142
11
131.06
21
-88.7393
0
LINE
8
BLACK
6
CONTINUOUS
10
131.06
20
-88.7393
11
131.079
21
-88.6805
0
LINE
8
BLACK
6
CONTINUOUS
10
131.079
20
-88.6805
11
131.129
21
-88.6442
0
LINE
8
BLACK
6
CONTINUOUS
10
131.129
20
-88.6442
11
131.19
21
-88.6442
0
LINE
8
BLACK
6
CONTINUOUS
10
131.19
20
-88.6442
11
131.24
21
-88.6805
0
LINE
8
BLACK
6
CONTINUOUS
10
131.24
20
-88.6805
11
131.26
21
-88.7393
0
LINE
8
BLACK
6
CONTINUOUS
10
131.26
20
-88.7393
11
131.26
21
-89.2346
0
LINE
8
BLACK
6
CONTINUOUS
10
131.26
20
-89.2346
11
131.253
21
-89.2538
0
LINE
8
BLACK
6
CONTINUOUS
10
131.253
20
-89.2538
11
131.251
21
-89.2739
0
LINE
8
BLACK
6
CONTINUOUS
10
131.251
20
-89.2739
11
131.244
21
-89.2825
0
LINE
8
BLACK
6
CONTINUOUS
10
131.244
20
-89.2825
11
131.24
21
-89.2933
0
LINE
8
BLACK
6
CONTINUOUS
10
131.24
20
-89.2933
11
131.224
21
-89.3052
0
LINE
8
BLACK
6
CONTINUOUS
10
131.224
20
-89.3052
11
131.211
21
-89.3204
0
LINE
8
BLACK
6
CONTINUOUS
10
131.211
20
-89.3204
11
131.2
21
-89.323
0
LINE
8
BLACK
6
CONTINUOUS
10
131.2
20
-89.323
11
131.19
21
-89.3297
0
LINE
8
BLACK
6
CONTINUOUS
10
131.19
20
-89.3297
11
131.17
21
-89.3297
0
LINE
8
BLACK
6
CONTINUOUS
10
131.17
20
-89.3297
11
131.15
21
-89.3341
0
LINE
8
BLACK
6
CONTINUOUS
10
131.15
20
-89.3341
11
131.14
21
-89.3297
0
LINE
8
BLACK
6
CONTINUOUS
10
131.14
20
-89.3297
11
131.129
21
-89.3297
0
LINE
8
BLACK
6
CONTINUOUS
10
131.129
20
-89.3297
11
131.112
21
-89.3178
0
LINE
8
BLACK
6
CONTINUOUS
10
131.112
20
-89.3178
11
131.094
21
-89.3098
0
LINE
8
BLACK
6
CONTINUOUS
10
131.094
20
-89.3098
11
130.926
21
-89.1632
0
LINE
8
BLACK
6
CONTINUOUS
10
130.926
20
-89.1632
11
130.906
21
-89.2031
0
LINE
8
BLACK
6
CONTINUOUS
10
130.906
20
-89.2031
11
130.895
21
-89.2146
0
LINE
8
BLACK
6
CONTINUOUS
10
130.895
20
-89.2146
11
130.887
21
-89.2291
0
LINE
8
BLACK
6
CONTINUOUS
10
130.887
20
-89.2291
11
130.849
21
-89.2672
0
LINE
8
BLACK
6
CONTINUOUS
10
130.849
20
-89.2672
11
130.835
21
-89.2745
0
LINE
8
BLACK
6
CONTINUOUS
10
130.835
20
-89.2745
11
130.823
21
-89.2859
0
LINE
8
BLACK
6
CONTINUOUS
10
130.823
20
-89.2859
11
130.747
21
-89.324
0
LINE
8
BLACK
6
CONTINUOUS
10
130.747
20
-89.324
11
130.724
21
-89.3274
0
LINE
8
BLACK
6
CONTINUOUS
10
130.724
20
-89.3274
11
130.702
21
-89.3346
0
LINE
8
BLACK
6
CONTINUOUS
10
130.702
20
-89.3346
11
130.512
21
-89.3346
0
LINE
8
BLACK
6
CONTINUOUS
10
130.512
20
-89.3346
11
130.49
21
-89.3274
0
LINE
8
BLACK
6
CONTINUOUS
10
130.49
20
-89.3274
11
130.467
21
-89.324
0
LINE
8
BLACK
6
CONTINUOUS
10
130.467
20
-89.324
11
130.391
21
-89.2859
0
LINE
8
BLACK
6
CONTINUOUS
10
130.391
20
-89.2859
11
130.379
21
-89.2745
0
LINE
8
BLACK
6
CONTINUOUS
10
130.379
20
-89.2745
11
130.365
21
-89.2672
0
LINE
8
BLACK
6
CONTINUOUS
10
130.365
20
-89.2672
11
130.327
21
-89.2291
0
LINE
8
BLACK
6
CONTINUOUS
10
130.327
20
-89.2291
11
130.32
21
-89.2146
0
LINE
8
BLACK
6
CONTINUOUS
10
130.32
20
-89.2146
11
130.308
21
-89.2031
0
LINE
8
BLACK
6
CONTINUOUS
10
130.308
20
-89.2031
11
130.27
21
-89.1269
0
LINE
8
BLACK
6
CONTINUOUS
10
130.27
20
-89.1269
11
130.267
21
-89.1041
0
LINE
8
BLACK
6
CONTINUOUS
10
130.267
20
-89.1041
11
130.26
21
-89.0822
0
LINE
8
BLACK
6
CONTINUOUS
10
130.26
20
-89.0822
11
130.26
21
-88.8536
0
LINE
8
BLACK
6
CONTINUOUS
10
130.26
20
-88.8536
11
130.267
21
-88.8317
0
LINE
8
BLACK
6
CONTINUOUS
10
130.267
20
-88.8317
11
130.27
21
-88.8089
0
LINE
8
BLACK
6
CONTINUOUS
10
130.27
20
-88.8089
11
130.308
21
-88.7327
0
LINE
8
BLACK
6
CONTINUOUS
10
130.308
20
-88.7327
11
130.32
21
-88.7211
0
LINE
8
BLACK
6
CONTINUOUS
10
130.32
20
-88.7211
11
130.327
21
-88.7067
0
LINE
8
BLACK
6
CONTINUOUS
10
130.327
20
-88.7067
11
130.365
21
-88.6686
0
LINE
8
BLACK
6
CONTINUOUS
10
130.365
20
-88.6686
11
130.42
21
-88.6406
0
LINE
8
BLACK
6
CONTINUOUS
10
130.42
20
-88.6406
11
130.481
21
-88.6502
0
LINE
8
BLACK
6
CONTINUOUS
10
132.333
20
-88.3918
11
132.392
21
-88.4299
0
LINE
8
BLACK
6
CONTINUOUS
10
132.392
20
-88.4299
11
132.422
21
-88.494
0
LINE
8
BLACK
6
CONTINUOUS
10
132.422
20
-88.494
11
132.412
21
-88.5637
0
LINE
8
BLACK
6
CONTINUOUS
10
132.412
20
-88.5637
11
132.384
21
-88.5953
0
LINE
8
BLACK
6
CONTINUOUS
10
132.384
20
-88.5953
11
132.41
21
-88.6463
0
LINE
8
BLACK
6
CONTINUOUS
10
132.41
20
-88.6463
11
132.421
21
-88.6801
0
LINE
8
BLACK
6
CONTINUOUS
10
132.421
20
-88.6801
11
132.42
21
-88.6914
0
LINE
8
BLACK
6
CONTINUOUS
10
132.42
20
-88.6914
11
132.423
21
-88.7022
0
LINE
8
BLACK
6
CONTINUOUS
10
132.423
20
-88.7022
11
132.423
21
-88.7975
0
LINE
8
BLACK
6
CONTINUOUS
10
132.423
20
-88.7975
11
132.418
21
-88.8327
0
LINE
8
BLACK
6
CONTINUOUS
10
132.418
20
-88.8327
11
132.38
21
-88.8919
0
LINE
8
BLACK
6
CONTINUOUS
10
132.38
20
-88.8919
11
132.316
21
-88.9212
0
LINE
8
BLACK
6
CONTINUOUS
10
132.316
20
-88.9212
11
132.246
21
-88.9112
0
LINE
8
BLACK
6
CONTINUOUS
10
132.246
20
-88.9112
11
132.193
21
-88.865
0
LINE
8
BLACK
6
CONTINUOUS
10
132.193
20
-88.865
11
132.173
21
-88.7975
0
LINE
8
BLACK
6
CONTINUOUS
10
132.173
20
-88.7975
11
132.173
21
-88.7317
0
LINE
8
BLACK
6
CONTINUOUS
10
132.173
20
-88.7317
11
132.147
21
-88.681
0
LINE
8
BLACK
6
CONTINUOUS
10
132.147
20
-88.681
11
132.129
21
-88.6621
0
LINE
8
BLACK
6
CONTINUOUS
10
132.129
20
-88.6621
11
132.078
21
-88.6367
0
LINE
8
BLACK
6
CONTINUOUS
10
132.078
20
-88.6367
11
131.631
21
-88.6367
0
LINE
8
BLACK
6
CONTINUOUS
10
131.631
20
-88.6367
11
131.596
21
-88.6317
0
LINE
8
BLACK
6
CONTINUOUS
10
131.596
20
-88.6317
11
131.537
21
-88.5936
0
LINE
8
BLACK
6
CONTINUOUS
10
131.537
20
-88.5936
11
131.507
21
-88.5295
0
LINE
8
BLACK
6
CONTINUOUS
10
131.507
20
-88.5295
11
131.517
21
-88.4598
0
LINE
8
BLACK
6
CONTINUOUS
10
131.517
20
-88.4598
11
131.564
21
-88.4066
0
LINE
8
BLACK
6
CONTINUOUS
10
131.564
20
-88.4066
11
131.631
21
-88.3867
0
LINE
8
BLACK
6
CONTINUOUS
10
131.631
20
-88.3867
11
132.298
21
-88.3867
0
LINE
8
BLACK
6
CONTINUOUS
10
132.298
20
-88.3867
11
132.333
21
-88.3918
0
LINE
8
BLACK
6
CONTINUOUS
10
125.563
20
-88.3432
11
125.577
21
-88.378
0
LINE
8
BLACK
6
CONTINUOUS
10
125.577
20
-88.378
11
125.577
21
-88.5655
0
LINE
8
BLACK
6
CONTINUOUS
10
125.577
20
-88.5655
11
125.563
21
-88.6003
0
LINE
8
BLACK
6
CONTINUOUS
10
125.563
20
-88.6003
11
125.528
21
-88.6147
0
LINE
8
BLACK
6
CONTINUOUS
10
125.528
20
-88.6147
11
125.134
21
-88.6147
0
LINE
8
BLACK
6
CONTINUOUS
10
125.134
20
-88.6147
11
125.099
21
-88.6003
0
LINE
8
BLACK
6
CONTINUOUS
10
125.099
20
-88.6003
11
125.085
21
-88.5655
0
LINE
8
BLACK
6
CONTINUOUS
10
125.085
20
-88.5655
11
125.099
21
-88.5307
0
LINE
8
BLACK
6
CONTINUOUS
10
125.099
20
-88.5307
11
125.134
21
-88.5163
0
LINE
8
BLACK
6
CONTINUOUS
10
125.134
20
-88.5163
11
125.479
21
-88.5163
0
LINE
8
BLACK
6
CONTINUOUS
10
125.479
20
-88.5163
11
125.479
21
-88.378
0
LINE
8
BLACK
6
CONTINUOUS
10
125.479
20
-88.378
11
125.493
21
-88.3432
0
LINE
8
BLACK
6
CONTINUOUS
10
125.493
20
-88.3432
11
125.528
21
-88.3288
0
LINE
8
BLACK
6
CONTINUOUS
10
125.528
20
-88.3288
11
125.563
21
-88.3432
0
LINE
8
BLACK
6
CONTINUOUS
10
130.427
20
-88.3049
11
130.443
21
-88.3074
0
LINE
8
BLACK
6
CONTINUOUS
10
130.443
20
-88.3074
11
130.454
21
-88.3186
0
LINE
8
BLACK
6
CONTINUOUS
10
130.454
20
-88.3186
11
130.468
21
-88.3258
0
LINE
8
BLACK
6
CONTINUOUS
10
130.468
20
-88.3258
11
130.506
21
-88.3638
0
LINE
8
BLACK
6
CONTINUOUS
10
130.506
20
-88.3638
11
130.514
21
-88.378
0
LINE
8
BLACK
6
CONTINUOUS
10
130.514
20
-88.378
11
130.525
21
-88.3892
0
LINE
8
BLACK
6
CONTINUOUS
10
130.525
20
-88.3892
11
130.526
21
-88.3971
0
LINE
8
BLACK
6
CONTINUOUS
10
130.526
20
-88.3971
11
130.531
21
-88.4037
0
LINE
8
BLACK
6
CONTINUOUS
10
130.531
20
-88.4037
11
130.531
21
-88.4117
0
LINE
8
BLACK
6
CONTINUOUS
10
130.531
20
-88.4117
11
130.534
21
-88.4189
0
LINE
8
BLACK
6
CONTINUOUS
10
130.534
20
-88.4189
11
130.532
21
-88.4346
0
LINE
8
BLACK
6
CONTINUOUS
10
130.532
20
-88.4346
11
130.534
21
-88.4502
0
LINE
8
BLACK
6
CONTINUOUS
10
130.534
20
-88.4502
11
130.531
21
-88.4574
0
LINE
8
BLACK
6
CONTINUOUS
10
130.531
20
-88.4574
11
130.531
21
-88.4655
0
LINE
8
BLACK
6
CONTINUOUS
10
130.531
20
-88.4655
11
130.526
21
-88.472
0
LINE
8
BLACK
6
CONTINUOUS
10
130.526
20
-88.472
11
130.525
21
-88.48
0
LINE
8
BLACK
6
CONTINUOUS
10
130.525
20
-88.48
11
130.514
21
-88.4912
0
LINE
8
BLACK
6
CONTINUOUS
10
130.514
20
-88.4912
11
130.506
21
-88.5053
0
LINE
8
BLACK
6
CONTINUOUS
10
130.506
20
-88.5053
11
130.468
21
-88.5434
0
LINE
8
BLACK
6
CONTINUOUS
10
130.468
20
-88.5434
11
130.454
21
-88.5506
0
LINE
8
BLACK
6
CONTINUOUS
10
130.454
20
-88.5506
11
130.443
21
-88.5618
0
LINE
8
BLACK
6
CONTINUOUS
10
130.443
20
-88.5618
11
130.427
21
-88.5642
0
LINE
8
BLACK
6
CONTINUOUS
10
130.427
20
-88.5642
11
130.413
21
-88.5714
0
LINE
8
BLACK
6
CONTINUOUS
10
130.413
20
-88.5714
11
130.398
21
-88.5689
0
LINE
8
BLACK
6
CONTINUOUS
10
130.398
20
-88.5689
11
130.382
21
-88.5714
0
LINE
8
BLACK
6
CONTINUOUS
10
130.382
20
-88.5714
11
130.368
21
-88.5642
0
LINE
8
BLACK
6
CONTINUOUS
10
130.368
20
-88.5642
11
130.352
21
-88.5618
0
LINE
8
BLACK
6
CONTINUOUS
10
130.352
20
-88.5618
11
130.341
21
-88.5506
0
LINE
8
BLACK
6
CONTINUOUS
10
130.341
20
-88.5506
11
130.327
21
-88.5434
0
LINE
8
BLACK
6
CONTINUOUS
10
130.327
20
-88.5434
11
130.289
21
-88.5053
0
LINE
8
BLACK
6
CONTINUOUS
10
130.289
20
-88.5053
11
130.282
21
-88.4912
0
LINE
8
BLACK
6
CONTINUOUS
10
130.282
20
-88.4912
11
130.27
21
-88.48
0
LINE
8
BLACK
6
CONTINUOUS
10
130.27
20
-88.48
11
130.269
21
-88.472
0
LINE
8
BLACK
6
CONTINUOUS
10
130.269
20
-88.472
11
130.264
21
-88.4655
0
LINE
8
BLACK
6
CONTINUOUS
10
130.264
20
-88.4655
11
130.264
21
-88.4574
0
LINE
8
BLACK
6
CONTINUOUS
10
130.264
20
-88.4574
11
130.261
21
-88.4502
0
LINE
8
BLACK
6
CONTINUOUS
10
130.261
20
-88.4502
11
130.263
21
-88.4346
0
LINE
8
BLACK
6
CONTINUOUS
10
130.263
20
-88.4346
11
130.261
21
-88.4189
0
LINE
8
BLACK
6
CONTINUOUS
10
130.261
20
-88.4189
11
130.264
21
-88.4117
0
LINE
8
BLACK
6
CONTINUOUS
10
130.264
20
-88.4117
11
130.264
21
-88.4037
0
LINE
8
BLACK
6
CONTINUOUS
10
130.264
20
-88.4037
11
130.269
21
-88.3971
0
LINE
8
BLACK
6
CONTINUOUS
10
130.269
20
-88.3971
11
130.27
21
-88.3892
0
LINE
8
BLACK
6
CONTINUOUS
10
130.27
20
-88.3892
11
130.282
21
-88.378
0
LINE
8
BLACK
6
CONTINUOUS
10
130.282
20
-88.378
11
130.289
21
-88.3638
0
LINE
8
BLACK
6
CONTINUOUS
10
130.289
20
-88.3638
11
130.327
21
-88.3258
0
LINE
8
BLACK
6
CONTINUOUS
10
130.327
20
-88.3258
11
130.341
21
-88.3186
0
LINE
8
BLACK
6
CONTINUOUS
10
130.341
20
-88.3186
11
130.352
21
-88.3074
0
LINE
8
BLACK
6
CONTINUOUS
10
130.352
20
-88.3074
11
130.368
21
-88.3049
0
LINE
8
BLACK
6
CONTINUOUS
10
130.368
20
-88.3049
11
130.382
21
-88.2977
0
LINE
8
BLACK
6
CONTINUOUS
10
130.382
20
-88.2977
11
130.398
21
-88.3002
0
LINE
8
BLACK
6
CONTINUOUS
10
130.398
20
-88.3002
11
130.413
21
-88.2977
0
LINE
8
BLACK
6
CONTINUOUS
10
130.413
20
-88.2977
11
130.427
21
-88.3049
0
LINE
8
BLACK
6
CONTINUOUS
10
124.364
20
-88.246
11
124.381
21
-88.2884
0
LINE
8
BLACK
6
CONTINUOUS
10
124.381
20
-88.2884
11
124.364
21
-88.3308
0
LINE
8
BLACK
6
CONTINUOUS
10
124.364
20
-88.3308
11
124.321
21
-88.3484
0
LINE
8
BLACK
6
CONTINUOUS
10
124.321
20
-88.3484
11
124.04
21
-88.3484
0
LINE
8
BLACK
6
CONTINUOUS
10
124.04
20
-88.3484
11
123.998
21
-88.3308
0
LINE
8
BLACK
6
CONTINUOUS
10
123.998
20
-88.3308
11
123.98
21
-88.2884
0
LINE
8
BLACK
6
CONTINUOUS
10
123.98
20
-88.2884
11
123.998
21
-88.246
0
LINE
8
BLACK
6
CONTINUOUS
10
123.998
20
-88.246
11
124.04
21
-88.2284
0
LINE
8
BLACK
6
CONTINUOUS
10
124.04
20
-88.2284
11
124.321
21
-88.2284
0
LINE
8
BLACK
6
CONTINUOUS
10
124.321
20
-88.2284
11
124.364
21
-88.246
0
LINE
8
BLACK
6
CONTINUOUS
10
125.563
20
-88.0058
11
125.577
21
-88.0406
0
LINE
8
BLACK
6
CONTINUOUS
10
125.577
20
-88.0406
11
125.577
21
-88.2655
0
LINE
8
BLACK
6
CONTINUOUS
10
125.577
20
-88.2655
11
125.563
21
-88.3003
0
LINE
8
BLACK
6
CONTINUOUS
10
125.563
20
-88.3003
11
125.528
21
-88.3147
0
LINE
8
BLACK
6
CONTINUOUS
10
125.528
20
-88.3147
11
125.493
21
-88.3003
0
LINE
8
BLACK
6
CONTINUOUS
10
125.493
20
-88.3003
11
125.479
21
-88.2655
0
LINE
8
BLACK
6
CONTINUOUS
10
125.479
20
-88.2655
11
125.479
21
-88.2023
0
LINE
8
BLACK
6
CONTINUOUS
10
125.479
20
-88.2023
11
125.268
21
-88.2023
0
LINE
8
BLACK
6
CONTINUOUS
10
125.268
20
-88.2023
11
125.272
21
-88.206
0
LINE
8
BLACK
6
CONTINUOUS
10
125.272
20
-88.206
11
125.291
21
-88.2435
0
LINE
8
BLACK
6
CONTINUOUS
10
125.291
20
-88.2435
11
125.293
21
-88.2811
0
LINE
8
BLACK
6
CONTINUOUS
10
125.293
20
-88.2811
11
125.269
21
-88.3095
0
LINE
8
BLACK
6
CONTINUOUS
10
125.269
20
-88.3095
11
125.231
21
-88.3122
0
LINE
8
BLACK
6
CONTINUOUS
10
125.231
20
-88.3122
11
125.203
21
-88.2875
0
LINE
8
BLACK
6
CONTINUOUS
10
125.203
20
-88.2875
11
125.187
21
-88.2572
0
LINE
8
BLACK
6
CONTINUOUS
10
125.187
20
-88.2572
11
125.159
21
-88.2288
0
LINE
8
BLACK
6
CONTINUOUS
10
125.159
20
-88.2288
11
125.107
21
-88.194
0
LINE
8
BLACK
6
CONTINUOUS
10
125.107
20
-88.194
11
125.104
21
-88.1898
0
LINE
8
BLACK
6
CONTINUOUS
10
125.104
20
-88.1898
11
125.099
21
-88.1878
0
LINE
8
BLACK
6
CONTINUOUS
10
125.099
20
-88.1878
11
125.094
21
-88.1746
0
LINE
8
BLACK
6
CONTINUOUS
10
125.094
20
-88.1746
11
125.086
21
-88.1627
0
LINE
8
BLACK
6
CONTINUOUS
10
125.086
20
-88.1627
11
125.087
21
-88.1577
0
LINE
8
BLACK
6
CONTINUOUS
10
125.087
20
-88.1577
11
125.085
21
-88.153
0
LINE
8
BLACK
6
CONTINUOUS
10
125.085
20
-88.153
11
125.09
21
-88.1398
0
LINE
8
BLACK
6
CONTINUOUS
10
125.09
20
-88.1398
11
125.093
21
-88.1257
0
LINE
8
BLACK
6
CONTINUOUS
10
125.093
20
-88.1257
11
125.097
21
-88.1229
0
LINE
8
BLACK
6
CONTINUOUS
10
125.097
20
-88.1229
11
125.099
21
-88.1182
0
LINE
8
BLACK
6
CONTINUOUS
10
125.099
20
-88.1182
11
125.113
21
-88.1128
0
LINE
8
BLACK
6
CONTINUOUS
10
125.113
20
-88.1128
11
125.124
21
-88.1048
0
LINE
8
BLACK
6
CONTINUOUS
10
125.124
20
-88.1048
11
125.129
21
-88.1058
0
LINE
8
BLACK
6
CONTINUOUS
10
125.129
20
-88.1058
11
125.134
21
-88.1038
0
LINE
8
BLACK
6
CONTINUOUS
10
125.134
20
-88.1038
11
125.479
21
-88.1038
0
LINE
8
BLACK
6
CONTINUOUS
10
125.479
20
-88.1038
11
125.479
21
-88.0406
0
LINE
8
BLACK
6
CONTINUOUS
10
125.479
20
-88.0406
11
125.493
21
-88.0058
0
LINE
8
BLACK
6
CONTINUOUS
10
125.493
20
-88.0058
11
125.528
21
-87.9913
0
LINE
8
BLACK
6
CONTINUOUS
10
125.528
20
-87.9913
11
125.563
21
-88.0058
0
LINE
8
BLACK
6
CONTINUOUS
10
132.143
20
-87.4394
11
132.152
21
-87.4456
0
LINE
8
BLACK
6
CONTINUOUS
10
132.152
20
-87.4456
11
132.163
21
-87.4476
0
LINE
8
BLACK
6
CONTINUOUS
10
132.163
20
-87.4476
11
132.259
21
-87.4952
0
LINE
8
BLACK
6
CONTINUOUS
10
132.259
20
-87.4952
11
132.288
21
-87.5155
0
LINE
8
BLACK
6
CONTINUOUS
10
132.288
20
-87.5155
11
132.289
21
-87.5175
0
LINE
8
BLACK
6
CONTINUOUS
10
132.289
20
-87.5175
11
132.291
21
-87.5186
0
LINE
8
BLACK
6
CONTINUOUS
10
132.291
20
-87.5186
11
132.339
21
-87.5662
0
LINE
8
BLACK
6
CONTINUOUS
10
132.339
20
-87.5662
11
132.36
21
-87.5947
0
LINE
8
BLACK
6
CONTINUOUS
10
132.36
20
-87.5947
11
132.36
21
-87.597
0
LINE
8
BLACK
6
CONTINUOUS
10
132.36
20
-87.597
11
132.362
21
-87.5987
0
LINE
8
BLACK
6
CONTINUOUS
10
132.362
20
-87.5987
11
132.41
21
-87.6939
0
LINE
8
BLACK
6
CONTINUOUS
10
132.41
20
-87.6939
11
132.421
21
-87.7277
0
LINE
8
BLACK
6
CONTINUOUS
10
132.421
20
-87.7277
11
132.42
21
-87.739
0
LINE
8
BLACK
6
CONTINUOUS
10
132.42
20
-87.739
11
132.423
21
-87.7498
0
LINE
8
BLACK
6
CONTINUOUS
10
132.423
20
-87.7498
11
132.423
21
-87.8927
0
LINE
8
BLACK
6
CONTINUOUS
10
132.423
20
-87.8927
11
132.418
21
-87.9279
0
LINE
8
BLACK
6
CONTINUOUS
10
132.418
20
-87.9279
11
132.412
21
-87.9375
0
LINE
8
BLACK
6
CONTINUOUS
10
132.412
20
-87.9375
11
132.41
21
-87.9486
0
LINE
8
BLACK
6
CONTINUOUS
10
132.41
20
-87.9486
11
132.362
21
-88.0438
0
LINE
8
BLACK
6
CONTINUOUS
10
132.362
20
-88.0438
11
132.342
21
-88.0731
0
LINE
8
BLACK
6
CONTINUOUS
10
132.342
20
-88.0731
11
132.34
21
-88.0743
0
LINE
8
BLACK
6
CONTINUOUS
10
132.34
20
-88.0743
11
132.339
21
-88.0763
0
LINE
8
BLACK
6
CONTINUOUS
10
132.339
20
-88.0763
11
132.291
21
-88.1239
0
LINE
8
BLACK
6
CONTINUOUS
10
132.291
20
-88.1239
11
132.263
21
-88.1453
0
LINE
8
BLACK
6
CONTINUOUS
10
132.263
20
-88.1453
11
132.26
21
-88.1458
0
LINE
8
BLACK
6
CONTINUOUS
10
132.26
20
-88.1458
11
132.259
21
-88.1474
0
LINE
8
BLACK
6
CONTINUOUS
10
132.259
20
-88.1474
11
132.163
21
-88.195
0
LINE
8
BLACK
6
CONTINUOUS
10
132.163
20
-88.195
11
132.13
21
-88.2062
0
LINE
8
BLACK
6
CONTINUOUS
10
132.13
20
-88.2062
11
132.118
21
-88.205
0
LINE
8
BLACK
6
CONTINUOUS
10
132.118
20
-88.205
11
132.107
21
-88.2082
0
LINE
8
BLACK
6
CONTINUOUS
10
132.107
20
-88.2082
11
131.822
21
-88.2082
0
LINE
8
BLACK
6
CONTINUOUS
10
131.822
20
-88.2082
11
131.786
21
-88.2031
0
LINE
8
BLACK
6
CONTINUOUS
10
131.786
20
-88.2031
11
131.777
21
-88.197
0
LINE
8
BLACK
6
CONTINUOUS
10
131.777
20
-88.197
11
131.766
21
-88.195
0
LINE
8
BLACK
6
CONTINUOUS
10
131.766
20
-88.195
11
131.671
21
-88.1474
0
LINE
8
BLACK
6
CONTINUOUS
10
131.671
20
-88.1474
11
131.641
21
-88.1271
0
LINE
8
BLACK
6
CONTINUOUS
10
131.641
20
-88.1271
11
131.64
21
-88.1251
0
LINE
8
BLACK
6
CONTINUOUS
10
131.64
20
-88.1251
11
131.638
21
-88.1239
0
LINE
8
BLACK
6
CONTINUOUS
10
131.638
20
-88.1239
11
131.59
21
-88.0763
0
LINE
8
BLACK
6
CONTINUOUS
10
131.59
20
-88.0763
11
131.569
21
-88.0478
0
LINE
8
BLACK
6
CONTINUOUS
10
131.569
20
-88.0478
11
131.569
21
-88.0456
0
LINE
8
BLACK
6
CONTINUOUS
10
131.569
20
-88.0456
11
131.567
21
-88.0438
0
LINE
8
BLACK
6
CONTINUOUS
10
131.567
20
-88.0438
11
131.519
21
-87.9486
0
LINE
8
BLACK
6
CONTINUOUS
10
131.519
20
-87.9486
11
131.508
21
-87.9148
0
LINE
8
BLACK
6
CONTINUOUS
10
131.508
20
-87.9148
11
131.509
21
-87.9036
0
LINE
8
BLACK
6
CONTINUOUS
10
131.509
20
-87.9036
11
131.506
21
-87.8927
0
LINE
8
BLACK
6
CONTINUOUS
10
131.506
20
-87.8927
11
131.506
21
-87.7498
0
LINE
8
BLACK
6
CONTINUOUS
10
131.506
20
-87.7498
11
131.511
21
-87.7146
0
LINE
8
BLACK
6
CONTINUOUS
10
131.511
20
-87.7146
11
131.517
21
-87.7051
0
LINE
8
BLACK
6
CONTINUOUS
10
131.517
20
-87.7051
11
131.519
21
-87.6939
0
LINE
8
BLACK
6
CONTINUOUS
10
131.519
20
-87.6939
11
131.567
21
-87.5987
0
LINE
8
BLACK
6
CONTINUOUS
10
131.567
20
-87.5987
11
131.587
21
-87.5695
0
LINE
8
BLACK
6
CONTINUOUS
10
131.587
20
-87.5695
11
131.589
21
-87.5683
0
LINE
8
BLACK
6
CONTINUOUS
10
131.589
20
-87.5683
11
131.59
21
-87.5662
0
LINE
8
BLACK
6
CONTINUOUS
10
131.59
20
-87.5662
11
131.638
21
-87.5186
0
LINE
8
BLACK
6
CONTINUOUS
10
131.638
20
-87.5186
11
131.667
21
-87.4973
0
LINE
8
BLACK
6
CONTINUOUS
10
131.667
20
-87.4973
11
131.669
21
-87.4968
0
LINE
8
BLACK
6
CONTINUOUS
10
131.669
20
-87.4968
11
131.671
21
-87.4952
0
LINE
8
BLACK
6
CONTINUOUS
10
131.671
20
-87.4952
11
131.766
21
-87.4476
0
LINE
8
BLACK
6
CONTINUOUS
10
131.766
20
-87.4476
11
131.8
21
-87.4363
0
LINE
8
BLACK
6
CONTINUOUS
10
131.8
20
-87.4363
11
131.811
21
-87.4376
0
LINE
8
BLACK
6
CONTINUOUS
10
131.811
20
-87.4376
11
131.822
21
-87.4344
0
LINE
8
BLACK
6
CONTINUOUS
10
131.822
20
-87.4344
11
132.107
21
-87.4344
0
LINE
8
BLACK
6
CONTINUOUS
10
132.107
20
-87.4344
11
132.143
21
-87.4394
0
LINE
8
BLACK
6
CONTINUOUS
10
131.8
20
-87.7097
11
131.782
21
-87.7287
0
LINE
8
BLACK
6
CONTINUOUS
10
131.782
20
-87.7287
11
131.756
21
-87.7794
0
LINE
8
BLACK
6
CONTINUOUS
10
131.756
20
-87.7794
11
131.756
21
-87.8632
0
LINE
8
BLACK
6
CONTINUOUS
10
131.756
20
-87.8632
11
131.782
21
-87.9139
0
LINE
8
BLACK
6
CONTINUOUS
10
131.782
20
-87.9139
11
131.8
21
-87.9328
0
LINE
8
BLACK
6
CONTINUOUS
10
131.8
20
-87.9328
11
131.851
21
-87.9582
0
LINE
8
BLACK
6
CONTINUOUS
10
131.851
20
-87.9582
11
132.078
21
-87.9582
0
LINE
8
BLACK
6
CONTINUOUS
10
132.078
20
-87.9582
11
132.129
21
-87.9328
0
LINE
8
BLACK
6
CONTINUOUS
10
132.129
20
-87.9328
11
132.147
21
-87.9139
0
LINE
8
BLACK
6
CONTINUOUS
10
132.147
20
-87.9139
11
132.173
21
-87.8632
0
LINE
8
BLACK
6
CONTINUOUS
10
132.173
20
-87.8632
11
132.173
21
-87.7794
0
LINE
8
BLACK
6
CONTINUOUS
10
132.173
20
-87.7794
11
132.147
21
-87.7287
0
LINE
8
BLACK
6
CONTINUOUS
10
132.147
20
-87.7287
11
132.129
21
-87.7097
0
LINE
8
BLACK
6
CONTINUOUS
10
132.129
20
-87.7097
11
132.078
21
-87.6844
0
LINE
8
BLACK
6
CONTINUOUS
10
132.078
20
-87.6844
11
131.851
21
-87.6844
0
LINE
8
BLACK
6
CONTINUOUS
10
131.851
20
-87.6844
11
131.8
21
-87.7097
0
LINE
8
BLACK
6
CONTINUOUS
10
130.481
20
-87.5074
11
130.525
21
-87.5511
0
LINE
8
BLACK
6
CONTINUOUS
10
130.525
20
-87.5511
11
130.534
21
-87.6121
0
LINE
8
BLACK
6
CONTINUOUS
10
130.534
20
-87.6121
11
130.506
21
-87.6672
0
LINE
8
BLACK
6
CONTINUOUS
10
130.506
20
-87.6672
11
130.48
21
-87.6938
0
LINE
8
BLACK
6
CONTINUOUS
10
130.48
20
-87.6938
11
130.46
21
-87.7344
0
LINE
8
BLACK
6
CONTINUOUS
10
130.46
20
-87.7344
11
130.46
21
-87.9157
0
LINE
8
BLACK
6
CONTINUOUS
10
130.46
20
-87.9157
11
130.48
21
-87.9563
0
LINE
8
BLACK
6
CONTINUOUS
10
130.48
20
-87.9563
11
130.495
21
-87.9714
0
LINE
8
BLACK
6
CONTINUOUS
10
130.495
20
-87.9714
11
130.535
21
-87.9917
0
LINE
8
BLACK
6
CONTINUOUS
10
130.535
20
-87.9917
11
130.679
21
-87.9917
0
LINE
8
BLACK
6
CONTINUOUS
10
130.679
20
-87.9917
11
130.719
21
-87.9714
0
LINE
8
BLACK
6
CONTINUOUS
10
130.719
20
-87.9714
11
130.734
21
-87.9563
0
LINE
8
BLACK
6
CONTINUOUS
10
130.734
20
-87.9563
11
130.755
21
-87.9157
0
LINE
8
BLACK
6
CONTINUOUS
10
130.755
20
-87.9157
11
130.755
21
-87.825
0
LINE
8
BLACK
6
CONTINUOUS
10
130.755
20
-87.825
11
130.761
21
-87.8058
0
LINE
8
BLACK
6
CONTINUOUS
10
130.761
20
-87.8058
11
130.763
21
-87.7857
0
LINE
8
BLACK
6
CONTINUOUS
10
130.763
20
-87.7857
11
130.77
21
-87.7771
0
LINE
8
BLACK
6
CONTINUOUS
10
130.77
20
-87.7771
11
130.774
21
-87.7663
0
LINE
8
BLACK
6
CONTINUOUS
10
130.774
20
-87.7663
11
130.79
21
-87.7544
0
LINE
8
BLACK
6
CONTINUOUS
10
130.79
20
-87.7544
11
130.804
21
-87.7392
0
LINE
8
BLACK
6
CONTINUOUS
10
130.804
20
-87.7392
11
130.815
21
-87.7366
0
LINE
8
BLACK
6
CONTINUOUS
10
130.815
20
-87.7366
11
130.824
21
-87.7299
0
LINE
8
BLACK
6
CONTINUOUS
10
130.824
20
-87.7299
11
130.844
21
-87.7299
0
LINE
8
BLACK
6
CONTINUOUS
10
130.844
20
-87.7299
11
130.864
21
-87.7254
0
LINE
8
BLACK
6
CONTINUOUS
10
130.864
20
-87.7254
11
130.874
21
-87.7299
0
LINE
8
BLACK
6
CONTINUOUS
10
130.874
20
-87.7299
11
130.886
21
-87.7299
0
LINE
8
BLACK
6
CONTINUOUS
10
130.886
20
-87.7299
11
130.902
21
-87.7418
0
LINE
8
BLACK
6
CONTINUOUS
10
130.902
20
-87.7418
11
130.921
21
-87.7498
0
LINE
8
BLACK
6
CONTINUOUS
10
130.921
20
-87.7498
11
131.06
21
-87.8713
0
LINE
8
BLACK
6
CONTINUOUS
10
131.06
20
-87.8713
11
131.06
21
-87.5965
0
LINE
8
BLACK
6
CONTINUOUS
10
131.06
20
-87.5965
11
131.079
21
-87.5377
0
LINE
8
BLACK
6
CONTINUOUS
10
131.079
20
-87.5377
11
131.129
21
-87.5014
0
LINE
8
BLACK
6
CONTINUOUS
10
131.129
20
-87.5014
11
131.19
21
-87.5014
0
LINE
8
BLACK
6
CONTINUOUS
10
131.19
20
-87.5014
11
131.24
21
-87.5377
0
LINE
8
BLACK
6
CONTINUOUS
10
131.24
20
-87.5377
11
131.26
21
-87.5965
0
LINE
8
BLACK
6
CONTINUOUS
10
131.26
20
-87.5965
11
131.26
21
-88.0917
0
LINE
8
BLACK
6
CONTINUOUS
10
131.26
20
-88.0917
11
131.253
21
-88.1109
0
LINE
8
BLACK
6
CONTINUOUS
10
131.253
20
-88.1109
11
131.251
21
-88.1311
0
LINE
8
BLACK
6
CONTINUOUS
10
131.251
20
-88.1311
11
131.244
21
-88.1396
0
LINE
8
BLACK
6
CONTINUOUS
10
131.244
20
-88.1396
11
131.24
21
-88.1505
0
LINE
8
BLACK
6
CONTINUOUS
10
131.24
20
-88.1505
11
131.224
21
-88.1624
0
LINE
8
BLACK
6
CONTINUOUS
10
131.224
20
-88.1624
11
131.211
21
-88.1776
0
LINE
8
BLACK
6
CONTINUOUS
10
131.211
20
-88.1776
11
131.2
21
-88.1801
0
LINE
8
BLACK
6
CONTINUOUS
10
131.2
20
-88.1801
11
131.19
21
-88.1868
0
LINE
8
BLACK
6
CONTINUOUS
10
131.19
20
-88.1868
11
131.17
21
-88.1868
0
LINE
8
BLACK
6
CONTINUOUS
10
131.17
20
-88.1868
11
131.15
21
-88.1913
0
LINE
8
BLACK
6
CONTINUOUS
10
131.15
20
-88.1913
11
131.14
21
-88.1868
0
LINE
8
BLACK
6
CONTINUOUS
10
131.14
20
-88.1868
11
131.129
21
-88.1868
0
LINE
8
BLACK
6
CONTINUOUS
10
131.129
20
-88.1868
11
131.112
21
-88.1749
0
LINE
8
BLACK
6
CONTINUOUS
10
131.112
20
-88.1749
11
131.094
21
-88.167
0
LINE
8
BLACK
6
CONTINUOUS
10
131.094
20
-88.167
11
130.926
21
-88.0203
0
LINE
8
BLACK
6
CONTINUOUS
10
130.926
20
-88.0203
11
130.906
21
-88.0602
0
LINE
8
BLACK
6
CONTINUOUS
10
130.906
20
-88.0602
11
130.895
21
-88.0718
0
LINE
8
BLACK
6
CONTINUOUS
10
130.895
20
-88.0718
11
130.887
21
-88.0862
0
LINE
8
BLACK
6
CONTINUOUS
10
130.887
20
-88.0862
11
130.849
21
-88.1243
0
LINE
8
BLACK
6
CONTINUOUS
10
130.849
20
-88.1243
11
130.835
21
-88.1317
0
LINE
8
BLACK
6
CONTINUOUS
10
130.835
20
-88.1317
11
130.823
21
-88.143
0
LINE
8
BLACK
6
CONTINUOUS
10
130.823
20
-88.143
11
130.747
21
-88.1811
0
LINE
8
BLACK
6
CONTINUOUS
10
130.747
20
-88.1811
11
130.724
21
-88.1846
0
LINE
8
BLACK
6
CONTINUOUS
10
130.724
20
-88.1846
11
130.702
21
-88.1917
0
LINE
8
BLACK
6
CONTINUOUS
10
130.702
20
-88.1917
11
130.512
21
-88.1917
0
LINE
8
BLACK
6
CONTINUOUS
10
130.512
20
-88.1917
11
130.49
21
-88.1846
0
LINE
8
BLACK
6
CONTINUOUS
10
130.49
20
-88.1846
11
130.467
21
-88.1811
0
LINE
8
BLACK
6
CONTINUOUS
10
130.467
20
-88.1811
11
130.391
21
-88.143
0
LINE
8
BLACK
6
CONTINUOUS
10
130.391
20
-88.143
11
130.379
21
-88.1317
0
LINE
8
BLACK
6
CONTINUOUS
10
130.379
20
-88.1317
11
130.365
21
-88.1243
0
LINE
8
BLACK
6
CONTINUOUS
10
130.365
20
-88.1243
11
130.327
21
-88.0862
0
LINE
8
BLACK
6
CONTINUOUS
10
130.327
20
-88.0862
11
130.32
21
-88.0718
0
LINE
8
BLACK
6
CONTINUOUS
10
130.32
20
-88.0718
11
130.308
21
-88.0602
0
LINE
8
BLACK
6
CONTINUOUS
10
130.308
20
-88.0602
11
130.27
21
-87.984
0
LINE
8
BLACK
6
CONTINUOUS
10
130.27
20
-87.984
11
130.267
21
-87.9612
0
LINE
8
BLACK
6
CONTINUOUS
10
130.267
20
-87.9612
11
130.26
21
-87.9393
0
LINE
8
BLACK
6
CONTINUOUS
10
130.26
20
-87.9393
11
130.26
21
-87.7107
0
LINE
8
BLACK
6
CONTINUOUS
10
130.26
20
-87.7107
11
130.267
21
-87.6888
0
LINE
8
BLACK
6
CONTINUOUS
10
130.267
20
-87.6888
11
130.27
21
-87.666
0
LINE
8
BLACK
6
CONTINUOUS
10
130.27
20
-87.666
11
130.308
21
-87.5898
0
LINE
8
BLACK
6
CONTINUOUS
10
130.308
20
-87.5898
11
130.32
21
-87.5783
0
LINE
8
BLACK
6
CONTINUOUS
10
130.32
20
-87.5783
11
130.327
21
-87.5638
0
LINE
8
BLACK
6
CONTINUOUS
10
130.327
20
-87.5638
11
130.365
21
-87.5258
0
LINE
8
BLACK
6
CONTINUOUS
10
130.365
20
-87.5258
11
130.42
21
-87.4977
0
LINE
8
BLACK
6
CONTINUOUS
10
130.42
20
-87.4977
11
130.481
21
-87.5074
0
LINE
8
BLACK
6
CONTINUOUS
10
123.846
20
-86.7521
11
123.847
21
-86.7521
0
LINE
8
BLACK
6
CONTINUOUS
10
123.847
20
-86.7521
11
123.99
21
-86.7997
0
LINE
8
BLACK
6
CONTINUOUS
10
123.99
20
-86.7997
11
124.013
21
-86.8121
0
LINE
8
BLACK
6
CONTINUOUS
10
124.013
20
-86.8121
11
124.015
21
-86.8159
0
LINE
8
BLACK
6
CONTINUOUS
10
124.015
20
-86.8159
11
124.019
21
-86.8178
0
LINE
8
BLACK
6
CONTINUOUS
10
124.019
20
-86.8178
11
124.067
21
-86.8654
0
LINE
8
BLACK
6
CONTINUOUS
10
124.067
20
-86.8654
11
124.082
21
-86.8868
0
LINE
8
BLACK
6
CONTINUOUS
10
124.082
20
-86.8868
11
124.086
21
-86.9379
0
LINE
8
BLACK
6
CONTINUOUS
10
124.086
20
-86.9379
11
124.057
21
-86.9799
0
LINE
8
BLACK
6
CONTINUOUS
10
124.057
20
-86.9799
11
124.007
21
-86.9932
0
LINE
8
BLACK
6
CONTINUOUS
10
124.007
20
-86.9932
11
123.961
21
-86.9715
0
LINE
8
BLACK
6
CONTINUOUS
10
123.961
20
-86.9715
11
123.926
21
-86.9364
0
LINE
8
BLACK
6
CONTINUOUS
10
123.926
20
-86.9364
11
123.811
21
-86.8982
0
LINE
8
BLACK
6
CONTINUOUS
10
123.811
20
-86.8982
11
123.74
21
-86.8982
0
LINE
8
BLACK
6
CONTINUOUS
10
123.74
20
-86.8982
11
123.626
21
-86.9364
0
LINE
8
BLACK
6
CONTINUOUS
10
123.626
20
-86.9364
11
123.552
21
-87.0105
0
LINE
8
BLACK
6
CONTINUOUS
10
123.552
20
-87.0105
11
123.513
21
-87.0875
0
LINE
8
BLACK
6
CONTINUOUS
10
123.513
20
-87.0875
11
123.47
21
-87.261
0
LINE
8
BLACK
6
CONTINUOUS
10
123.47
20
-87.261
11
123.47
21
-87.3854
0
LINE
8
BLACK
6
CONTINUOUS
10
123.47
20
-87.3854
11
123.513
21
-87.5589
0
LINE
8
BLACK
6
CONTINUOUS
10
123.513
20
-87.5589
11
123.552
21
-87.6359
0
LINE
8
BLACK
6
CONTINUOUS
10
123.552
20
-87.6359
11
123.626
21
-87.71
0
LINE
8
BLACK
6
CONTINUOUS
10
123.626
20
-87.71
11
123.74
21
-87.7482
0
LINE
8
BLACK
6
CONTINUOUS
10
123.74
20
-87.7482
11
123.811
21
-87.7482
0
LINE
8
BLACK
6
CONTINUOUS
10
123.811
20
-87.7482
11
123.926
21
-87.71
0
LINE
8
BLACK
6
CONTINUOUS
10
123.926
20
-87.71
11
123.961
21
-87.6749
0
LINE
8
BLACK
6
CONTINUOUS
10
123.961
20
-87.6749
11
123.982
21
-87.66
0
LINE
8
BLACK
6
CONTINUOUS
10
123.982
20
-87.66
11
124.033
21
-87.6555
0
LINE
8
BLACK
6
CONTINUOUS
10
124.033
20
-87.6555
11
124.075
21
-87.685
0
LINE
8
BLACK
6
CONTINUOUS
10
124.075
20
-87.685
11
124.089
21
-87.7345
0
LINE
8
BLACK
6
CONTINUOUS
10
124.089
20
-87.7345
11
124.067
21
-87.781
0
LINE
8
BLACK
6
CONTINUOUS
10
124.067
20
-87.781
11
124.019
21
-87.8286
0
LINE
8
BLACK
6
CONTINUOUS
10
124.019
20
-87.8286
11
123.998
21
-87.8436
0
LINE
8
BLACK
6
CONTINUOUS
10
123.998
20
-87.8436
11
123.994
21
-87.844
0
LINE
8
BLACK
6
CONTINUOUS
10
123.994
20
-87.844
11
123.99
21
-87.8468
0
LINE
8
BLACK
6
CONTINUOUS
10
123.99
20
-87.8468
11
123.847
21
-87.8944
0
LINE
8
BLACK
6
CONTINUOUS
10
123.847
20
-87.8944
11
123.825
21
-87.8977
0
LINE
8
BLACK
6
CONTINUOUS
10
123.825
20
-87.8977
11
123.823
21
-87.8982
0
LINE
8
BLACK
6
CONTINUOUS
10
123.823
20
-87.8982
11
123.728
21
-87.8982
0
LINE
8
BLACK
6
CONTINUOUS
10
123.728
20
-87.8982
11
123.706
21
-87.8943
0
LINE
8
BLACK
6
CONTINUOUS
10
123.706
20
-87.8943
11
123.705
21
-87.8944
0
LINE
8
BLACK
6
CONTINUOUS
10
123.705
20
-87.8944
11
123.562
21
-87.8468
0
LINE
8
BLACK
6
CONTINUOUS
10
123.562
20
-87.8468
11
123.539
21
-87.8343
0
LINE
8
BLACK
6
CONTINUOUS
10
123.539
20
-87.8343
11
123.536
21
-87.8305
0
LINE
8
BLACK
6
CONTINUOUS
10
123.536
20
-87.8305
11
123.532
21
-87.8286
0
LINE
8
BLACK
6
CONTINUOUS
10
123.532
20
-87.8286
11
123.437
21
-87.7334
0
LINE
8
BLACK
6
CONTINUOUS
10
123.437
20
-87.7334
11
123.424
21
-87.715
0
LINE
8
BLACK
6
CONTINUOUS
10
123.424
20
-87.715
11
123.423
21
-87.7139
0
LINE
8
BLACK
6
CONTINUOUS
10
123.423
20
-87.7139
11
123.375
21
-87.6187
0
LINE
8
BLACK
6
CONTINUOUS
10
123.375
20
-87.6187
11
123.372
21
-87.6063
0
LINE
8
BLACK
6
CONTINUOUS
10
123.372
20
-87.6063
11
123.37
21
-87.6033
0
LINE
8
BLACK
6
CONTINUOUS
10
123.37
20
-87.6033
11
123.322
21
-87.4128
0
LINE
8
BLACK
6
CONTINUOUS
10
123.322
20
-87.4128
11
123.321
21
-87.3979
0
LINE
8
BLACK
6
CONTINUOUS
10
123.321
20
-87.3979
11
123.32
21
-87.3946
0
LINE
8
BLACK
6
CONTINUOUS
10
123.32
20
-87.3946
11
123.32
21
-87.2518
0
LINE
8
BLACK
6
CONTINUOUS
10
123.32
20
-87.2518
11
123.322
21
-87.237
0
LINE
8
BLACK
6
CONTINUOUS
10
123.322
20
-87.237
11
123.322
21
-87.2336
0
LINE
8
BLACK
6
CONTINUOUS
10
123.322
20
-87.2336
11
123.37
21
-87.0431
0
LINE
8
BLACK
6
CONTINUOUS
10
123.37
20
-87.0431
11
123.375
21
-87.0313
0
LINE
8
BLACK
6
CONTINUOUS
10
123.375
20
-87.0313
11
123.375
21
-87.0278
0
LINE
8
BLACK
6
CONTINUOUS
10
123.375
20
-87.0278
11
123.423
21
-86.9325
0
LINE
8
BLACK
6
CONTINUOUS
10
123.423
20
-86.9325
11
123.436
21
-86.9145
0
LINE
8
BLACK
6
CONTINUOUS
10
123.436
20
-86.9145
11
123.437
21
-86.913
0
LINE
8
BLACK
6
CONTINUOUS
10
123.437
20
-86.913
11
123.532
21
-86.8178
0
LINE
8
BLACK
6
CONTINUOUS
10
123.532
20
-86.8178
11
123.554
21
-86.8029
0
LINE
8
BLACK
6
CONTINUOUS
10
123.554
20
-86.8029
11
123.558
21
-86.8025
0
LINE
8
BLACK
6
CONTINUOUS
10
123.558
20
-86.8025
11
123.562
21
-86.7997
0
LINE
8
BLACK
6
CONTINUOUS
10
123.562
20
-86.7997
11
123.705
21
-86.7521
0
LINE
8
BLACK
6
CONTINUOUS
10
123.705
20
-86.7521
11
123.727
21
-86.7488
0
LINE
8
BLACK
6
CONTINUOUS
10
123.727
20
-86.7488
11
123.728
21
-86.7482
0
LINE
8
BLACK
6
CONTINUOUS
10
123.728
20
-86.7482
11
123.823
21
-86.7482
0
LINE
8
BLACK
6
CONTINUOUS
10
123.823
20
-86.7482
11
123.846
21
-86.7521
0
LINE
8
BLACK
6
CONTINUOUS
10
124.801
20
-86.7527
11
124.805
21
-86.7556
0
LINE
8
BLACK
6
CONTINUOUS
10
124.805
20
-86.7556
11
124.809
21
-86.7561
0
LINE
8
BLACK
6
CONTINUOUS
10
124.809
20
-86.7561
11
124.905
21
-86.8038
0
LINE
8
BLACK
6
CONTINUOUS
10
124.905
20
-86.8038
11
124.923
21
-86.8171
0
LINE
8
BLACK
6
CONTINUOUS
10
124.923
20
-86.8171
11
124.924
21
-86.8178
0
LINE
8
BLACK
6
CONTINUOUS
10
124.924
20
-86.8178
11
124.972
21
-86.8654
0
LINE
8
BLACK
6
CONTINUOUS
10
124.972
20
-86.8654
11
124.985
21
-86.8838
0
LINE
8
BLACK
6
CONTINUOUS
10
124.985
20
-86.8838
11
124.986
21
-86.8849
0
LINE
8
BLACK
6
CONTINUOUS
10
124.986
20
-86.8849
11
125.033
21
-86.9802
0
LINE
8
BLACK
6
CONTINUOUS
10
125.033
20
-86.9802
11
125.041
21
-87.0051
0
LINE
8
BLACK
6
CONTINUOUS
10
125.041
20
-87.0051
11
125.04
21
-87.0095
0
LINE
8
BLACK
6
CONTINUOUS
10
125.04
20
-87.0095
11
125.041
21
-87.0137
0
LINE
8
BLACK
6
CONTINUOUS
10
125.041
20
-87.0137
11
125.041
21
-87.1089
0
LINE
8
BLACK
6
CONTINUOUS
10
125.041
20
-87.1089
11
125.037
21
-87.131
0
LINE
8
BLACK
6
CONTINUOUS
10
125.037
20
-87.131
11
125.037
21
-87.1327
0
LINE
8
BLACK
6
CONTINUOUS
10
125.037
20
-87.1327
11
124.99
21
-87.2755
0
LINE
8
BLACK
6
CONTINUOUS
10
124.99
20
-87.2755
11
124.977
21
-87.2984
0
LINE
8
BLACK
6
CONTINUOUS
10
124.977
20
-87.2984
11
124.974
21
-87.3008
0
LINE
8
BLACK
6
CONTINUOUS
10
124.974
20
-87.3008
11
124.972
21
-87.3048
0
LINE
8
BLACK
6
CONTINUOUS
10
124.972
20
-87.3048
11
124.528
21
-87.7482
0
LINE
8
BLACK
6
CONTINUOUS
10
124.528
20
-87.7482
11
124.966
21
-87.7482
0
LINE
8
BLACK
6
CONTINUOUS
10
124.966
20
-87.7482
11
124.992
21
-87.7527
0
LINE
8
BLACK
6
CONTINUOUS
10
124.992
20
-87.7527
11
125.031
21
-87.7857
0
LINE
8
BLACK
6
CONTINUOUS
10
125.031
20
-87.7857
11
125.04
21
-87.8362
0
LINE
8
BLACK
6
CONTINUOUS
10
125.04
20
-87.8362
11
125.015
21
-87.8807
0
LINE
8
BLACK
6
CONTINUOUS
10
125.015
20
-87.8807
11
124.966
21
-87.8982
0
LINE
8
BLACK
6
CONTINUOUS
10
124.966
20
-87.8982
11
124.347
21
-87.8982
0
LINE
8
BLACK
6
CONTINUOUS
10
124.347
20
-87.8982
11
124.331
21
-87.8954
0
LINE
8
BLACK
6
CONTINUOUS
10
124.331
20
-87.8954
11
124.328
21
-87.8957
0
LINE
8
BLACK
6
CONTINUOUS
10
124.328
20
-87.8957
11
124.326
21
-87.8945
0
LINE
8
BLACK
6
CONTINUOUS
10
124.326
20
-87.8945
11
124.322
21
-87.8937
0
LINE
8
BLACK
6
CONTINUOUS
10
124.322
20
-87.8937
11
124.304
21
-87.8792
0
LINE
8
BLACK
6
CONTINUOUS
10
124.304
20
-87.8792
11
124.286
21
-87.8662
0
LINE
8
BLACK
6
CONTINUOUS
10
124.286
20
-87.8662
11
124.285
21
-87.8629
0
LINE
8
BLACK
6
CONTINUOUS
10
124.285
20
-87.8629
11
124.282
21
-87.8607
0
LINE
8
BLACK
6
CONTINUOUS
10
124.282
20
-87.8607
11
124.278
21
-87.8385
0
LINE
8
BLACK
6
CONTINUOUS
10
124.278
20
-87.8385
11
124.273
21
-87.8167
0
LINE
8
BLACK
6
CONTINUOUS
10
124.273
20
-87.8167
11
124.274
21
-87.8136
0
LINE
8
BLACK
6
CONTINUOUS
10
124.274
20
-87.8136
11
124.273
21
-87.8102
0
LINE
8
BLACK
6
CONTINUOUS
10
124.273
20
-87.8102
11
124.285
21
-87.7906
0
LINE
8
BLACK
6
CONTINUOUS
10
124.285
20
-87.7906
11
124.294
21
-87.7702
0
LINE
8
BLACK
6
CONTINUOUS
10
124.294
20
-87.7702
11
124.853
21
-87.2113
0
LINE
8
BLACK
6
CONTINUOUS
10
124.853
20
-87.2113
11
124.891
21
-87.0968
0
LINE
8
BLACK
6
CONTINUOUS
10
124.891
20
-87.0968
11
124.891
21
-87.0314
0
LINE
8
BLACK
6
CONTINUOUS
10
124.891
20
-87.0314
11
124.857
21
-86.9629
0
LINE
8
BLACK
6
CONTINUOUS
10
124.857
20
-86.9629
11
124.827
21
-86.9325
0
LINE
8
BLACK
6
CONTINUOUS
10
124.827
20
-86.9325
11
124.758
21
-86.8982
0
LINE
8
BLACK
6
CONTINUOUS
10
124.758
20
-86.8982
11
124.555
21
-86.8982
0
LINE
8
BLACK
6
CONTINUOUS
10
124.555
20
-86.8982
11
124.487
21
-86.9325
0
LINE
8
BLACK
6
CONTINUOUS
10
124.487
20
-86.9325
11
124.448
21
-86.9715
0
LINE
8
BLACK
6
CONTINUOUS
10
124.448
20
-86.9715
11
124.427
21
-86.9864
0
LINE
8
BLACK
6
CONTINUOUS
10
124.427
20
-86.9864
11
124.375
21
-86.9909
0
LINE
8
BLACK
6
CONTINUOUS
10
124.375
20
-86.9909
11
124.333
21
-86.9615
0
LINE
8
BLACK
6
CONTINUOUS
10
124.333
20
-86.9615
11
124.32
21
-86.9119
0
LINE
8
BLACK
6
CONTINUOUS
10
124.32
20
-86.9119
11
124.342
21
-86.8654
0
LINE
8
BLACK
6
CONTINUOUS
10
124.342
20
-86.8654
11
124.389
21
-86.8178
0
LINE
8
BLACK
6
CONTINUOUS
10
124.389
20
-86.8178
11
124.408
21
-86.8049
0
LINE
8
BLACK
6
CONTINUOUS
10
124.408
20
-86.8049
11
124.409
21
-86.8038
0
LINE
8
BLACK
6
CONTINUOUS
10
124.409
20
-86.8038
11
124.504
21
-86.7561
0
LINE
8
BLACK
6
CONTINUOUS
10
124.504
20
-86.7561
11
124.529
21
-86.7487
0
LINE
8
BLACK
6
CONTINUOUS
10
124.529
20
-86.7487
11
124.534
21
-86.7498
0
LINE
8
BLACK
6
CONTINUOUS
10
124.534
20
-86.7498
11
124.538
21
-86.7482
0
LINE
8
BLACK
6
CONTINUOUS
10
124.538
20
-86.7482
11
124.776
21
-86.7482
0
LINE
8
BLACK
6
CONTINUOUS
10
124.776
20
-86.7482
11
124.801
21
-86.7527
0
LINE
8
BLACK
6
CONTINUOUS
10
125.996
20
-87.4075
11
126.014
21
-87.4524
0
LINE
8
BLACK
6
CONTINUOUS
10
126.014
20
-87.4524
11
126.014
21
-87.7524
0
LINE
8
BLACK
6
CONTINUOUS
10
126.014
20
-87.7524
11
125.996
21
-87.7973
0
LINE
8
BLACK
6
CONTINUOUS
10
125.996
20
-87.7973
11
125.951
21
-87.8159
0
LINE
8
BLACK
6
CONTINUOUS
10
125.951
20
-87.8159
11
125.906
21
-87.7973
0
LINE
8
BLACK
6
CONTINUOUS
10
125.906
20
-87.7973
11
125.887
21
-87.7524
0
LINE
8
BLACK
6
CONTINUOUS
10
125.887
20
-87.7524
11
125.887
21
-87.4524
0
LINE
8
BLACK
6
CONTINUOUS
10
125.887
20
-87.4524
11
125.906
21
-87.4075
0
LINE
8
BLACK
6
CONTINUOUS
10
125.906
20
-87.4075
11
125.951
21
-87.3889
0
LINE
8
BLACK
6
CONTINUOUS
10
125.951
20
-87.3889
11
125.996
21
-87.4075
0
LINE
8
BLACK
6
CONTINUOUS
10
128.196
20
-87.4075
11
128.214
21
-87.4524
0
LINE
8
BLACK
6
CONTINUOUS
10
128.214
20
-87.4524
11
128.214
21
-87.7524
0
LINE
8
BLACK
6
CONTINUOUS
10
128.214
20
-87.7524
11
128.196
21
-87.7973
0
LINE
8
BLACK
6
CONTINUOUS
10
128.196
20
-87.7973
11
128.151
21
-87.8159
0
LINE
8
BLACK
6
CONTINUOUS
10
128.151
20
-87.8159
11
128.106
21
-87.7973
0
LINE
8
BLACK
6
CONTINUOUS
10
128.106
20
-87.7973
11
128.087
21
-87.7524
0
LINE
8
BLACK
6
CONTINUOUS
10
128.087
20
-87.7524
11
128.087
21
-87.4524
0
LINE
8
BLACK
6
CONTINUOUS
10
128.087
20
-87.4524
11
128.106
21
-87.4075
0
LINE
8
BLACK
6
CONTINUOUS
10
128.106
20
-87.4075
11
128.151
21
-87.3889
0
LINE
8
BLACK
6
CONTINUOUS
10
128.151
20
-87.3889
11
128.196
21
-87.4075
0
LINE
8
BLACK
6
CONTINUOUS
10
132.666
20
-86.4394
11
132.726
21
-86.4775
0
LINE
8
BLACK
6
CONTINUOUS
10
132.726
20
-86.4775
11
132.755
21
-86.5416
0
LINE
8
BLACK
6
CONTINUOUS
10
132.755
20
-86.5416
11
132.745
21
-86.6113
0
LINE
8
BLACK
6
CONTINUOUS
10
132.745
20
-86.6113
11
132.699
21
-86.6645
0
LINE
8
BLACK
6
CONTINUOUS
10
132.699
20
-86.6645
11
132.631
21
-86.6844
0
LINE
8
BLACK
6
CONTINUOUS
10
132.631
20
-86.6844
11
132.28
21
-86.6844
0
LINE
8
BLACK
6
CONTINUOUS
10
132.28
20
-86.6844
11
132.28
21
-87.0058
0
LINE
8
BLACK
6
CONTINUOUS
10
132.28
20
-87.0058
11
132.631
21
-87.0058
0
LINE
8
BLACK
6
CONTINUOUS
10
132.631
20
-87.0058
11
132.666
21
-87.0109
0
LINE
8
BLACK
6
CONTINUOUS
10
132.666
20
-87.0109
11
132.726
21
-87.0489
0
LINE
8
BLACK
6
CONTINUOUS
10
132.726
20
-87.0489
11
132.755
21
-87.113
0
LINE
8
BLACK
6
CONTINUOUS
10
132.755
20
-87.113
11
132.745
21
-87.1827
0
LINE
8
BLACK
6
CONTINUOUS
10
132.745
20
-87.1827
11
132.699
21
-87.236
0
LINE
8
BLACK
6
CONTINUOUS
10
132.699
20
-87.236
11
132.631
21
-87.2558
0
LINE
8
BLACK
6
CONTINUOUS
10
132.631
20
-87.2558
11
131.631
21
-87.2558
0
LINE
8
BLACK
6
CONTINUOUS
10
131.631
20
-87.2558
11
131.596
21
-87.2507
0
LINE
8
BLACK
6
CONTINUOUS
10
131.596
20
-87.2507
11
131.537
21
-87.2127
0
LINE
8
BLACK
6
CONTINUOUS
10
131.537
20
-87.2127
11
131.507
21
-87.1486
0
LINE
8
BLACK
6
CONTINUOUS
10
131.507
20
-87.1486
11
131.517
21
-87.0789
0
LINE
8
BLACK
6
CONTINUOUS
10
131.517
20
-87.0789
11
131.564
21
-87.0256
0
LINE
8
BLACK
6
CONTINUOUS
10
131.564
20
-87.0256
11
131.631
21
-87.0058
0
LINE
8
BLACK
6
CONTINUOUS
10
131.631
20
-87.0058
11
132.03
21
-87.0058
0
LINE
8
BLACK
6
CONTINUOUS
10
132.03
20
-87.0058
11
132.03
21
-86.6844
0
LINE
8
BLACK
6
CONTINUOUS
10
132.03
20
-86.6844
11
131.631
21
-86.6844
0
LINE
8
BLACK
6
CONTINUOUS
10
131.631
20
-86.6844
11
131.596
21
-86.6793
0
LINE
8
BLACK
6
CONTINUOUS
10
131.596
20
-86.6793
11
131.537
21
-86.6412
0
LINE
8
BLACK
6
CONTINUOUS
10
131.537
20
-86.6412
11
131.507
21
-86.5772
0
LINE
8
BLACK
6
CONTINUOUS
10
131.507
20
-86.5772
11
131.517
21
-86.5074
0
LINE
8
BLACK
6
CONTINUOUS
10
131.517
20
-86.5074
11
131.564
21
-86.4542
0
LINE
8
BLACK
6
CONTINUOUS
10
131.564
20
-86.4542
11
131.631
21
-86.4344
0
LINE
8
BLACK
6
CONTINUOUS
10
131.631
20
-86.4344
11
132.631
21
-86.4344
0
LINE
8
BLACK
6
CONTINUOUS
10
132.631
20
-86.4344
11
132.666
21
-86.4394
0
LINE
8
BLACK
6
CONTINUOUS
10
120.261
20
-84.8352
11
120.278
21
-84.8776
0
LINE
8
BLACK
6
CONTINUOUS
10
120.278
20
-84.8776
11
120.261
21
-84.92
0
LINE
8
BLACK
6
CONTINUOUS
10
120.261
20
-84.92
11
120.218
21
-84.9376
0
LINE
8
BLACK
6
CONTINUOUS
10
120.218
20
-84.9376
11
118.948
21
-84.9376
0
LINE
8
BLACK
6
CONTINUOUS
10
118.948
20
-84.9376
11
118.948
21
-86.2076
0
LINE
8
BLACK
6
CONTINUOUS
10
118.948
20
-86.2076
11
118.931
21
-86.25
0
LINE
8
BLACK
6
CONTINUOUS
10
118.931
20
-86.25
11
118.888
21
-86.2676
0
LINE
8
BLACK
6
CONTINUOUS
10
118.888
20
-86.2676
11
118.846
21
-86.25
0
LINE
8
BLACK
6
CONTINUOUS
10
118.846
20
-86.25
11
118.828
21
-86.2076
0
LINE
8
BLACK
6
CONTINUOUS
10
118.828
20
-86.2076
11
118.828
21
-84.8776
0
LINE
8
BLACK
6
CONTINUOUS
10
118.828
20
-84.8776
11
118.846
21
-84.8352
0
LINE
8
BLACK
6
CONTINUOUS
10
118.846
20
-84.8352
11
118.888
21
-84.8176
0
LINE
8
BLACK
6
CONTINUOUS
10
118.888
20
-84.8176
11
120.218
21
-84.8176
0
LINE
8
BLACK
6
CONTINUOUS
10
120.218
20
-84.8176
11
120.261
21
-84.8352
0
LINE
8
BLACK
6
CONTINUOUS
10
122.468
20
-85.669
11
122.486
21
-85.7114
0
LINE
8
BLACK
6
CONTINUOUS
10
122.486
20
-85.7114
11
122.486
21
-85.9926
0
LINE
8
BLACK
6
CONTINUOUS
10
122.486
20
-85.9926
11
122.468
21
-86.035
0
LINE
8
BLACK
6
CONTINUOUS
10
122.468
20
-86.035
11
122.426
21
-86.0526
0
LINE
8
BLACK
6
CONTINUOUS
10
122.426
20
-86.0526
11
122.384
21
-86.035
0
LINE
8
BLACK
6
CONTINUOUS
10
122.384
20
-86.035
11
122.366
21
-85.9926
0
LINE
8
BLACK
6
CONTINUOUS
10
122.366
20
-85.9926
11
122.366
21
-85.7114
0
LINE
8
BLACK
6
CONTINUOUS
10
122.366
20
-85.7114
11
122.384
21
-85.669
0
LINE
8
BLACK
6
CONTINUOUS
10
122.384
20
-85.669
11
122.426
21
-85.6514
0
LINE
8
BLACK
6
CONTINUOUS
10
122.426
20
-85.6514
11
122.468
21
-85.669
0
LINE
8
BLACK
6
CONTINUOUS
10
123.488
20
-85.669
11
123.506
21
-85.7114
0
LINE
8
BLACK
6
CONTINUOUS
10
123.506
20
-85.7114
11
123.506
21
-85.9926
0
LINE
8
BLACK
6
CONTINUOUS
10
123.506
20
-85.9926
11
123.488
21
-86.035
0
LINE
8
BLACK
6
CONTINUOUS
10
123.488
20
-86.035
11
123.446
21
-86.0526
0
LINE
8
BLACK
6
CONTINUOUS
10
123.446
20
-86.0526
11
123.404
21
-86.035
0
LINE
8
BLACK
6
CONTINUOUS
10
123.404
20
-86.035
11
123.386
21
-85.9926
0
LINE
8
BLACK
6
CONTINUOUS
10
123.386
20
-85.9926
11
123.386
21
-85.7114
0
LINE
8
BLACK
6
CONTINUOUS
10
123.386
20
-85.7114
11
123.404
21
-85.669
0
LINE
8
BLACK
6
CONTINUOUS
10
123.404
20
-85.669
11
123.446
21
-85.6514
0
LINE
8
BLACK
6
CONTINUOUS
10
123.446
20
-85.6514
11
123.488
21
-85.669
0
LINE
8
BLACK
6
CONTINUOUS
10
123.967
20
-85.669
11
123.985
21
-85.7114
0
LINE
8
BLACK
6
CONTINUOUS
10
123.985
20
-85.7114
11
123.985
21
-85.9926
0
LINE
8
BLACK
6
CONTINUOUS
10
123.985
20
-85.9926
11
123.967
21
-86.035
0
LINE
8
BLACK
6
CONTINUOUS
10
123.967
20
-86.035
11
123.925
21
-86.0526
0
LINE
8
BLACK
6
CONTINUOUS
10
123.925
20
-86.0526
11
123.882
21
-86.035
0
LINE
8
BLACK
6
CONTINUOUS
10
123.882
20
-86.035
11
123.865
21
-85.9926
0
LINE
8
BLACK
6
CONTINUOUS
10
123.865
20
-85.9926
11
123.865
21
-85.7114
0
LINE
8
BLACK
6
CONTINUOUS
10
123.865
20
-85.7114
11
123.882
21
-85.669
0
LINE
8
BLACK
6
CONTINUOUS
10
123.882
20
-85.669
11
123.925
21
-85.6514
0
LINE
8
BLACK
6
CONTINUOUS
10
123.925
20
-85.6514
11
123.967
21
-85.669
0
LINE
8
BLACK
6
CONTINUOUS
10
124.987
20
-85.669
11
125.005
21
-85.7114
0
LINE
8
BLACK
6
CONTINUOUS
10
125.005
20
-85.7114
11
125.005
21
-85.9926
0
LINE
8
BLACK
6
CONTINUOUS
10
125.005
20
-85.9926
11
124.987
21
-86.035
0
LINE
8
BLACK
6
CONTINUOUS
10
124.987
20
-86.035
11
124.945
21
-86.0526
0
LINE
8
BLACK
6
CONTINUOUS
10
124.945
20
-86.0526
11
124.902
21
-86.035
0
LINE
8
BLACK
6
CONTINUOUS
10
124.902
20
-86.035
11
124.885
21
-85.9926
0
LINE
8
BLACK
6
CONTINUOUS
10
124.885
20
-85.9926
11
124.885
21
-85.7114
0
LINE
8
BLACK
6
CONTINUOUS
10
124.885
20
-85.7114
11
124.902
21
-85.669
0
LINE
8
BLACK
6
CONTINUOUS
10
124.902
20
-85.669
11
124.945
21
-85.6514
0
LINE
8
BLACK
6
CONTINUOUS
10
124.945
20
-85.6514
11
124.987
21
-85.669
0
LINE
8
BLACK
6
CONTINUOUS
10
122.148
20
-85.1467
11
122.167
21
-85.1658
0
LINE
8
BLACK
6
CONTINUOUS
10
122.167
20
-85.1658
11
122.171
21
-85.1765
0
LINE
8
BLACK
6
CONTINUOUS
10
122.171
20
-85.1765
11
122.179
21
-85.1853
0
LINE
8
BLACK
6
CONTINUOUS
10
122.179
20
-85.1853
11
122.198
21
-85.2424
0
LINE
8
BLACK
6
CONTINUOUS
10
122.198
20
-85.2424
11
122.197
21
-85.2507
0
LINE
8
BLACK
6
CONTINUOUS
10
122.197
20
-85.2507
11
122.201
21
-85.2583
0
LINE
8
BLACK
6
CONTINUOUS
10
122.201
20
-85.2583
11
122.201
21
-85.2964
0
LINE
8
BLACK
6
CONTINUOUS
10
122.201
20
-85.2964
11
122.197
21
-85.304
0
LINE
8
BLACK
6
CONTINUOUS
10
122.197
20
-85.304
11
122.198
21
-85.3122
0
LINE
8
BLACK
6
CONTINUOUS
10
122.198
20
-85.3122
11
122.179
21
-85.3693
0
LINE
8
BLACK
6
CONTINUOUS
10
122.179
20
-85.3693
11
122.171
21
-85.3781
0
LINE
8
BLACK
6
CONTINUOUS
10
122.171
20
-85.3781
11
122.167
21
-85.3889
0
LINE
8
BLACK
6
CONTINUOUS
10
122.167
20
-85.3889
11
122.129
21
-85.4269
0
LINE
8
BLACK
6
CONTINUOUS
10
122.129
20
-85.4269
11
122.121
21
-85.4301
0
LINE
8
BLACK
6
CONTINUOUS
10
122.121
20
-85.4301
11
122.116
21
-85.4363
0
LINE
8
BLACK
6
CONTINUOUS
10
122.116
20
-85.4363
11
122.078
21
-85.4554
0
LINE
8
BLACK
6
CONTINUOUS
10
122.078
20
-85.4554
11
122.072
21
-85.4558
0
LINE
8
BLACK
6
CONTINUOUS
10
122.072
20
-85.4558
11
122.068
21
-85.4591
0
LINE
8
BLACK
6
CONTINUOUS
10
122.068
20
-85.4591
11
121.991
21
-85.4782
0
LINE
8
BLACK
6
CONTINUOUS
10
121.991
20
-85.4782
11
121.985
21
-85.4773
0
LINE
8
BLACK
6
CONTINUOUS
10
121.985
20
-85.4773
11
121.979
21
-85.4797
0
LINE
8
BLACK
6
CONTINUOUS
10
121.979
20
-85.4797
11
121.922
21
-85.4797
0
LINE
8
BLACK
6
CONTINUOUS
10
121.922
20
-85.4797
11
121.916
21
-85.4773
0
LINE
8
BLACK
6
CONTINUOUS
10
121.916
20
-85.4773
11
121.91
21
-85.4782
0
LINE
8
BLACK
6
CONTINUOUS
10
121.91
20
-85.4782
11
121.834
21
-85.4591
0
LINE
8
BLACK
6
CONTINUOUS
10
121.834
20
-85.4591
11
121.829
21
-85.4558
0
LINE
8
BLACK
6
CONTINUOUS
10
121.829
20
-85.4558
11
121.824
21
-85.4554
0
LINE
8
BLACK
6
CONTINUOUS
10
121.824
20
-85.4554
11
121.785
21
-85.4363
0
LINE
8
BLACK
6
CONTINUOUS
10
121.785
20
-85.4363
11
121.78
21
-85.4301
0
LINE
8
BLACK
6
CONTINUOUS
10
121.78
20
-85.4301
11
121.772
21
-85.4269
0
LINE
8
BLACK
6
CONTINUOUS
10
121.772
20
-85.4269
11
121.734
21
-85.3888
0
LINE
8
BLACK
6
CONTINUOUS
10
121.734
20
-85.3888
11
121.73
21
-85.3781
0
LINE
8
BLACK
6
CONTINUOUS
10
121.73
20
-85.3781
11
121.722
21
-85.3693
0
LINE
8
BLACK
6
CONTINUOUS
10
121.722
20
-85.3693
11
121.703
21
-85.3122
0
LINE
8
BLACK
6
CONTINUOUS
10
121.703
20
-85.3122
11
121.704
21
-85.304
0
LINE
8
BLACK
6
CONTINUOUS
10
121.704
20
-85.304
11
121.701
21
-85.2964
0
LINE
8
BLACK
6
CONTINUOUS
10
121.701
20
-85.2964
11
121.701
21
-85.2583
0
LINE
8
BLACK
6
CONTINUOUS
10
121.701
20
-85.2583
11
121.704
21
-85.2507
0
LINE
8
BLACK
6
CONTINUOUS
10
121.704
20
-85.2507
11
121.703
21
-85.2424
0
LINE
8
BLACK
6
CONTINUOUS
10
121.703
20
-85.2424
11
121.722
21
-85.1853
0
LINE
8
BLACK
6
CONTINUOUS
10
121.722
20
-85.1853
11
121.73
21
-85.1765
0
LINE
8
BLACK
6
CONTINUOUS
10
121.73
20
-85.1765
11
121.734
21
-85.1658
0
LINE
8
BLACK
6
CONTINUOUS
10
121.734
20
-85.1658
11
121.753
21
-85.1467
0
LINE
8
BLACK
6
CONTINUOUS
10
121.753
20
-85.1467
11
121.789
21
-85.1321
0
LINE
8
BLACK
6
CONTINUOUS
10
121.789
20
-85.1321
11
121.824
21
-85.1467
0
LINE
8
BLACK
6
CONTINUOUS
10
121.824
20
-85.1467
11
121.839
21
-85.1821
0
LINE
8
BLACK
6
CONTINUOUS
10
121.839
20
-85.1821
11
121.824
21
-85.2174
0
LINE
8
BLACK
6
CONTINUOUS
10
121.824
20
-85.2174
11
121.813
21
-85.2281
0
LINE
8
BLACK
6
CONTINUOUS
10
121.813
20
-85.2281
11
121.801
21
-85.2664
0
LINE
8
BLACK
6
CONTINUOUS
10
121.801
20
-85.2664
11
121.801
21
-85.2882
0
LINE
8
BLACK
6
CONTINUOUS
10
121.801
20
-85.2882
11
121.813
21
-85.3265
0
LINE
8
BLACK
6
CONTINUOUS
10
121.813
20
-85.3265
11
121.837
21
-85.3505
0
LINE
8
BLACK
6
CONTINUOUS
10
121.837
20
-85.3505
11
121.863
21
-85.3635
0
LINE
8
BLACK
6
CONTINUOUS
10
121.863
20
-85.3635
11
121.928
21
-85.3797
0
LINE
8
BLACK
6
CONTINUOUS
10
121.928
20
-85.3797
11
121.973
21
-85.3797
0
LINE
8
BLACK
6
CONTINUOUS
10
121.973
20
-85.3797
11
122.038
21
-85.3635
0
LINE
8
BLACK
6
CONTINUOUS
10
122.038
20
-85.3635
11
122.064
21
-85.3505
0
LINE
8
BLACK
6
CONTINUOUS
10
122.064
20
-85.3505
11
122.088
21
-85.3265
0
LINE
8
BLACK
6
CONTINUOUS
10
122.088
20
-85.3265
11
122.101
21
-85.2882
0
LINE
8
BLACK
6
CONTINUOUS
10
122.101
20
-85.2882
11
122.101
21
-85.2664
0
LINE
8
BLACK
6
CONTINUOUS
10
122.101
20
-85.2664
11
122.088
21
-85.2281
0
LINE
8
BLACK
6
CONTINUOUS
10
122.088
20
-85.2281
11
122.077
21
-85.2174
0
LINE
8
BLACK
6
CONTINUOUS
10
122.077
20
-85.2174
11
122.063
21
-85.1821
0
LINE
8
BLACK
6
CONTINUOUS
10
122.063
20
-85.1821
11
122.077
21
-85.1467
0
LINE
8
BLACK
6
CONTINUOUS
10
122.077
20
-85.1467
11
122.113
21
-85.1321
0
LINE
8
BLACK
6
CONTINUOUS
10
122.113
20
-85.1321
11
122.148
21
-85.1467
0
LINE
8
BLACK
6
CONTINUOUS
10
125.653
20
-85.1213
11
125.672
21
-85.1404
0
LINE
8
BLACK
6
CONTINUOUS
10
125.672
20
-85.1404
11
125.677
21
-85.1511
0
LINE
8
BLACK
6
CONTINUOUS
10
125.677
20
-85.1511
11
125.684
21
-85.1599
0
LINE
8
BLACK
6
CONTINUOUS
10
125.684
20
-85.1599
11
125.703
21
-85.217
0
LINE
8
BLACK
6
CONTINUOUS
10
125.703
20
-85.217
11
125.703
21
-85.2253
0
LINE
8
BLACK
6
CONTINUOUS
10
125.703
20
-85.2253
11
125.706
21
-85.2329
0
LINE
8
BLACK
6
CONTINUOUS
10
125.706
20
-85.2329
11
125.706
21
-85.271
0
LINE
8
BLACK
6
CONTINUOUS
10
125.706
20
-85.271
11
125.703
21
-85.2786
0
LINE
8
BLACK
6
CONTINUOUS
10
125.703
20
-85.2786
11
125.703
21
-85.2868
0
LINE
8
BLACK
6
CONTINUOUS
10
125.703
20
-85.2868
11
125.684
21
-85.3439
0
LINE
8
BLACK
6
CONTINUOUS
10
125.684
20
-85.3439
11
125.677
21
-85.3527
0
LINE
8
BLACK
6
CONTINUOUS
10
125.677
20
-85.3527
11
125.672
21
-85.3635
0
LINE
8
BLACK
6
CONTINUOUS
10
125.672
20
-85.3635
11
125.634
21
-85.4015
0
LINE
8
BLACK
6
CONTINUOUS
10
125.634
20
-85.4015
11
125.626
21
-85.4047
0
LINE
8
BLACK
6
CONTINUOUS
10
125.626
20
-85.4047
11
125.621
21
-85.4109
0
LINE
8
BLACK
6
CONTINUOUS
10
125.621
20
-85.4109
11
125.583
21
-85.43
0
LINE
8
BLACK
6
CONTINUOUS
10
125.583
20
-85.43
11
125.577
21
-85.4304
0
LINE
8
BLACK
6
CONTINUOUS
10
125.577
20
-85.4304
11
125.573
21
-85.4337
0
LINE
8
BLACK
6
CONTINUOUS
10
125.573
20
-85.4337
11
125.497
21
-85.4528
0
LINE
8
BLACK
6
CONTINUOUS
10
125.497
20
-85.4528
11
125.49
21
-85.4519
0
LINE
8
BLACK
6
CONTINUOUS
10
125.49
20
-85.4519
11
125.484
21
-85.4543
0
LINE
8
BLACK
6
CONTINUOUS
10
125.484
20
-85.4543
11
125.427
21
-85.4543
0
LINE
8
BLACK
6
CONTINUOUS
10
125.427
20
-85.4543
11
125.421
21
-85.4519
0
LINE
8
BLACK
6
CONTINUOUS
10
125.421
20
-85.4519
11
125.415
21
-85.4528
0
LINE
8
BLACK
6
CONTINUOUS
10
125.415
20
-85.4528
11
125.339
21
-85.4337
0
LINE
8
BLACK
6
CONTINUOUS
10
125.339
20
-85.4337
11
125.334
21
-85.4304
0
LINE
8
BLACK
6
CONTINUOUS
10
125.334
20
-85.4304
11
125.329
21
-85.43
0
LINE
8
BLACK
6
CONTINUOUS
10
125.329
20
-85.43
11
125.291
21
-85.4109
0
LINE
8
BLACK
6
CONTINUOUS
10
125.291
20
-85.4109
11
125.285
21
-85.4047
0
LINE
8
BLACK
6
CONTINUOUS
10
125.285
20
-85.4047
11
125.278
21
-85.4015
0
LINE
8
BLACK
6
CONTINUOUS
10
125.278
20
-85.4015
11
125.24
21
-85.3635
0
LINE
8
BLACK
6
CONTINUOUS
10
125.24
20
-85.3635
11
125.235
21
-85.3527
0
LINE
8
BLACK
6
CONTINUOUS
10
125.235
20
-85.3527
11
125.227
21
-85.3439
0
LINE
8
BLACK
6
CONTINUOUS
10
125.227
20
-85.3439
11
125.208
21
-85.2868
0
LINE
8
BLACK
6
CONTINUOUS
10
125.208
20
-85.2868
11
125.209
21
-85.2786
0
LINE
8
BLACK
6
CONTINUOUS
10
125.209
20
-85.2786
11
125.206
21
-85.271
0
LINE
8
BLACK
6
CONTINUOUS
10
125.206
20
-85.271
11
125.206
21
-85.2329
0
LINE
8
BLACK
6
CONTINUOUS
10
125.206
20
-85.2329
11
125.209
21
-85.2253
0
LINE
8
BLACK
6
CONTINUOUS
10
125.209
20
-85.2253
11
125.208
21
-85.217
0
LINE
8
BLACK
6
CONTINUOUS
10
125.208
20
-85.217
11
125.227
21
-85.1599
0
LINE
8
BLACK
6
CONTINUOUS
10
125.227
20
-85.1599
11
125.235
21
-85.1511
0
LINE
8
BLACK
6
CONTINUOUS
10
125.235
20
-85.1511
11
125.24
21
-85.1404
0
LINE
8
BLACK
6
CONTINUOUS
10
125.24
20
-85.1404
11
125.259
21
-85.1213
0
LINE
8
BLACK
6
CONTINUOUS
10
125.259
20
-85.1213
11
125.294
21
-85.1067
0
LINE
8
BLACK
6
CONTINUOUS
10
125.294
20
-85.1067
11
125.329
21
-85.1213
0
LINE
8
BLACK
6
CONTINUOUS
10
125.329
20
-85.1213
11
125.344
21
-85.1567
0
LINE
8
BLACK
6
CONTINUOUS
10
125.344
20
-85.1567
11
125.329
21
-85.192
0
LINE
8
BLACK
6
CONTINUOUS
10
125.329
20
-85.192
11
125.319
21
-85.2027
0
LINE
8
BLACK
6
CONTINUOUS
10
125.319
20
-85.2027
11
125.306
21
-85.241
0
LINE
8
BLACK
6
CONTINUOUS
10
125.306
20
-85.241
11
125.306
21
-85.2628
0
LINE
8
BLACK
6
CONTINUOUS
10
125.306
20
-85.2628
11
125.319
21
-85.3011
0
LINE
8
BLACK
6
CONTINUOUS
10
125.319
20
-85.3011
11
125.343
21
-85.3251
0
LINE
8
BLACK
6
CONTINUOUS
10
125.343
20
-85.3251
11
125.369
21
-85.3381
0
LINE
8
BLACK
6
CONTINUOUS
10
125.369
20
-85.3381
11
125.433
21
-85.3543
0
LINE
8
BLACK
6
CONTINUOUS
10
125.433
20
-85.3543
11
125.478
21
-85.3543
0
LINE
8
BLACK
6
CONTINUOUS
10
125.478
20
-85.3543
11
125.543
21
-85.3381
0
LINE
8
BLACK
6
CONTINUOUS
10
125.543
20
-85.3381
11
125.569
21
-85.3251
0
LINE
8
BLACK
6
CONTINUOUS
10
125.569
20
-85.3251
11
125.593
21
-85.3011
0
LINE
8
BLACK
6
CONTINUOUS
10
125.593
20
-85.3011
11
125.606
21
-85.2628
0
LINE
8
BLACK
6
CONTINUOUS
10
125.606
20
-85.2628
11
125.606
21
-85.241
0
LINE
8
BLACK
6
CONTINUOUS
10
125.606
20
-85.241
11
125.593
21
-85.2027
0
LINE
8
BLACK
6
CONTINUOUS
10
125.593
20
-85.2027
11
125.582
21
-85.192
0
LINE
8
BLACK
6
CONTINUOUS
10
125.582
20
-85.192
11
125.568
21
-85.1567
0
LINE
8
BLACK
6
CONTINUOUS
10
125.568
20
-85.1567
11
125.582
21
-85.1213
0
LINE
8
BLACK
6
CONTINUOUS
10
125.582
20
-85.1213
11
125.618
21
-85.1067
0
LINE
8
BLACK
6
CONTINUOUS
10
125.618
20
-85.1067
11
125.653
21
-85.1213
0
LINE
8
BLACK
6
CONTINUOUS
10
122.053
20
-84.7467
11
122.067
21
-84.7821
0
LINE
8
BLACK
6
CONTINUOUS
10
122.067
20
-84.7821
11
122.067
21
-84.7892
0
LINE
8
BLACK
6
CONTINUOUS
10
122.067
20
-84.7892
11
122.151
21
-84.7892
0
LINE
8
BLACK
6
CONTINUOUS
10
122.151
20
-84.7892
11
122.186
21
-84.8039
0
LINE
8
BLACK
6
CONTINUOUS
10
122.186
20
-84.8039
11
122.201
21
-84.8392
0
LINE
8
BLACK
6
CONTINUOUS
10
122.201
20
-84.8392
11
122.186
21
-84.8746
0
LINE
8
BLACK
6
CONTINUOUS
10
122.186
20
-84.8746
11
122.151
21
-84.8892
0
LINE
8
BLACK
6
CONTINUOUS
10
122.151
20
-84.8892
11
122.067
21
-84.8892
0
LINE
8
BLACK
6
CONTINUOUS
10
122.067
20
-84.8892
11
122.067
21
-85.0297
0
LINE
8
BLACK
6
CONTINUOUS
10
122.067
20
-85.0297
11
122.064
21
-85.0373
0
LINE
8
BLACK
6
CONTINUOUS
10
122.064
20
-85.0373
11
122.065
21
-85.0455
0
LINE
8
BLACK
6
CONTINUOUS
10
122.065
20
-85.0455
11
122.057
21
-85.0543
0
LINE
8
BLACK
6
CONTINUOUS
10
122.057
20
-85.0543
11
122.053
21
-85.065
0
LINE
8
BLACK
6
CONTINUOUS
10
122.053
20
-85.065
11
122.045
21
-85.0682
0
LINE
8
BLACK
6
CONTINUOUS
10
122.045
20
-85.0682
11
122.04
21
-85.0744
0
LINE
8
BLACK
6
CONTINUOUS
10
122.04
20
-85.0744
11
122.028
21
-85.0752
0
LINE
8
BLACK
6
CONTINUOUS
10
122.028
20
-85.0752
11
122.017
21
-85.0797
0
LINE
8
BLACK
6
CONTINUOUS
10
122.017
20
-85.0797
11
122.01
21
-85.0765
0
LINE
8
BLACK
6
CONTINUOUS
10
122.01
20
-85.0765
11
122.002
21
-85.0771
0
LINE
8
BLACK
6
CONTINUOUS
10
122.002
20
-85.0771
11
121.716
21
-84.9819
0
LINE
8
BLACK
6
CONTINUOUS
10
121.716
20
-84.9819
11
121.687
21
-84.9568
0
LINE
8
BLACK
6
CONTINUOUS
10
121.687
20
-84.9568
11
121.684
21
-84.9186
0
LINE
8
BLACK
6
CONTINUOUS
10
121.684
20
-84.9186
11
121.709
21
-84.8897
0
LINE
8
BLACK
6
CONTINUOUS
10
121.709
20
-84.8897
11
121.747
21
-84.887
0
LINE
8
BLACK
6
CONTINUOUS
10
121.747
20
-84.887
11
121.967
21
-84.9603
0
LINE
8
BLACK
6
CONTINUOUS
10
121.967
20
-84.9603
11
121.967
21
-84.8892
0
LINE
8
BLACK
6
CONTINUOUS
10
121.967
20
-84.8892
11
121.884
21
-84.8892
0
LINE
8
BLACK
6
CONTINUOUS
10
121.884
20
-84.8892
11
121.849
21
-84.8746
0
LINE
8
BLACK
6
CONTINUOUS
10
121.849
20
-84.8746
11
121.834
21
-84.8392
0
LINE
8
BLACK
6
CONTINUOUS
10
121.834
20
-84.8392
11
121.849
21
-84.8039
0
LINE
8
BLACK
6
CONTINUOUS
10
121.849
20
-84.8039
11
121.884
21
-84.7892
0
LINE
8
BLACK
6
CONTINUOUS
10
121.884
20
-84.7892
11
121.967
21
-84.7892
0
LINE
8
BLACK
6
CONTINUOUS
10
121.967
20
-84.7892
11
121.967
21
-84.7821
0
LINE
8
BLACK
6
CONTINUOUS
10
121.967
20
-84.7821
11
121.982
21
-84.7467
0
LINE
8
BLACK
6
CONTINUOUS
10
121.982
20
-84.7467
11
122.017
21
-84.7321
0
LINE
8
BLACK
6
CONTINUOUS
10
122.017
20
-84.7321
11
122.053
21
-84.7467
0
LINE
8
BLACK
6
CONTINUOUS
10
125.59
20
-84.7302
11
125.602
21
-84.731
0
LINE
8
BLACK
6
CONTINUOUS
10
125.602
20
-84.731
11
125.64
21
-84.75
0
LINE
8
BLACK
6
CONTINUOUS
10
125.64
20
-84.75
11
125.646
21
-84.7563
0
LINE
8
BLACK
6
CONTINUOUS
10
125.646
20
-84.7563
11
125.653
21
-84.7594
0
LINE
8
BLACK
6
CONTINUOUS
10
125.653
20
-84.7594
11
125.672
21
-84.7785
0
LINE
8
BLACK
6
CONTINUOUS
10
125.672
20
-84.7785
11
125.675
21
-84.7861
0
LINE
8
BLACK
6
CONTINUOUS
10
125.675
20
-84.7861
11
125.682
21
-84.7914
0
LINE
8
BLACK
6
CONTINUOUS
10
125.682
20
-84.7914
11
125.701
21
-84.8295
0
LINE
8
BLACK
6
CONTINUOUS
10
125.701
20
-84.8295
11
125.701
21
-84.8411
0
LINE
8
BLACK
6
CONTINUOUS
10
125.701
20
-84.8411
11
125.706
21
-84.8519
0
LINE
8
BLACK
6
CONTINUOUS
10
125.706
20
-84.8519
11
125.706
21
-84.9662
0
LINE
8
BLACK
6
CONTINUOUS
10
125.706
20
-84.9662
11
125.701
21
-84.9769
0
LINE
8
BLACK
6
CONTINUOUS
10
125.701
20
-84.9769
11
125.701
21
-84.9885
0
LINE
8
BLACK
6
CONTINUOUS
10
125.701
20
-84.9885
11
125.682
21
-85.0266
0
LINE
8
BLACK
6
CONTINUOUS
10
125.682
20
-85.0266
11
125.675
21
-85.032
0
LINE
8
BLACK
6
CONTINUOUS
10
125.675
20
-85.032
11
125.672
21
-85.0396
0
LINE
8
BLACK
6
CONTINUOUS
10
125.672
20
-85.0396
11
125.653
21
-85.0587
0
LINE
8
BLACK
6
CONTINUOUS
10
125.653
20
-85.0587
11
125.618
21
-85.0733
0
LINE
8
BLACK
6
CONTINUOUS
10
125.618
20
-85.0733
11
125.582
21
-85.0587
0
LINE
8
BLACK
6
CONTINUOUS
10
125.582
20
-85.0587
11
125.568
21
-85.0233
0
LINE
8
BLACK
6
CONTINUOUS
10
125.568
20
-85.0233
11
125.582
21
-84.988
0
LINE
8
BLACK
6
CONTINUOUS
10
125.582
20
-84.988
11
125.596
21
-84.9747
0
LINE
8
BLACK
6
CONTINUOUS
10
125.596
20
-84.9747
11
125.606
21
-84.9544
0
LINE
8
BLACK
6
CONTINUOUS
10
125.606
20
-84.9544
11
125.606
21
-84.8637
0
LINE
8
BLACK
6
CONTINUOUS
10
125.606
20
-84.8637
11
125.596
21
-84.8434
0
LINE
8
BLACK
6
CONTINUOUS
10
125.596
20
-84.8434
11
125.588
21
-84.8359
0
LINE
8
BLACK
6
CONTINUOUS
10
125.588
20
-84.8359
11
125.568
21
-84.8257
0
LINE
8
BLACK
6
CONTINUOUS
10
125.568
20
-84.8257
11
125.496
21
-84.8257
0
LINE
8
BLACK
6
CONTINUOUS
10
125.496
20
-84.8257
11
125.476
21
-84.8359
0
LINE
8
BLACK
6
CONTINUOUS
10
125.476
20
-84.8359
11
125.468
21
-84.8434
0
LINE
8
BLACK
6
CONTINUOUS
10
125.468
20
-84.8434
11
125.458
21
-84.8637
0
LINE
8
BLACK
6
CONTINUOUS
10
125.458
20
-84.8637
11
125.458
21
-84.909
0
LINE
8
BLACK
6
CONTINUOUS
10
125.458
20
-84.909
11
125.451
21
-84.9253
0
LINE
8
BLACK
6
CONTINUOUS
10
125.451
20
-84.9253
11
125.446
21
-84.942
0
LINE
8
BLACK
6
CONTINUOUS
10
125.446
20
-84.942
11
125.444
21
-84.9428
0
LINE
8
BLACK
6
CONTINUOUS
10
125.444
20
-84.9428
11
125.444
21
-84.9444
0
LINE
8
BLACK
6
CONTINUOUS
10
125.444
20
-84.9444
11
125.427
21
-84.9511
0
LINE
8
BLACK
6
CONTINUOUS
10
125.427
20
-84.9511
11
125.412
21
-84.9589
0
LINE
8
BLACK
6
CONTINUOUS
10
125.412
20
-84.9589
11
125.41
21
-84.9584
0
LINE
8
BLACK
6
CONTINUOUS
10
125.41
20
-84.9584
11
125.408
21
-84.959
0
LINE
8
BLACK
6
CONTINUOUS
10
125.408
20
-84.959
11
125.392
21
-84.9523
0
LINE
8
BLACK
6
CONTINUOUS
10
125.392
20
-84.9523
11
125.375
21
-84.9467
0
LINE
8
BLACK
6
CONTINUOUS
10
125.375
20
-84.9467
11
125.306
21
-84.8859
0
LINE
8
BLACK
6
CONTINUOUS
10
125.306
20
-84.8859
11
125.306
21
-85.0233
0
LINE
8
BLACK
6
CONTINUOUS
10
125.306
20
-85.0233
11
125.291
21
-85.0587
0
LINE
8
BLACK
6
CONTINUOUS
10
125.291
20
-85.0587
11
125.256
21
-85.0733
0
LINE
8
BLACK
6
CONTINUOUS
10
125.256
20
-85.0733
11
125.22
21
-85.0587
0
LINE
8
BLACK
6
CONTINUOUS
10
125.22
20
-85.0587
11
125.206
21
-85.0233
0
LINE
8
BLACK
6
CONTINUOUS
10
125.206
20
-85.0233
11
125.206
21
-84.7757
0
LINE
8
BLACK
6
CONTINUOUS
10
125.206
20
-84.7757
11
125.213
21
-84.7595
0
LINE
8
BLACK
6
CONTINUOUS
10
125.213
20
-84.7595
11
125.218
21
-84.7428
0
LINE
8
BLACK
6
CONTINUOUS
10
125.218
20
-84.7428
11
125.22
21
-84.742
0
LINE
8
BLACK
6
CONTINUOUS
10
125.22
20
-84.742
11
125.22
21
-84.7404
0
LINE
8
BLACK
6
CONTINUOUS
10
125.22
20
-84.7404
11
125.237
21
-84.7336
0
LINE
8
BLACK
6
CONTINUOUS
10
125.237
20
-84.7336
11
125.253
21
-84.7258
0
LINE
8
BLACK
6
CONTINUOUS
10
125.253
20
-84.7258
11
125.254
21
-84.7264
0
LINE
8
BLACK
6
CONTINUOUS
10
125.254
20
-84.7264
11
125.256
21
-84.7257
0
LINE
8
BLACK
6
CONTINUOUS
10
125.256
20
-84.7257
11
125.272
21
-84.7324
0
LINE
8
BLACK
6
CONTINUOUS
10
125.272
20
-84.7324
11
125.289
21
-84.7381
0
LINE
8
BLACK
6
CONTINUOUS
10
125.289
20
-84.7381
11
125.373
21
-84.8114
0
LINE
8
BLACK
6
CONTINUOUS
10
125.373
20
-84.8114
11
125.383
21
-84.7914
0
LINE
8
BLACK
6
CONTINUOUS
10
125.383
20
-84.7914
11
125.389
21
-84.7861
0
LINE
8
BLACK
6
CONTINUOUS
10
125.389
20
-84.7861
11
125.392
21
-84.7785
0
LINE
8
BLACK
6
CONTINUOUS
10
125.392
20
-84.7785
11
125.411
21
-84.7594
0
LINE
8
BLACK
6
CONTINUOUS
10
125.411
20
-84.7594
11
125.419
21
-84.7563
0
LINE
8
BLACK
6
CONTINUOUS
10
125.419
20
-84.7563
11
125.424
21
-84.75
0
LINE
8
BLACK
6
CONTINUOUS
10
125.424
20
-84.75
11
125.462
21
-84.731
0
LINE
8
BLACK
6
CONTINUOUS
10
125.462
20
-84.731
11
125.474
21
-84.7302
0
LINE
8
BLACK
6
CONTINUOUS
10
125.474
20
-84.7302
11
125.484
21
-84.7257
0
LINE
8
BLACK
6
CONTINUOUS
10
125.484
20
-84.7257
11
125.58
21
-84.7257
0
LINE
8
BLACK
6
CONTINUOUS
10
125.58
20
-84.7257
11
125.59
21
-84.7302
  0
ENDSEC
  0
EOF
