  0
SECTION
  2
HEADER
  9
$ANGBASE
  50
0.0
  9
$ANGDIR
  70
1
  9
$MEASUREMENT
  70
1
  0
ENDSEC
  0
SECTION
  2
TABLES
  0
TABLE
  2
LTYPE
  70
4
  0
LTYPE
  5
40F
  2
CONTINUOUS
  70
0
  3
Solid line
  72
65
  73
0
  40
0.0
  0
LTYPE
  5
410
  2
DASHDOT
 70
0
  3
Dash Dot ____ _ ____ _
 72
65
 73
4
 40
2.0
 49
1.25
 49
-0.25
 49
0.25
 49
-0.25
  0
LTYPE
  5
411
  2
DASHED
 70
0
  3
Dashed __ __ __ __ __
 72
65
 73
2
 40
0.75
 49
0.5
 49
-0.25
  0
LTYPE
  5
43B
  2
DOTTED
 70
0
  3
Dotted .  .  .  .
 72
65
 73
2
 40
0.2
 49
0.0
 49
-0.2
  0
ENDTAB
  0
TABLE
  2
STYLE
  70
4
  0
STYLE
  2
KICAD
  70
0
  40
0
  41
1
  42
1
  50
0
  71
0
  3
isocp.shx
  0
STYLE
  2
KICADB
  70
0
  40
0
  41
1
  42
1
  50
0
  71
0
  3
isocp.shx
  0
STYLE
  2
KICADI
  70
0
  40
0
  41
1
  42
1
  50
15
  71
0
  3
isocp.shx
  0
STYLE
  2
KICADBI
  70
0
  40
0
  41
1
  42
1
  50
15
  71
0
  3
isocp.shx
  0
ENDTAB
  0
TABLE
  2
LAYER
  70
1
  0
LAYER
  2
BLACK
  70
0
  62
7
  6
CONTINUOUS
  0
ENDTAB
  0
ENDSEC
  0
SECTION
  2
ENTITIES
0
LINE
8
BLACK
6
CONTINUOUS
10
127.758
20
-94.3333
11
127.782
21
-94.3784
0
LINE
8
BLACK
6
CONTINUOUS
10
127.782
20
-94.3784
11
127.772
21
-94.4287
0
LINE
8
BLACK
6
CONTINUOUS
10
127.772
20
-94.4287
11
127.732
21
-94.4606
0
LINE
8
BLACK
6
CONTINUOUS
10
127.732
20
-94.4606
11
126.945
21
-94.7227
0
LINE
8
BLACK
6
CONTINUOUS
10
126.945
20
-94.7227
11
127.732
21
-94.9849
0
LINE
8
BLACK
6
CONTINUOUS
10
127.732
20
-94.9849
11
127.755
21
-94.9973
0
LINE
8
BLACK
6
CONTINUOUS
10
127.755
20
-94.9973
11
127.782
21
-95.041
0
LINE
8
BLACK
6
CONTINUOUS
10
127.782
20
-95.041
11
127.774
21
-95.0918
0
LINE
8
BLACK
6
CONTINUOUS
10
127.774
20
-95.0918
11
127.736
21
-95.1258
0
LINE
8
BLACK
6
CONTINUOUS
10
127.736
20
-95.1258
11
127.684
21
-95.1272
0
LINE
8
BLACK
6
CONTINUOUS
10
127.684
20
-95.1272
11
126.684
21
-94.7939
0
LINE
8
BLACK
6
CONTINUOUS
10
126.684
20
-94.7939
11
126.662
21
-94.7815
0
LINE
8
BLACK
6
CONTINUOUS
10
126.662
20
-94.7815
11
126.66
21
-94.7797
0
LINE
8
BLACK
6
CONTINUOUS
10
126.66
20
-94.7797
11
126.658
21
-94.7789
0
LINE
8
BLACK
6
CONTINUOUS
10
126.658
20
-94.7789
11
126.647
21
-94.758
0
LINE
8
BLACK
6
CONTINUOUS
10
126.647
20
-94.758
11
126.635
21
-94.7378
0
LINE
8
BLACK
6
CONTINUOUS
10
126.635
20
-94.7378
11
126.635
21
-94.7356
0
LINE
8
BLACK
6
CONTINUOUS
10
126.635
20
-94.7356
11
126.634
21
-94.7337
0
LINE
8
BLACK
6
CONTINUOUS
10
126.634
20
-94.7337
11
126.639
21
-94.7105
0
LINE
8
BLACK
6
CONTINUOUS
10
126.639
20
-94.7105
11
126.642
21
-94.687
0
LINE
8
BLACK
6
CONTINUOUS
10
126.642
20
-94.687
11
126.644
21
-94.6856
0
LINE
8
BLACK
6
CONTINUOUS
10
126.644
20
-94.6856
11
126.644
21
-94.6835
0
LINE
8
BLACK
6
CONTINUOUS
10
126.644
20
-94.6835
11
126.663
21
-94.6687
0
LINE
8
BLACK
6
CONTINUOUS
10
126.663
20
-94.6687
11
126.681
21
-94.653
0
LINE
8
BLACK
6
CONTINUOUS
10
126.681
20
-94.653
11
126.683
21
-94.6529
0
LINE
8
BLACK
6
CONTINUOUS
10
126.683
20
-94.6529
11
126.684
21
-94.6516
0
LINE
8
BLACK
6
CONTINUOUS
10
126.684
20
-94.6516
11
127.684
21
-94.3183
0
LINE
8
BLACK
6
CONTINUOUS
10
127.684
20
-94.3183
11
127.71
21
-94.3144
0
LINE
8
BLACK
6
CONTINUOUS
10
127.71
20
-94.3144
11
127.758
21
-94.3333
0
LINE
8
BLACK
6
CONTINUOUS
10
126.124
20
-94.8427
11
126.163
21
-94.8757
0
LINE
8
BLACK
6
CONTINUOUS
10
126.163
20
-94.8757
11
126.172
21
-94.9262
0
LINE
8
BLACK
6
CONTINUOUS
10
126.172
20
-94.9262
11
126.146
21
-94.9707
0
LINE
8
BLACK
6
CONTINUOUS
10
126.146
20
-94.9707
11
126.098
21
-94.9882
0
LINE
8
BLACK
6
CONTINUOUS
10
126.098
20
-94.9882
11
125.098
21
-94.9882
0
LINE
8
BLACK
6
CONTINUOUS
10
125.098
20
-94.9882
11
125.073
21
-94.9837
0
LINE
8
BLACK
6
CONTINUOUS
10
125.073
20
-94.9837
11
125.033
21
-94.9507
0
LINE
8
BLACK
6
CONTINUOUS
10
125.033
20
-94.9507
11
125.024
21
-94.9002
0
LINE
8
BLACK
6
CONTINUOUS
10
125.024
20
-94.9002
11
125.05
21
-94.8558
0
LINE
8
BLACK
6
CONTINUOUS
10
125.05
20
-94.8558
11
125.098
21
-94.8382
0
LINE
8
BLACK
6
CONTINUOUS
10
125.098
20
-94.8382
11
126.098
21
-94.8382
0
LINE
8
BLACK
6
CONTINUOUS
10
126.098
20
-94.8382
11
126.124
21
-94.8427
0
LINE
8
BLACK
6
CONTINUOUS
10
125.648
20
-93.938
11
125.651
21
-93.9409
0
LINE
8
BLACK
6
CONTINUOUS
10
125.651
20
-93.9409
11
125.656
21
-93.9414
0
LINE
8
BLACK
6
CONTINUOUS
10
125.656
20
-93.9414
11
125.751
21
-93.989
0
LINE
8
BLACK
6
CONTINUOUS
10
125.751
20
-93.989
11
125.772
21
-94.0045
0
LINE
8
BLACK
6
CONTINUOUS
10
125.772
20
-94.0045
11
125.776
21
-94.0148
0
LINE
8
BLACK
6
CONTINUOUS
10
125.776
20
-94.0148
11
125.784
21
-94.0225
0
LINE
8
BLACK
6
CONTINUOUS
10
125.784
20
-94.0225
11
125.832
21
-94.1178
0
LINE
8
BLACK
6
CONTINUOUS
10
125.832
20
-94.1178
11
125.839
21
-94.1427
0
LINE
8
BLACK
6
CONTINUOUS
10
125.839
20
-94.1427
11
125.838
21
-94.1471
0
LINE
8
BLACK
6
CONTINUOUS
10
125.838
20
-94.1471
11
125.84
21
-94.1513
0
LINE
8
BLACK
6
CONTINUOUS
10
125.84
20
-94.1513
11
125.84
21
-94.2942
0
LINE
8
BLACK
6
CONTINUOUS
10
125.84
20
-94.2942
11
125.835
21
-94.3198
0
LINE
8
BLACK
6
CONTINUOUS
10
125.835
20
-94.3198
11
125.832
21
-94.3233
0
LINE
8
BLACK
6
CONTINUOUS
10
125.832
20
-94.3233
11
125.832
21
-94.3277
0
LINE
8
BLACK
6
CONTINUOUS
10
125.832
20
-94.3277
11
125.806
21
-94.3796
0
LINE
8
BLACK
6
CONTINUOUS
10
125.806
20
-94.3796
11
125.83
21
-94.3995
0
LINE
8
BLACK
6
CONTINUOUS
10
125.83
20
-94.3995
11
125.839
21
-94.4501
0
LINE
8
BLACK
6
CONTINUOUS
10
125.839
20
-94.4501
11
125.813
21
-94.4945
0
LINE
8
BLACK
6
CONTINUOUS
10
125.813
20
-94.4945
11
125.765
21
-94.512
0
LINE
8
BLACK
6
CONTINUOUS
10
125.765
20
-94.512
11
125.098
21
-94.512
0
LINE
8
BLACK
6
CONTINUOUS
10
125.098
20
-94.512
11
125.073
21
-94.5075
0
LINE
8
BLACK
6
CONTINUOUS
10
125.073
20
-94.5075
11
125.033
21
-94.4745
0
LINE
8
BLACK
6
CONTINUOUS
10
125.033
20
-94.4745
11
125.024
21
-94.424
0
LINE
8
BLACK
6
CONTINUOUS
10
125.024
20
-94.424
11
125.05
21
-94.3796
0
LINE
8
BLACK
6
CONTINUOUS
10
125.05
20
-94.3796
11
125.098
21
-94.362
0
LINE
8
BLACK
6
CONTINUOUS
10
125.098
20
-94.362
11
125.639
21
-94.362
0
LINE
8
BLACK
6
CONTINUOUS
10
125.639
20
-94.362
11
125.656
21
-94.345
0
LINE
8
BLACK
6
CONTINUOUS
10
125.656
20
-94.345
11
125.69
21
-94.2765
0
LINE
8
BLACK
6
CONTINUOUS
10
125.69
20
-94.2765
11
125.69
21
-94.169
0
LINE
8
BLACK
6
CONTINUOUS
10
125.69
20
-94.169
11
125.661
21
-94.112
0
LINE
8
BLACK
6
CONTINUOUS
10
125.661
20
-94.112
11
125.604
21
-94.0835
0
LINE
8
BLACK
6
CONTINUOUS
10
125.604
20
-94.0835
11
125.098
21
-94.0835
0
LINE
8
BLACK
6
CONTINUOUS
10
125.098
20
-94.0835
11
125.073
21
-94.0789
0
LINE
8
BLACK
6
CONTINUOUS
10
125.073
20
-94.0789
11
125.033
21
-94.046
0
LINE
8
BLACK
6
CONTINUOUS
10
125.033
20
-94.046
11
125.024
21
-93.9954
0
LINE
8
BLACK
6
CONTINUOUS
10
125.024
20
-93.9954
11
125.05
21
-93.951
0
LINE
8
BLACK
6
CONTINUOUS
10
125.05
20
-93.951
11
125.098
21
-93.9335
0
LINE
8
BLACK
6
CONTINUOUS
10
125.098
20
-93.9335
11
125.622
21
-93.9335
0
LINE
8
BLACK
6
CONTINUOUS
10
125.622
20
-93.9335
11
125.648
21
-93.938
0
LINE
8
BLACK
6
CONTINUOUS
10
127.342
20
-93.4599
11
127.345
21
-93.4595
0
LINE
8
BLACK
6
CONTINUOUS
10
127.345
20
-93.4595
11
127.536
21
-93.5071
0
LINE
8
BLACK
6
CONTINUOUS
10
127.536
20
-93.5071
11
127.548
21
-93.5124
0
LINE
8
BLACK
6
CONTINUOUS
10
127.548
20
-93.5124
11
127.551
21
-93.5128
0
LINE
8
BLACK
6
CONTINUOUS
10
127.551
20
-93.5128
11
127.646
21
-93.5604
0
LINE
8
BLACK
6
CONTINUOUS
10
127.646
20
-93.5604
11
127.664
21
-93.5738
0
LINE
8
BLACK
6
CONTINUOUS
10
127.664
20
-93.5738
11
127.666
21
-93.5745
0
LINE
8
BLACK
6
CONTINUOUS
10
127.666
20
-93.5745
11
127.714
21
-93.6221
0
LINE
8
BLACK
6
CONTINUOUS
10
127.714
20
-93.6221
11
127.726
21
-93.6405
0
LINE
8
BLACK
6
CONTINUOUS
10
127.726
20
-93.6405
11
127.728
21
-93.6416
0
LINE
8
BLACK
6
CONTINUOUS
10
127.728
20
-93.6416
11
127.775
21
-93.7368
0
LINE
8
BLACK
6
CONTINUOUS
10
127.775
20
-93.7368
11
127.783
21
-93.7618
0
LINE
8
BLACK
6
CONTINUOUS
10
127.783
20
-93.7618
11
127.782
21
-93.7661
0
LINE
8
BLACK
6
CONTINUOUS
10
127.782
20
-93.7661
11
127.783
21
-93.7704
0
LINE
8
BLACK
6
CONTINUOUS
10
127.783
20
-93.7704
11
127.783
21
-93.8656
0
LINE
8
BLACK
6
CONTINUOUS
10
127.783
20
-93.8656
11
127.779
21
-93.8913
0
LINE
8
BLACK
6
CONTINUOUS
10
127.779
20
-93.8913
11
127.776
21
-93.8947
0
LINE
8
BLACK
6
CONTINUOUS
10
127.776
20
-93.8947
11
127.775
21
-93.8991
0
LINE
8
BLACK
6
CONTINUOUS
10
127.775
20
-93.8991
11
127.728
21
-93.9944
0
LINE
8
BLACK
6
CONTINUOUS
10
127.728
20
-93.9944
11
127.714
21
-94.0124
0
LINE
8
BLACK
6
CONTINUOUS
10
127.714
20
-94.0124
11
127.714
21
-94.0139
0
LINE
8
BLACK
6
CONTINUOUS
10
127.714
20
-94.0139
11
127.666
21
-94.0615
0
LINE
8
BLACK
6
CONTINUOUS
10
127.666
20
-94.0615
11
127.648
21
-94.0743
0
LINE
8
BLACK
6
CONTINUOUS
10
127.648
20
-94.0743
11
127.646
21
-94.0755
0
LINE
8
BLACK
6
CONTINUOUS
10
127.646
20
-94.0755
11
127.551
21
-94.1232
0
LINE
8
BLACK
6
CONTINUOUS
10
127.551
20
-94.1232
11
127.539
21
-94.1268
0
LINE
8
BLACK
6
CONTINUOUS
10
127.539
20
-94.1268
11
127.536
21
-94.1288
0
LINE
8
BLACK
6
CONTINUOUS
10
127.536
20
-94.1288
11
127.345
21
-94.1765
0
LINE
8
BLACK
6
CONTINUOUS
10
127.345
20
-94.1765
11
127.33
21
-94.1775
0
LINE
8
BLACK
6
CONTINUOUS
10
127.33
20
-94.1775
11
127.327
21
-94.1787
0
LINE
8
BLACK
6
CONTINUOUS
10
127.327
20
-94.1787
11
127.089
21
-94.1787
0
LINE
8
BLACK
6
CONTINUOUS
10
127.089
20
-94.1787
11
127.074
21
-94.1761
0
LINE
8
BLACK
6
CONTINUOUS
10
127.074
20
-94.1761
11
127.071
21
-94.1765
0
LINE
8
BLACK
6
CONTINUOUS
10
127.071
20
-94.1765
11
126.88
21
-94.1288
0
LINE
8
BLACK
6
CONTINUOUS
10
126.88
20
-94.1288
11
126.869
21
-94.1236
0
LINE
8
BLACK
6
CONTINUOUS
10
126.869
20
-94.1236
11
126.865
21
-94.1232
0
LINE
8
BLACK
6
CONTINUOUS
10
126.865
20
-94.1232
11
126.77
21
-94.0755
0
LINE
8
BLACK
6
CONTINUOUS
10
126.77
20
-94.0755
11
126.752
21
-94.0622
0
LINE
8
BLACK
6
CONTINUOUS
10
126.752
20
-94.0622
11
126.75
21
-94.0615
0
LINE
8
BLACK
6
CONTINUOUS
10
126.75
20
-94.0615
11
126.703
21
-94.0139
0
LINE
8
BLACK
6
CONTINUOUS
10
126.703
20
-94.0139
11
126.69
21
-93.9955
0
LINE
8
BLACK
6
CONTINUOUS
10
126.69
20
-93.9955
11
126.689
21
-93.9944
0
LINE
8
BLACK
6
CONTINUOUS
10
126.689
20
-93.9944
11
126.641
21
-93.8991
0
LINE
8
BLACK
6
CONTINUOUS
10
126.641
20
-93.8991
11
126.634
21
-93.8742
0
LINE
8
BLACK
6
CONTINUOUS
10
126.634
20
-93.8742
11
126.635
21
-93.8698
0
LINE
8
BLACK
6
CONTINUOUS
10
126.635
20
-93.8698
11
126.633
21
-93.8656
0
LINE
8
BLACK
6
CONTINUOUS
10
126.633
20
-93.8656
11
126.633
21
-93.7704
0
LINE
8
BLACK
6
CONTINUOUS
10
126.633
20
-93.7704
11
126.638
21
-93.7447
0
LINE
8
BLACK
6
CONTINUOUS
10
126.638
20
-93.7447
11
126.641
21
-93.7413
0
LINE
8
BLACK
6
CONTINUOUS
10
126.641
20
-93.7413
11
126.641
21
-93.7368
0
LINE
8
BLACK
6
CONTINUOUS
10
126.641
20
-93.7368
11
126.689
21
-93.6416
0
LINE
8
BLACK
6
CONTINUOUS
10
126.689
20
-93.6416
11
126.702
21
-93.6236
0
LINE
8
BLACK
6
CONTINUOUS
10
126.702
20
-93.6236
11
126.703
21
-93.6221
0
LINE
8
BLACK
6
CONTINUOUS
10
126.703
20
-93.6221
11
126.75
21
-93.5745
0
LINE
8
BLACK
6
CONTINUOUS
10
126.75
20
-93.5745
11
126.769
21
-93.5616
0
LINE
8
BLACK
6
CONTINUOUS
10
126.769
20
-93.5616
11
126.77
21
-93.5604
0
LINE
8
BLACK
6
CONTINUOUS
10
126.77
20
-93.5604
11
126.865
21
-93.5128
0
LINE
8
BLACK
6
CONTINUOUS
10
126.865
20
-93.5128
11
126.878
21
-93.5091
0
LINE
8
BLACK
6
CONTINUOUS
10
126.878
20
-93.5091
11
126.88
21
-93.5071
0
LINE
8
BLACK
6
CONTINUOUS
10
126.88
20
-93.5071
11
127.071
21
-93.4595
0
LINE
8
BLACK
6
CONTINUOUS
10
127.071
20
-93.4595
11
127.086
21
-93.4585
0
LINE
8
BLACK
6
CONTINUOUS
10
127.086
20
-93.4585
11
127.089
21
-93.4573
0
LINE
8
BLACK
6
CONTINUOUS
10
127.089
20
-93.4573
11
127.327
21
-93.4573
0
LINE
8
BLACK
6
CONTINUOUS
10
127.327
20
-93.4573
11
127.342
21
-93.4599
0
LINE
8
BLACK
6
CONTINUOUS
10
126.925
20
-93.6507
11
126.848
21
-93.6891
0
LINE
8
BLACK
6
CONTINUOUS
10
126.848
20
-93.6891
11
126.817
21
-93.7196
0
LINE
8
BLACK
6
CONTINUOUS
10
126.817
20
-93.7196
11
126.783
21
-93.7881
0
LINE
8
BLACK
6
CONTINUOUS
10
126.783
20
-93.7881
11
126.783
21
-93.8479
0
LINE
8
BLACK
6
CONTINUOUS
10
126.783
20
-93.8479
11
126.817
21
-93.9164
0
LINE
8
BLACK
6
CONTINUOUS
10
126.817
20
-93.9164
11
126.848
21
-93.9468
0
LINE
8
BLACK
6
CONTINUOUS
10
126.848
20
-93.9468
11
126.925
21
-93.9853
0
LINE
8
BLACK
6
CONTINUOUS
10
126.925
20
-93.9853
11
127.098
21
-94.0287
0
LINE
8
BLACK
6
CONTINUOUS
10
127.098
20
-94.0287
11
127.318
21
-94.0287
0
LINE
8
BLACK
6
CONTINUOUS
10
127.318
20
-94.0287
11
127.492
21
-93.9853
0
LINE
8
BLACK
6
CONTINUOUS
10
127.492
20
-93.9853
11
127.569
21
-93.9468
0
LINE
8
BLACK
6
CONTINUOUS
10
127.569
20
-93.9468
11
127.599
21
-93.9164
0
LINE
8
BLACK
6
CONTINUOUS
10
127.599
20
-93.9164
11
127.633
21
-93.8479
0
LINE
8
BLACK
6
CONTINUOUS
10
127.633
20
-93.8479
11
127.633
21
-93.7881
0
LINE
8
BLACK
6
CONTINUOUS
10
127.633
20
-93.7881
11
127.599
21
-93.7196
0
LINE
8
BLACK
6
CONTINUOUS
10
127.599
20
-93.7196
11
127.569
21
-93.6891
0
LINE
8
BLACK
6
CONTINUOUS
10
127.569
20
-93.6891
11
127.492
21
-93.6507
0
LINE
8
BLACK
6
CONTINUOUS
10
127.492
20
-93.6507
11
127.318
21
-93.6073
0
LINE
8
BLACK
6
CONTINUOUS
10
127.318
20
-93.6073
11
127.098
21
-93.6073
0
LINE
8
BLACK
6
CONTINUOUS
10
127.098
20
-93.6073
11
126.925
21
-93.6507
0
LINE
8
BLACK
6
CONTINUOUS
10
125.6
20
-92.9856
11
125.603
21
-92.9885
0
LINE
8
BLACK
6
CONTINUOUS
10
125.603
20
-92.9885
11
125.608
21
-92.989
0
LINE
8
BLACK
6
CONTINUOUS
10
125.608
20
-92.989
11
125.703
21
-93.0366
0
LINE
8
BLACK
6
CONTINUOUS
10
125.703
20
-93.0366
11
125.721
21
-93.05
0
LINE
8
BLACK
6
CONTINUOUS
10
125.721
20
-93.05
11
125.723
21
-93.0507
0
LINE
8
BLACK
6
CONTINUOUS
10
125.723
20
-93.0507
11
125.77
21
-93.0983
0
LINE
8
BLACK
6
CONTINUOUS
10
125.77
20
-93.0983
11
125.783
21
-93.1166
0
LINE
8
BLACK
6
CONTINUOUS
10
125.783
20
-93.1166
11
125.784
21
-93.1178
0
LINE
8
BLACK
6
CONTINUOUS
10
125.784
20
-93.1178
11
125.832
21
-93.213
0
LINE
8
BLACK
6
CONTINUOUS
10
125.832
20
-93.213
11
125.839
21
-93.238
0
LINE
8
BLACK
6
CONTINUOUS
10
125.839
20
-93.238
11
125.838
21
-93.2423
0
LINE
8
BLACK
6
CONTINUOUS
10
125.838
20
-93.2423
11
125.84
21
-93.2466
0
LINE
8
BLACK
6
CONTINUOUS
10
125.84
20
-93.2466
11
125.84
21
-93.437
0
LINE
8
BLACK
6
CONTINUOUS
10
125.84
20
-93.437
11
125.835
21
-93.4627
0
LINE
8
BLACK
6
CONTINUOUS
10
125.835
20
-93.4627
11
125.832
21
-93.4661
0
LINE
8
BLACK
6
CONTINUOUS
10
125.832
20
-93.4661
11
125.832
21
-93.4706
0
LINE
8
BLACK
6
CONTINUOUS
10
125.832
20
-93.4706
11
125.823
21
-93.4889
0
LINE
8
BLACK
6
CONTINUOUS
10
125.823
20
-93.4889
11
125.83
21
-93.4948
0
LINE
8
BLACK
6
CONTINUOUS
10
125.83
20
-93.4948
11
125.839
21
-93.5453
0
LINE
8
BLACK
6
CONTINUOUS
10
125.839
20
-93.5453
11
125.813
21
-93.5897
0
LINE
8
BLACK
6
CONTINUOUS
10
125.813
20
-93.5897
11
125.765
21
-93.6073
0
LINE
8
BLACK
6
CONTINUOUS
10
125.765
20
-93.6073
11
124.765
21
-93.6073
0
LINE
8
BLACK
6
CONTINUOUS
10
124.765
20
-93.6073
11
124.739
21
-93.6027
0
LINE
8
BLACK
6
CONTINUOUS
10
124.739
20
-93.6027
11
124.7
21
-93.5698
0
LINE
8
BLACK
6
CONTINUOUS
10
124.7
20
-93.5698
11
124.691
21
-93.5192
0
LINE
8
BLACK
6
CONTINUOUS
10
124.691
20
-93.5192
11
124.717
21
-93.4748
0
LINE
8
BLACK
6
CONTINUOUS
10
124.717
20
-93.4748
11
124.765
21
-93.4573
0
LINE
8
BLACK
6
CONTINUOUS
10
124.765
20
-93.4573
11
125.027
21
-93.4573
0
LINE
8
BLACK
6
CONTINUOUS
10
125.027
20
-93.4573
11
125.024
21
-93.4456
0
LINE
8
BLACK
6
CONTINUOUS
10
125.024
20
-93.4456
11
125.025
21
-93.4412
0
LINE
8
BLACK
6
CONTINUOUS
10
125.025
20
-93.4412
11
125.023
21
-93.437
0
LINE
8
BLACK
6
CONTINUOUS
10
125.023
20
-93.437
11
125.023
21
-93.2466
0
LINE
8
BLACK
6
CONTINUOUS
10
125.023
20
-93.2466
11
125.028
21
-93.2209
0
LINE
8
BLACK
6
CONTINUOUS
10
125.028
20
-93.2209
11
125.031
21
-93.2175
0
LINE
8
BLACK
6
CONTINUOUS
10
125.031
20
-93.2175
11
125.031
21
-93.213
0
LINE
8
BLACK
6
CONTINUOUS
10
125.031
20
-93.213
11
125.079
21
-93.1178
0
LINE
8
BLACK
6
CONTINUOUS
10
125.079
20
-93.1178
11
125.092
21
-93.0998
0
LINE
8
BLACK
6
CONTINUOUS
10
125.092
20
-93.0998
11
125.093
21
-93.0983
0
LINE
8
BLACK
6
CONTINUOUS
10
125.093
20
-93.0983
11
125.14
21
-93.0507
0
LINE
8
BLACK
6
CONTINUOUS
10
125.14
20
-93.0507
11
125.159
21
-93.0378
0
LINE
8
BLACK
6
CONTINUOUS
10
125.159
20
-93.0378
11
125.16
21
-93.0366
0
LINE
8
BLACK
6
CONTINUOUS
10
125.16
20
-93.0366
11
125.255
21
-92.989
0
LINE
8
BLACK
6
CONTINUOUS
10
125.255
20
-92.989
11
125.28
21
-92.9816
0
LINE
8
BLACK
6
CONTINUOUS
10
125.28
20
-92.9816
11
125.284
21
-92.9826
0
LINE
8
BLACK
6
CONTINUOUS
10
125.284
20
-92.9826
11
125.289
21
-92.9811
0
LINE
8
BLACK
6
CONTINUOUS
10
125.289
20
-92.9811
11
125.574
21
-92.9811
0
LINE
8
BLACK
6
CONTINUOUS
10
125.574
20
-92.9811
11
125.6
21
-92.9856
0
LINE
8
BLACK
6
CONTINUOUS
10
125.238
20
-93.1653
11
125.207
21
-93.1957
0
LINE
8
BLACK
6
CONTINUOUS
10
125.207
20
-93.1957
11
125.173
21
-93.2643
0
LINE
8
BLACK
6
CONTINUOUS
10
125.173
20
-93.2643
11
125.173
21
-93.4193
0
LINE
8
BLACK
6
CONTINUOUS
10
125.173
20
-93.4193
11
125.192
21
-93.4573
0
LINE
8
BLACK
6
CONTINUOUS
10
125.192
20
-93.4573
11
125.671
21
-93.4573
0
LINE
8
BLACK
6
CONTINUOUS
10
125.671
20
-93.4573
11
125.69
21
-93.4193
0
LINE
8
BLACK
6
CONTINUOUS
10
125.69
20
-93.4193
11
125.69
21
-93.2643
0
LINE
8
BLACK
6
CONTINUOUS
10
125.69
20
-93.2643
11
125.656
21
-93.1957
0
LINE
8
BLACK
6
CONTINUOUS
10
125.656
20
-93.1957
11
125.625
21
-93.1653
0
LINE
8
BLACK
6
CONTINUOUS
10
125.625
20
-93.1653
11
125.557
21
-93.1311
0
LINE
8
BLACK
6
CONTINUOUS
10
125.557
20
-93.1311
11
125.306
21
-93.1311
0
LINE
8
BLACK
6
CONTINUOUS
10
125.306
20
-93.1311
11
125.238
21
-93.1653
0
LINE
8
BLACK
6
CONTINUOUS
10
126.768
20
-92.9842
11
126.775
21
-92.9836
0
LINE
8
BLACK
6
CONTINUOUS
10
126.775
20
-92.9836
11
126.791
21
-92.9948
0
LINE
8
BLACK
6
CONTINUOUS
10
126.791
20
-92.9948
11
126.809
21
-93.003
0
LINE
8
BLACK
6
CONTINUOUS
10
126.809
20
-93.003
11
126.856
21
-93.0507
0
LINE
8
BLACK
6
CONTINUOUS
10
126.856
20
-93.0507
11
126.862
21
-93.0588
0
LINE
8
BLACK
6
CONTINUOUS
10
126.862
20
-93.0588
11
126.865
21
-93.0607
0
LINE
8
BLACK
6
CONTINUOUS
10
126.865
20
-93.0607
11
126.866
21
-93.0639
0
LINE
8
BLACK
6
CONTINUOUS
10
126.866
20
-93.0639
11
126.866
21
-93.0641
0
LINE
8
BLACK
6
CONTINUOUS
10
126.866
20
-93.0641
11
126.868
21
-93.0662
0
LINE
8
BLACK
6
CONTINUOUS
10
126.868
20
-93.0662
11
126.869
21
-93.0682
0
LINE
8
BLACK
6
CONTINUOUS
10
126.869
20
-93.0682
11
126.871
21
-93.072
0
LINE
8
BLACK
6
CONTINUOUS
10
126.871
20
-93.072
11
126.873
21
-93.0914
0
LINE
8
BLACK
6
CONTINUOUS
10
126.873
20
-93.0914
11
126.878
21
-93.1102
0
LINE
8
BLACK
6
CONTINUOUS
10
126.878
20
-93.1102
11
126.877
21
-93.1133
0
LINE
8
BLACK
6
CONTINUOUS
10
126.877
20
-93.1133
11
126.877
21
-93.1167
0
LINE
8
BLACK
6
CONTINUOUS
10
126.877
20
-93.1167
11
126.876
21
-93.1197
0
LINE
8
BLACK
6
CONTINUOUS
10
126.876
20
-93.1197
11
126.876
21
-93.1231
0
LINE
8
BLACK
6
CONTINUOUS
10
126.876
20
-93.1231
11
126.865
21
-93.1391
0
LINE
8
BLACK
6
CONTINUOUS
10
126.865
20
-93.1391
11
126.856
21
-93.1567
0
LINE
8
BLACK
6
CONTINUOUS
10
126.856
20
-93.1567
11
126.809
21
-93.2043
0
LINE
8
BLACK
6
CONTINUOUS
10
126.809
20
-93.2043
11
126.801
21
-93.21
0
LINE
8
BLACK
6
CONTINUOUS
10
126.801
20
-93.21
11
126.799
21
-93.2128
0
LINE
8
BLACK
6
CONTINUOUS
10
126.799
20
-93.2128
11
126.796
21
-93.2136
0
LINE
8
BLACK
6
CONTINUOUS
10
126.796
20
-93.2136
11
126.787
21
-93.2193
0
LINE
8
BLACK
6
CONTINUOUS
10
126.787
20
-93.2193
11
126.768
21
-93.221
0
LINE
8
BLACK
6
CONTINUOUS
10
126.768
20
-93.221
11
126.749
21
-93.226
0
LINE
8
BLACK
6
CONTINUOUS
10
126.749
20
-93.226
11
126.743
21
-93.2232
0
LINE
8
BLACK
6
CONTINUOUS
10
126.743
20
-93.2232
11
126.736
21
-93.2238
0
LINE
8
BLACK
6
CONTINUOUS
10
126.736
20
-93.2238
11
126.72
21
-93.2126
0
LINE
8
BLACK
6
CONTINUOUS
10
126.72
20
-93.2126
11
126.703
21
-93.2043
0
LINE
8
BLACK
6
CONTINUOUS
10
126.703
20
-93.2043
11
126.655
21
-93.1567
0
LINE
8
BLACK
6
CONTINUOUS
10
126.655
20
-93.1567
11
126.649
21
-93.1486
0
LINE
8
BLACK
6
CONTINUOUS
10
126.649
20
-93.1486
11
126.647
21
-93.1467
0
LINE
8
BLACK
6
CONTINUOUS
10
126.647
20
-93.1467
11
126.646
21
-93.1435
0
LINE
8
BLACK
6
CONTINUOUS
10
126.646
20
-93.1435
11
126.646
21
-93.1433
0
LINE
8
BLACK
6
CONTINUOUS
10
126.646
20
-93.1433
11
126.643
21
-93.1412
0
LINE
8
BLACK
6
CONTINUOUS
10
126.643
20
-93.1412
11
126.643
21
-93.1392
0
LINE
8
BLACK
6
CONTINUOUS
10
126.643
20
-93.1392
11
126.64
21
-93.1354
0
LINE
8
BLACK
6
CONTINUOUS
10
126.64
20
-93.1354
11
126.639
21
-93.116
0
LINE
8
BLACK
6
CONTINUOUS
10
126.639
20
-93.116
11
126.633
21
-93.0972
0
LINE
8
BLACK
6
CONTINUOUS
10
126.633
20
-93.0972
11
126.635
21
-93.0941
0
LINE
8
BLACK
6
CONTINUOUS
10
126.635
20
-93.0941
11
126.634
21
-93.0907
0
LINE
8
BLACK
6
CONTINUOUS
10
126.634
20
-93.0907
11
126.636
21
-93.0877
0
LINE
8
BLACK
6
CONTINUOUS
10
126.636
20
-93.0877
11
126.636
21
-93.0843
0
LINE
8
BLACK
6
CONTINUOUS
10
126.636
20
-93.0843
11
126.647
21
-93.0683
0
LINE
8
BLACK
6
CONTINUOUS
10
126.647
20
-93.0683
11
126.655
21
-93.0507
0
LINE
8
BLACK
6
CONTINUOUS
10
126.655
20
-93.0507
11
126.703
21
-93.003
0
LINE
8
BLACK
6
CONTINUOUS
10
126.703
20
-93.003
11
126.711
21
-92.9974
0
LINE
8
BLACK
6
CONTINUOUS
10
126.711
20
-92.9974
11
126.713
21
-92.9946
0
LINE
8
BLACK
6
CONTINUOUS
10
126.713
20
-92.9946
11
126.716
21
-92.9938
0
LINE
8
BLACK
6
CONTINUOUS
10
126.716
20
-92.9938
11
126.724
21
-92.9881
0
LINE
8
BLACK
6
CONTINUOUS
10
126.724
20
-92.9881
11
126.744
21
-92.9864
0
LINE
8
BLACK
6
CONTINUOUS
10
126.744
20
-92.9864
11
126.762
21
-92.9814
0
LINE
8
BLACK
6
CONTINUOUS
10
126.762
20
-92.9814
11
126.768
21
-92.9842
0
LINE
8
BLACK
6
CONTINUOUS
10
126.766
20
-92.0555
11
126.783
21
-92.1037
0
LINE
8
BLACK
6
CONTINUOUS
10
126.783
20
-92.1037
11
126.783
21
-92.3144
0
LINE
8
BLACK
6
CONTINUOUS
10
126.783
20
-92.3144
11
127.708
21
-92.3144
0
LINE
8
BLACK
6
CONTINUOUS
10
127.708
20
-92.3144
11
127.734
21
-92.3189
0
LINE
8
BLACK
6
CONTINUOUS
10
127.734
20
-92.3189
11
127.737
21
-92.3217
0
LINE
8
BLACK
6
CONTINUOUS
10
127.737
20
-92.3217
11
127.741
21
-92.3222
0
LINE
8
BLACK
6
CONTINUOUS
10
127.741
20
-92.3222
11
127.756
21
-92.3379
0
LINE
8
BLACK
6
CONTINUOUS
10
127.756
20
-92.3379
11
127.773
21
-92.3519
0
LINE
8
BLACK
6
CONTINUOUS
10
127.773
20
-92.3519
11
127.774
21
-92.3562
0
LINE
8
BLACK
6
CONTINUOUS
10
127.774
20
-92.3562
11
127.777
21
-92.3593
0
LINE
8
BLACK
6
CONTINUOUS
10
127.777
20
-92.3593
11
127.778
21
-92.381
0
LINE
8
BLACK
6
CONTINUOUS
10
127.778
20
-92.381
11
127.782
21
-92.4024
0
LINE
8
BLACK
6
CONTINUOUS
10
127.782
20
-92.4024
11
127.78
21
-92.4062
0
LINE
8
BLACK
6
CONTINUOUS
10
127.78
20
-92.4062
11
127.78
21
-92.4105
0
LINE
8
BLACK
6
CONTINUOUS
10
127.78
20
-92.4105
11
127.767
21
-92.428
0
LINE
8
BLACK
6
CONTINUOUS
10
127.767
20
-92.428
11
127.756
21
-92.4469
0
LINE
8
BLACK
6
CONTINUOUS
10
127.756
20
-92.4469
11
127.752
21
-92.4483
0
LINE
8
BLACK
6
CONTINUOUS
10
127.752
20
-92.4483
11
127.75
21
-92.4518
0
LINE
8
BLACK
6
CONTINUOUS
10
127.75
20
-92.4518
11
127.613
21
-92.5429
0
LINE
8
BLACK
6
CONTINUOUS
10
127.613
20
-92.5429
11
127.532
21
-92.6243
0
LINE
8
BLACK
6
CONTINUOUS
10
127.532
20
-92.6243
11
127.49
21
-92.7087
0
LINE
8
BLACK
6
CONTINUOUS
10
127.49
20
-92.7087
11
127.474
21
-92.7296
0
LINE
8
BLACK
6
CONTINUOUS
10
127.474
20
-92.7296
11
127.427
21
-92.75
0
LINE
8
BLACK
6
CONTINUOUS
10
127.427
20
-92.75
11
127.378
21
-92.7354
0
LINE
8
BLACK
6
CONTINUOUS
10
127.378
20
-92.7354
11
127.35
21
-92.6926
0
LINE
8
BLACK
6
CONTINUOUS
10
127.35
20
-92.6926
11
127.355
21
-92.6416
0
LINE
8
BLACK
6
CONTINUOUS
10
127.355
20
-92.6416
11
127.403
21
-92.5463
0
LINE
8
BLACK
6
CONTINUOUS
10
127.403
20
-92.5463
11
127.416
21
-92.5283
0
LINE
8
BLACK
6
CONTINUOUS
10
127.416
20
-92.5283
11
127.417
21
-92.5269
0
LINE
8
BLACK
6
CONTINUOUS
10
127.417
20
-92.5269
11
127.479
21
-92.4644
0
LINE
8
BLACK
6
CONTINUOUS
10
127.479
20
-92.4644
11
126.783
21
-92.4644
0
LINE
8
BLACK
6
CONTINUOUS
10
126.783
20
-92.4644
11
126.783
21
-92.6751
0
LINE
8
BLACK
6
CONTINUOUS
10
126.783
20
-92.6751
11
126.779
21
-92.7008
0
LINE
8
BLACK
6
CONTINUOUS
10
126.779
20
-92.7008
11
126.746
21
-92.7401
0
LINE
8
BLACK
6
CONTINUOUS
10
126.746
20
-92.7401
11
126.695
21
-92.749
0
LINE
8
BLACK
6
CONTINUOUS
10
126.695
20
-92.749
11
126.651
21
-92.7233
0
LINE
8
BLACK
6
CONTINUOUS
10
126.651
20
-92.7233
11
126.633
21
-92.6751
0
LINE
8
BLACK
6
CONTINUOUS
10
126.633
20
-92.6751
11
126.633
21
-92.1037
0
LINE
8
BLACK
6
CONTINUOUS
10
126.633
20
-92.1037
11
126.638
21
-92.078
0
LINE
8
BLACK
6
CONTINUOUS
10
126.638
20
-92.078
11
126.671
21
-92.0387
0
LINE
8
BLACK
6
CONTINUOUS
10
126.671
20
-92.0387
11
126.721
21
-92.0298
0
LINE
8
BLACK
6
CONTINUOUS
10
126.721
20
-92.0298
11
126.766
21
-92.0555
0
LINE
8
BLACK
6
CONTINUOUS
10
125.79
20
-92.1285
11
125.83
21
-92.1614
0
LINE
8
BLACK
6
CONTINUOUS
10
125.83
20
-92.1614
11
125.839
21
-92.212
0
LINE
8
BLACK
6
CONTINUOUS
10
125.839
20
-92.212
11
125.813
21
-92.2564
0
LINE
8
BLACK
6
CONTINUOUS
10
125.813
20
-92.2564
11
125.765
21
-92.2739
0
LINE
8
BLACK
6
CONTINUOUS
10
125.765
20
-92.2739
11
125.224
21
-92.2739
0
LINE
8
BLACK
6
CONTINUOUS
10
125.224
20
-92.2739
11
125.207
21
-92.291
0
LINE
8
BLACK
6
CONTINUOUS
10
125.207
20
-92.291
11
125.173
21
-92.3595
0
LINE
8
BLACK
6
CONTINUOUS
10
125.173
20
-92.3595
11
125.173
21
-92.4669
0
LINE
8
BLACK
6
CONTINUOUS
10
125.173
20
-92.4669
11
125.202
21
-92.524
0
LINE
8
BLACK
6
CONTINUOUS
10
125.202
20
-92.524
11
125.259
21
-92.5525
0
LINE
8
BLACK
6
CONTINUOUS
10
125.259
20
-92.5525
11
125.765
21
-92.5525
0
LINE
8
BLACK
6
CONTINUOUS
10
125.765
20
-92.5525
11
125.79
21
-92.557
0
LINE
8
BLACK
6
CONTINUOUS
10
125.79
20
-92.557
11
125.83
21
-92.59
0
LINE
8
BLACK
6
CONTINUOUS
10
125.83
20
-92.59
11
125.839
21
-92.6405
0
LINE
8
BLACK
6
CONTINUOUS
10
125.839
20
-92.6405
11
125.813
21
-92.685
0
LINE
8
BLACK
6
CONTINUOUS
10
125.813
20
-92.685
11
125.765
21
-92.7025
0
LINE
8
BLACK
6
CONTINUOUS
10
125.765
20
-92.7025
11
125.241
21
-92.7025
0
LINE
8
BLACK
6
CONTINUOUS
10
125.241
20
-92.7025
11
125.215
21
-92.698
0
LINE
8
BLACK
6
CONTINUOUS
10
125.215
20
-92.698
11
125.212
21
-92.6951
0
LINE
8
BLACK
6
CONTINUOUS
10
125.212
20
-92.6951
11
125.207
21
-92.6946
0
LINE
8
BLACK
6
CONTINUOUS
10
125.207
20
-92.6946
11
125.112
21
-92.647
0
LINE
8
BLACK
6
CONTINUOUS
10
125.112
20
-92.647
11
125.091
21
-92.6315
0
LINE
8
BLACK
6
CONTINUOUS
10
125.091
20
-92.6315
11
125.087
21
-92.6211
0
LINE
8
BLACK
6
CONTINUOUS
10
125.087
20
-92.6211
11
125.079
21
-92.6134
0
LINE
8
BLACK
6
CONTINUOUS
10
125.079
20
-92.6134
11
125.031
21
-92.5182
0
LINE
8
BLACK
6
CONTINUOUS
10
125.031
20
-92.5182
11
125.024
21
-92.4932
0
LINE
8
BLACK
6
CONTINUOUS
10
125.024
20
-92.4932
11
125.025
21
-92.4889
0
LINE
8
BLACK
6
CONTINUOUS
10
125.025
20
-92.4889
11
125.023
21
-92.4846
0
LINE
8
BLACK
6
CONTINUOUS
10
125.023
20
-92.4846
11
125.023
21
-92.3418
0
LINE
8
BLACK
6
CONTINUOUS
10
125.023
20
-92.3418
11
125.028
21
-92.3161
0
LINE
8
BLACK
6
CONTINUOUS
10
125.028
20
-92.3161
11
125.031
21
-92.3127
0
LINE
8
BLACK
6
CONTINUOUS
10
125.031
20
-92.3127
11
125.031
21
-92.3083
0
LINE
8
BLACK
6
CONTINUOUS
10
125.031
20
-92.3083
11
125.057
21
-92.2564
0
LINE
8
BLACK
6
CONTINUOUS
10
125.057
20
-92.2564
11
125.033
21
-92.2364
0
LINE
8
BLACK
6
CONTINUOUS
10
125.033
20
-92.2364
11
125.024
21
-92.1859
0
LINE
8
BLACK
6
CONTINUOUS
10
125.024
20
-92.1859
11
125.05
21
-92.1415
0
LINE
8
BLACK
6
CONTINUOUS
10
125.05
20
-92.1415
11
125.098
21
-92.1239
0
LINE
8
BLACK
6
CONTINUOUS
10
125.098
20
-92.1239
11
125.765
21
-92.1239
0
LINE
8
BLACK
6
CONTINUOUS
10
125.765
20
-92.1239
11
125.79
21
-92.1285
0
LINE
8
BLACK
6
CONTINUOUS
10
125.822
20
-91.4364
11
125.84
21
-91.4846
0
LINE
8
BLACK
6
CONTINUOUS
10
125.84
20
-91.4846
11
125.84
21
-91.6477
0
LINE
8
BLACK
6
CONTINUOUS
10
125.84
20
-91.6477
11
126.098
21
-91.6477
0
LINE
8
BLACK
6
CONTINUOUS
10
126.098
20
-91.6477
11
126.124
21
-91.6523
0
LINE
8
BLACK
6
CONTINUOUS
10
126.124
20
-91.6523
11
126.163
21
-91.6852
0
LINE
8
BLACK
6
CONTINUOUS
10
126.163
20
-91.6852
11
126.172
21
-91.7358
0
LINE
8
BLACK
6
CONTINUOUS
10
126.172
20
-91.7358
11
126.146
21
-91.7802
0
LINE
8
BLACK
6
CONTINUOUS
10
126.146
20
-91.7802
11
126.098
21
-91.7977
0
LINE
8
BLACK
6
CONTINUOUS
10
126.098
20
-91.7977
11
125.84
21
-91.7977
0
LINE
8
BLACK
6
CONTINUOUS
10
125.84
20
-91.7977
11
125.84
21
-91.8656
0
LINE
8
BLACK
6
CONTINUOUS
10
125.84
20
-91.8656
11
125.835
21
-91.8913
0
LINE
8
BLACK
6
CONTINUOUS
10
125.835
20
-91.8913
11
125.802
21
-91.9306
0
LINE
8
BLACK
6
CONTINUOUS
10
125.802
20
-91.9306
11
125.752
21
-91.9395
0
LINE
8
BLACK
6
CONTINUOUS
10
125.752
20
-91.9395
11
125.707
21
-91.9138
0
LINE
8
BLACK
6
CONTINUOUS
10
125.707
20
-91.9138
11
125.69
21
-91.8656
0
LINE
8
BLACK
6
CONTINUOUS
10
125.69
20
-91.8656
11
125.69
21
-91.7977
0
LINE
8
BLACK
6
CONTINUOUS
10
125.69
20
-91.7977
11
125.241
21
-91.7977
0
LINE
8
BLACK
6
CONTINUOUS
10
125.241
20
-91.7977
11
125.215
21
-91.7932
0
LINE
8
BLACK
6
CONTINUOUS
10
125.215
20
-91.7932
11
125.212
21
-91.7903
0
LINE
8
BLACK
6
CONTINUOUS
10
125.212
20
-91.7903
11
125.207
21
-91.7898
0
LINE
8
BLACK
6
CONTINUOUS
10
125.207
20
-91.7898
11
125.112
21
-91.7422
0
LINE
8
BLACK
6
CONTINUOUS
10
125.112
20
-91.7422
11
125.091
21
-91.7267
0
LINE
8
BLACK
6
CONTINUOUS
10
125.091
20
-91.7267
11
125.087
21
-91.7164
0
LINE
8
BLACK
6
CONTINUOUS
10
125.087
20
-91.7164
11
125.079
21
-91.7087
0
LINE
8
BLACK
6
CONTINUOUS
10
125.079
20
-91.7087
11
125.031
21
-91.6134
0
LINE
8
BLACK
6
CONTINUOUS
10
125.031
20
-91.6134
11
125.024
21
-91.5885
0
LINE
8
BLACK
6
CONTINUOUS
10
125.024
20
-91.5885
11
125.025
21
-91.5841
0
LINE
8
BLACK
6
CONTINUOUS
10
125.025
20
-91.5841
11
125.023
21
-91.5799
0
LINE
8
BLACK
6
CONTINUOUS
10
125.023
20
-91.5799
11
125.023
21
-91.4846
0
LINE
8
BLACK
6
CONTINUOUS
10
125.023
20
-91.4846
11
125.028
21
-91.459
0
LINE
8
BLACK
6
CONTINUOUS
10
125.028
20
-91.459
11
125.061
21
-91.4197
0
LINE
8
BLACK
6
CONTINUOUS
10
125.061
20
-91.4197
11
125.111
21
-91.4108
0
LINE
8
BLACK
6
CONTINUOUS
10
125.111
20
-91.4108
11
125.156
21
-91.4364
0
LINE
8
BLACK
6
CONTINUOUS
10
125.156
20
-91.4364
11
125.173
21
-91.4846
0
LINE
8
BLACK
6
CONTINUOUS
10
125.173
20
-91.4846
11
125.173
21
-91.5622
0
LINE
8
BLACK
6
CONTINUOUS
10
125.173
20
-91.5622
11
125.202
21
-91.6192
0
LINE
8
BLACK
6
CONTINUOUS
10
125.202
20
-91.6192
11
125.259
21
-91.6477
0
LINE
8
BLACK
6
CONTINUOUS
10
125.259
20
-91.6477
11
125.69
21
-91.6477
0
LINE
8
BLACK
6
CONTINUOUS
10
125.69
20
-91.6477
11
125.69
21
-91.4846
0
LINE
8
BLACK
6
CONTINUOUS
10
125.69
20
-91.4846
11
125.694
21
-91.459
0
LINE
8
BLACK
6
CONTINUOUS
10
125.694
20
-91.459
11
125.727
21
-91.4197
0
LINE
8
BLACK
6
CONTINUOUS
10
125.727
20
-91.4197
11
125.778
21
-91.4108
0
LINE
8
BLACK
6
CONTINUOUS
10
125.778
20
-91.4108
11
125.822
21
-91.4364
0
LINE
8
BLACK
6
CONTINUOUS
10
125.158
20
-91.0318
11
125.165
21
-91.0313
0
LINE
8
BLACK
6
CONTINUOUS
10
125.165
20
-91.0313
11
125.181
21
-91.0424
0
LINE
8
BLACK
6
CONTINUOUS
10
125.181
20
-91.0424
11
125.199
21
-91.0507
0
LINE
8
BLACK
6
CONTINUOUS
10
125.199
20
-91.0507
11
125.246
21
-91.0983
0
LINE
8
BLACK
6
CONTINUOUS
10
125.246
20
-91.0983
11
125.252
21
-91.1064
0
LINE
8
BLACK
6
CONTINUOUS
10
125.252
20
-91.1064
11
125.255
21
-91.1083
0
LINE
8
BLACK
6
CONTINUOUS
10
125.255
20
-91.1083
11
125.256
21
-91.1115
0
LINE
8
BLACK
6
CONTINUOUS
10
125.256
20
-91.1115
11
125.256
21
-91.1117
0
LINE
8
BLACK
6
CONTINUOUS
10
125.256
20
-91.1117
11
125.258
21
-91.1138
0
LINE
8
BLACK
6
CONTINUOUS
10
125.258
20
-91.1138
11
125.259
21
-91.1158
0
LINE
8
BLACK
6
CONTINUOUS
10
125.259
20
-91.1158
11
125.261
21
-91.1196
0
LINE
8
BLACK
6
CONTINUOUS
10
125.261
20
-91.1196
11
125.263
21
-91.139
0
LINE
8
BLACK
6
CONTINUOUS
10
125.263
20
-91.139
11
125.268
21
-91.1579
0
LINE
8
BLACK
6
CONTINUOUS
10
125.268
20
-91.1579
11
125.267
21
-91.161
0
LINE
8
BLACK
6
CONTINUOUS
10
125.267
20
-91.161
11
125.267
21
-91.1643
0
LINE
8
BLACK
6
CONTINUOUS
10
125.267
20
-91.1643
11
125.266
21
-91.1673
0
LINE
8
BLACK
6
CONTINUOUS
10
125.266
20
-91.1673
11
125.266
21
-91.1707
0
LINE
8
BLACK
6
CONTINUOUS
10
125.266
20
-91.1707
11
125.255
21
-91.1867
0
LINE
8
BLACK
6
CONTINUOUS
10
125.255
20
-91.1867
11
125.246
21
-91.2043
0
LINE
8
BLACK
6
CONTINUOUS
10
125.246
20
-91.2043
11
125.199
21
-91.252
0
LINE
8
BLACK
6
CONTINUOUS
10
125.199
20
-91.252
11
125.191
21
-91.2576
0
LINE
8
BLACK
6
CONTINUOUS
10
125.191
20
-91.2576
11
125.189
21
-91.2604
0
LINE
8
BLACK
6
CONTINUOUS
10
125.189
20
-91.2604
11
125.186
21
-91.2612
0
LINE
8
BLACK
6
CONTINUOUS
10
125.186
20
-91.2612
11
125.177
21
-91.2669
0
LINE
8
BLACK
6
CONTINUOUS
10
125.177
20
-91.2669
11
125.158
21
-91.2686
0
LINE
8
BLACK
6
CONTINUOUS
10
125.158
20
-91.2686
11
125.139
21
-91.2736
0
LINE
8
BLACK
6
CONTINUOUS
10
125.139
20
-91.2736
11
125.133
21
-91.2708
0
LINE
8
BLACK
6
CONTINUOUS
10
125.133
20
-91.2708
11
125.126
21
-91.2714
0
LINE
8
BLACK
6
CONTINUOUS
10
125.126
20
-91.2714
11
125.11
21
-91.2602
0
LINE
8
BLACK
6
CONTINUOUS
10
125.11
20
-91.2602
11
125.093
21
-91.252
0
LINE
8
BLACK
6
CONTINUOUS
10
125.093
20
-91.252
11
125.045
21
-91.2043
0
LINE
8
BLACK
6
CONTINUOUS
10
125.045
20
-91.2043
11
125.039
21
-91.1962
0
LINE
8
BLACK
6
CONTINUOUS
10
125.039
20
-91.1962
11
125.037
21
-91.1943
0
LINE
8
BLACK
6
CONTINUOUS
10
125.037
20
-91.1943
11
125.036
21
-91.1911
0
LINE
8
BLACK
6
CONTINUOUS
10
125.036
20
-91.1911
11
125.036
21
-91.1909
0
LINE
8
BLACK
6
CONTINUOUS
10
125.036
20
-91.1909
11
125.033
21
-91.1888
0
LINE
8
BLACK
6
CONTINUOUS
10
125.033
20
-91.1888
11
125.033
21
-91.1868
0
LINE
8
BLACK
6
CONTINUOUS
10
125.033
20
-91.1868
11
125.03
21
-91.183
0
LINE
8
BLACK
6
CONTINUOUS
10
125.03
20
-91.183
11
125.029
21
-91.1636
0
LINE
8
BLACK
6
CONTINUOUS
10
125.029
20
-91.1636
11
125.023
21
-91.1448
0
LINE
8
BLACK
6
CONTINUOUS
10
125.023
20
-91.1448
11
125.025
21
-91.1417
0
LINE
8
BLACK
6
CONTINUOUS
10
125.025
20
-91.1417
11
125.024
21
-91.1383
0
LINE
8
BLACK
6
CONTINUOUS
10
125.024
20
-91.1383
11
125.026
21
-91.1353
0
LINE
8
BLACK
6
CONTINUOUS
10
125.026
20
-91.1353
11
125.026
21
-91.1319
0
LINE
8
BLACK
6
CONTINUOUS
10
125.026
20
-91.1319
11
125.037
21
-91.1159
0
LINE
8
BLACK
6
CONTINUOUS
10
125.037
20
-91.1159
11
125.045
21
-91.0983
0
LINE
8
BLACK
6
CONTINUOUS
10
125.045
20
-91.0983
11
125.093
21
-91.0507
0
LINE
8
BLACK
6
CONTINUOUS
10
125.093
20
-91.0507
11
125.101
21
-91.045
0
LINE
8
BLACK
6
CONTINUOUS
10
125.101
20
-91.045
11
125.103
21
-91.0423
0
LINE
8
BLACK
6
CONTINUOUS
10
125.103
20
-91.0423
11
125.106
21
-91.0414
0
LINE
8
BLACK
6
CONTINUOUS
10
125.106
20
-91.0414
11
125.114
21
-91.0357
0
LINE
8
BLACK
6
CONTINUOUS
10
125.114
20
-91.0357
11
125.134
21
-91.034
0
LINE
8
BLACK
6
CONTINUOUS
10
125.134
20
-91.034
11
125.152
21
-91.029
0
LINE
8
BLACK
6
CONTINUOUS
10
125.152
20
-91.029
11
125.158
21
-91.0318
0
LINE
8
BLACK
6
CONTINUOUS
10
125.682
20
-91.0318
11
125.689
21
-91.0313
0
LINE
8
BLACK
6
CONTINUOUS
10
125.689
20
-91.0313
11
125.705
21
-91.0424
0
LINE
8
BLACK
6
CONTINUOUS
10
125.705
20
-91.0424
11
125.723
21
-91.0507
0
LINE
8
BLACK
6
CONTINUOUS
10
125.723
20
-91.0507
11
125.77
21
-91.0983
0
LINE
8
BLACK
6
CONTINUOUS
10
125.77
20
-91.0983
11
125.776
21
-91.1064
0
LINE
8
BLACK
6
CONTINUOUS
10
125.776
20
-91.1064
11
125.779
21
-91.1083
0
LINE
8
BLACK
6
CONTINUOUS
10
125.779
20
-91.1083
11
125.78
21
-91.1115
0
LINE
8
BLACK
6
CONTINUOUS
10
125.78
20
-91.1115
11
125.78
21
-91.1117
0
LINE
8
BLACK
6
CONTINUOUS
10
125.78
20
-91.1117
11
125.782
21
-91.1138
0
LINE
8
BLACK
6
CONTINUOUS
10
125.782
20
-91.1138
11
125.783
21
-91.1158
0
LINE
8
BLACK
6
CONTINUOUS
10
125.783
20
-91.1158
11
125.785
21
-91.1196
0
LINE
8
BLACK
6
CONTINUOUS
10
125.785
20
-91.1196
11
125.787
21
-91.139
0
LINE
8
BLACK
6
CONTINUOUS
10
125.787
20
-91.139
11
125.792
21
-91.1579
0
LINE
8
BLACK
6
CONTINUOUS
10
125.792
20
-91.1579
11
125.79
21
-91.161
0
LINE
8
BLACK
6
CONTINUOUS
10
125.79
20
-91.161
11
125.791
21
-91.1643
0
LINE
8
BLACK
6
CONTINUOUS
10
125.791
20
-91.1643
11
125.789
21
-91.1673
0
LINE
8
BLACK
6
CONTINUOUS
10
125.789
20
-91.1673
11
125.79
21
-91.1707
0
LINE
8
BLACK
6
CONTINUOUS
10
125.79
20
-91.1707
11
125.778
21
-91.1867
0
LINE
8
BLACK
6
CONTINUOUS
10
125.778
20
-91.1867
11
125.77
21
-91.2043
0
LINE
8
BLACK
6
CONTINUOUS
10
125.77
20
-91.2043
11
125.723
21
-91.252
0
LINE
8
BLACK
6
CONTINUOUS
10
125.723
20
-91.252
11
125.715
21
-91.2576
0
LINE
8
BLACK
6
CONTINUOUS
10
125.715
20
-91.2576
11
125.713
21
-91.2604
0
LINE
8
BLACK
6
CONTINUOUS
10
125.713
20
-91.2604
11
125.709
21
-91.2612
0
LINE
8
BLACK
6
CONTINUOUS
10
125.709
20
-91.2612
11
125.701
21
-91.2669
0
LINE
8
BLACK
6
CONTINUOUS
10
125.701
20
-91.2669
11
125.682
21
-91.2686
0
LINE
8
BLACK
6
CONTINUOUS
10
125.682
20
-91.2686
11
125.663
21
-91.2736
0
LINE
8
BLACK
6
CONTINUOUS
10
125.663
20
-91.2736
11
125.657
21
-91.2708
0
LINE
8
BLACK
6
CONTINUOUS
10
125.657
20
-91.2708
11
125.65
21
-91.2714
0
LINE
8
BLACK
6
CONTINUOUS
10
125.65
20
-91.2714
11
125.634
21
-91.2602
0
LINE
8
BLACK
6
CONTINUOUS
10
125.634
20
-91.2602
11
125.617
21
-91.252
0
LINE
8
BLACK
6
CONTINUOUS
10
125.617
20
-91.252
11
125.569
21
-91.2043
0
LINE
8
BLACK
6
CONTINUOUS
10
125.569
20
-91.2043
11
125.563
21
-91.1962
0
LINE
8
BLACK
6
CONTINUOUS
10
125.563
20
-91.1962
11
125.561
21
-91.1943
0
LINE
8
BLACK
6
CONTINUOUS
10
125.561
20
-91.1943
11
125.56
21
-91.1911
0
LINE
8
BLACK
6
CONTINUOUS
10
125.56
20
-91.1911
11
125.56
21
-91.1909
0
LINE
8
BLACK
6
CONTINUOUS
10
125.56
20
-91.1909
11
125.557
21
-91.1888
0
LINE
8
BLACK
6
CONTINUOUS
10
125.557
20
-91.1888
11
125.557
21
-91.1868
0
LINE
8
BLACK
6
CONTINUOUS
10
125.557
20
-91.1868
11
125.554
21
-91.183
0
LINE
8
BLACK
6
CONTINUOUS
10
125.554
20
-91.183
11
125.552
21
-91.1636
0
LINE
8
BLACK
6
CONTINUOUS
10
125.552
20
-91.1636
11
125.547
21
-91.1448
0
LINE
8
BLACK
6
CONTINUOUS
10
125.547
20
-91.1448
11
125.549
21
-91.1417
0
LINE
8
BLACK
6
CONTINUOUS
10
125.549
20
-91.1417
11
125.548
21
-91.1383
0
LINE
8
BLACK
6
CONTINUOUS
10
125.548
20
-91.1383
11
125.55
21
-91.1353
0
LINE
8
BLACK
6
CONTINUOUS
10
125.55
20
-91.1353
11
125.55
21
-91.1319
0
LINE
8
BLACK
6
CONTINUOUS
10
125.55
20
-91.1319
11
125.561
21
-91.1159
0
LINE
8
BLACK
6
CONTINUOUS
10
125.561
20
-91.1159
11
125.569
21
-91.0983
0
LINE
8
BLACK
6
CONTINUOUS
10
125.569
20
-91.0983
11
125.617
21
-91.0507
0
LINE
8
BLACK
6
CONTINUOUS
10
125.617
20
-91.0507
11
125.625
21
-91.045
0
LINE
8
BLACK
6
CONTINUOUS
10
125.625
20
-91.045
11
125.627
21
-91.0423
0
LINE
8
BLACK
6
CONTINUOUS
10
125.627
20
-91.0423
11
125.63
21
-91.0414
0
LINE
8
BLACK
6
CONTINUOUS
10
125.63
20
-91.0414
11
125.638
21
-91.0357
0
LINE
8
BLACK
6
CONTINUOUS
10
125.638
20
-91.0357
11
125.657
21
-91.034
0
LINE
8
BLACK
6
CONTINUOUS
10
125.657
20
-91.034
11
125.676
21
-91.029
0
LINE
8
BLACK
6
CONTINUOUS
10
125.676
20
-91.029
11
125.682
21
-91.0318
0
LINE
8
BLACK
6
CONTINUOUS
10
125.552
20
-89.3189
11
125.556
21
-89.3218
0
LINE
8
BLACK
6
CONTINUOUS
10
125.556
20
-89.3218
11
125.56
21
-89.3223
0
LINE
8
BLACK
6
CONTINUOUS
10
125.56
20
-89.3223
11
125.656
21
-89.3699
0
LINE
8
BLACK
6
CONTINUOUS
10
125.656
20
-89.3699
11
125.674
21
-89.3833
0
LINE
8
BLACK
6
CONTINUOUS
10
125.674
20
-89.3833
11
125.675
21
-89.384
0
LINE
8
BLACK
6
CONTINUOUS
10
125.675
20
-89.384
11
125.723
21
-89.4316
0
LINE
8
BLACK
6
CONTINUOUS
10
125.723
20
-89.4316
11
125.736
21
-89.45
0
LINE
8
BLACK
6
CONTINUOUS
10
125.736
20
-89.45
11
125.737
21
-89.4511
0
LINE
8
BLACK
6
CONTINUOUS
10
125.737
20
-89.4511
11
125.784
21
-89.5463
0
LINE
8
BLACK
6
CONTINUOUS
10
125.784
20
-89.5463
11
125.789
21
-89.5607
0
LINE
8
BLACK
6
CONTINUOUS
10
125.789
20
-89.5607
11
126.049
21
-89.333
0
LINE
8
BLACK
6
CONTINUOUS
10
126.049
20
-89.333
11
126.058
21
-89.3271
0
LINE
8
BLACK
6
CONTINUOUS
10
126.058
20
-89.3271
11
126.061
21
-89.3245
0
LINE
8
BLACK
6
CONTINUOUS
10
126.061
20
-89.3245
11
126.064
21
-89.3239
0
LINE
8
BLACK
6
CONTINUOUS
10
126.064
20
-89.3239
11
126.071
21
-89.3195
0
LINE
8
BLACK
6
CONTINUOUS
10
126.071
20
-89.3195
11
126.091
21
-89.3191
0
LINE
8
BLACK
6
CONTINUOUS
10
126.091
20
-89.3191
11
126.111
21
-89.3156
0
LINE
8
BLACK
6
CONTINUOUS
10
126.111
20
-89.3156
11
126.116
21
-89.3185
0
LINE
8
BLACK
6
CONTINUOUS
10
126.116
20
-89.3185
11
126.122
21
-89.3184
0
LINE
8
BLACK
6
CONTINUOUS
10
126.122
20
-89.3184
11
126.138
21
-89.3311
0
LINE
8
BLACK
6
CONTINUOUS
10
126.138
20
-89.3311
11
126.156
21
-89.3412
0
LINE
8
BLACK
6
CONTINUOUS
10
126.156
20
-89.3412
11
126.158
21
-89.3468
0
LINE
8
BLACK
6
CONTINUOUS
10
126.158
20
-89.3468
11
126.162
21
-89.3506
0
LINE
8
BLACK
6
CONTINUOUS
10
126.162
20
-89.3506
11
126.166
21
-89.3704
0
LINE
8
BLACK
6
CONTINUOUS
10
126.166
20
-89.3704
11
126.173
21
-89.3894
0
LINE
8
BLACK
6
CONTINUOUS
10
126.173
20
-89.3894
11
126.173
21
-90.0085
0
LINE
8
BLACK
6
CONTINUOUS
10
126.173
20
-90.0085
11
126.169
21
-90.0341
0
LINE
8
BLACK
6
CONTINUOUS
10
126.169
20
-90.0341
11
126.136
21
-90.0734
0
LINE
8
BLACK
6
CONTINUOUS
10
126.136
20
-90.0734
11
126.085
21
-90.0823
0
LINE
8
BLACK
6
CONTINUOUS
10
126.085
20
-90.0823
11
126.041
21
-90.0567
0
LINE
8
BLACK
6
CONTINUOUS
10
126.041
20
-90.0567
11
126.023
21
-90.0085
0
LINE
8
BLACK
6
CONTINUOUS
10
126.023
20
-90.0085
11
126.023
21
-89.5547
0
LINE
8
BLACK
6
CONTINUOUS
10
126.023
20
-89.5547
11
125.767
21
-89.7792
0
LINE
8
BLACK
6
CONTINUOUS
10
125.767
20
-89.7792
11
125.757
21
-89.785
0
LINE
8
BLACK
6
CONTINUOUS
10
125.757
20
-89.785
11
125.755
21
-89.7877
0
LINE
8
BLACK
6
CONTINUOUS
10
125.755
20
-89.7877
11
125.752
21
-89.7882
0
LINE
8
BLACK
6
CONTINUOUS
10
125.752
20
-89.7882
11
125.744
21
-89.7927
0
LINE
8
BLACK
6
CONTINUOUS
10
125.744
20
-89.7927
11
125.724
21
-89.7931
0
LINE
8
BLACK
6
CONTINUOUS
10
125.724
20
-89.7931
11
125.704
21
-89.7966
0
LINE
8
BLACK
6
CONTINUOUS
10
125.704
20
-89.7966
11
125.699
21
-89.7936
0
LINE
8
BLACK
6
CONTINUOUS
10
125.699
20
-89.7936
11
125.693
21
-89.7937
0
LINE
8
BLACK
6
CONTINUOUS
10
125.693
20
-89.7937
11
125.677
21
-89.7811
0
LINE
8
BLACK
6
CONTINUOUS
10
125.677
20
-89.7811
11
125.66
21
-89.771
0
LINE
8
BLACK
6
CONTINUOUS
10
125.66
20
-89.771
11
125.658
21
-89.7653
0
LINE
8
BLACK
6
CONTINUOUS
10
125.658
20
-89.7653
11
125.653
21
-89.7616
0
LINE
8
BLACK
6
CONTINUOUS
10
125.653
20
-89.7616
11
125.649
21
-89.7417
0
LINE
8
BLACK
6
CONTINUOUS
10
125.649
20
-89.7417
11
125.642
21
-89.7227
0
LINE
8
BLACK
6
CONTINUOUS
10
125.642
20
-89.7227
11
125.642
21
-89.5976
0
LINE
8
BLACK
6
CONTINUOUS
10
125.642
20
-89.5976
11
125.608
21
-89.5291
0
LINE
8
BLACK
6
CONTINUOUS
10
125.608
20
-89.5291
11
125.578
21
-89.4987
0
LINE
8
BLACK
6
CONTINUOUS
10
125.578
20
-89.4987
11
125.509
21
-89.4644
0
LINE
8
BLACK
6
CONTINUOUS
10
125.509
20
-89.4644
11
125.306
21
-89.4644
0
LINE
8
BLACK
6
CONTINUOUS
10
125.306
20
-89.4644
11
125.238
21
-89.4987
0
LINE
8
BLACK
6
CONTINUOUS
10
125.238
20
-89.4987
11
125.207
21
-89.5291
0
LINE
8
BLACK
6
CONTINUOUS
10
125.207
20
-89.5291
11
125.173
21
-89.5976
0
LINE
8
BLACK
6
CONTINUOUS
10
125.173
20
-89.5976
11
125.173
21
-89.8479
0
LINE
8
BLACK
6
CONTINUOUS
10
125.173
20
-89.8479
11
125.207
21
-89.9164
0
LINE
8
BLACK
6
CONTINUOUS
10
125.207
20
-89.9164
11
125.246
21
-89.9554
0
LINE
8
BLACK
6
CONTINUOUS
10
125.246
20
-89.9554
11
125.261
21
-89.9768
0
LINE
8
BLACK
6
CONTINUOUS
10
125.261
20
-89.9768
11
125.266
21
-90.0279
0
LINE
8
BLACK
6
CONTINUOUS
10
125.266
20
-90.0279
11
125.236
21
-90.0699
0
LINE
8
BLACK
6
CONTINUOUS
10
125.236
20
-90.0699
11
125.187
21
-90.0832
0
LINE
8
BLACK
6
CONTINUOUS
10
125.187
20
-90.0832
11
125.14
21
-90.0615
0
LINE
8
BLACK
6
CONTINUOUS
10
125.14
20
-90.0615
11
125.093
21
-90.0139
0
LINE
8
BLACK
6
CONTINUOUS
10
125.093
20
-90.0139
11
125.08
21
-89.9955
0
LINE
8
BLACK
6
CONTINUOUS
10
125.08
20
-89.9955
11
125.079
21
-89.9944
0
LINE
8
BLACK
6
CONTINUOUS
10
125.079
20
-89.9944
11
125.031
21
-89.8991
0
LINE
8
BLACK
6
CONTINUOUS
10
125.031
20
-89.8991
11
125.024
21
-89.8742
0
LINE
8
BLACK
6
CONTINUOUS
10
125.024
20
-89.8742
11
125.025
21
-89.8698
0
LINE
8
BLACK
6
CONTINUOUS
10
125.025
20
-89.8698
11
125.023
21
-89.8656
0
LINE
8
BLACK
6
CONTINUOUS
10
125.023
20
-89.8656
11
125.023
21
-89.5799
0
LINE
8
BLACK
6
CONTINUOUS
10
125.023
20
-89.5799
11
125.028
21
-89.5542
0
LINE
8
BLACK
6
CONTINUOUS
10
125.028
20
-89.5542
11
125.031
21
-89.5508
0
LINE
8
BLACK
6
CONTINUOUS
10
125.031
20
-89.5508
11
125.031
21
-89.5463
0
LINE
8
BLACK
6
CONTINUOUS
10
125.031
20
-89.5463
11
125.079
21
-89.4511
0
LINE
8
BLACK
6
CONTINUOUS
10
125.079
20
-89.4511
11
125.092
21
-89.4331
0
LINE
8
BLACK
6
CONTINUOUS
10
125.092
20
-89.4331
11
125.093
21
-89.4316
0
LINE
8
BLACK
6
CONTINUOUS
10
125.093
20
-89.4316
11
125.14
21
-89.384
0
LINE
8
BLACK
6
CONTINUOUS
10
125.14
20
-89.384
11
125.159
21
-89.3711
0
LINE
8
BLACK
6
CONTINUOUS
10
125.159
20
-89.3711
11
125.16
21
-89.3699
0
LINE
8
BLACK
6
CONTINUOUS
10
125.16
20
-89.3699
11
125.255
21
-89.3223
0
LINE
8
BLACK
6
CONTINUOUS
10
125.255
20
-89.3223
11
125.28
21
-89.3149
0
LINE
8
BLACK
6
CONTINUOUS
10
125.28
20
-89.3149
11
125.284
21
-89.3159
0
LINE
8
BLACK
6
CONTINUOUS
10
125.284
20
-89.3159
11
125.289
21
-89.3144
0
LINE
8
BLACK
6
CONTINUOUS
10
125.289
20
-89.3144
11
125.527
21
-89.3144
0
LINE
8
BLACK
6
CONTINUOUS
10
125.527
20
-89.3144
11
125.552
21
-89.3189
0
LINE
8
BLACK
6
CONTINUOUS
10
125.158
20
-88.8414
11
125.165
21
-88.8408
0
LINE
8
BLACK
6
CONTINUOUS
10
125.165
20
-88.8408
11
125.181
21
-88.852
0
LINE
8
BLACK
6
CONTINUOUS
10
125.181
20
-88.852
11
125.199
21
-88.8602
0
LINE
8
BLACK
6
CONTINUOUS
10
125.199
20
-88.8602
11
125.246
21
-88.9078
0
LINE
8
BLACK
6
CONTINUOUS
10
125.246
20
-88.9078
11
125.252
21
-88.9159
0
LINE
8
BLACK
6
CONTINUOUS
10
125.252
20
-88.9159
11
125.255
21
-88.9178
0
LINE
8
BLACK
6
CONTINUOUS
10
125.255
20
-88.9178
11
125.256
21
-88.921
0
LINE
8
BLACK
6
CONTINUOUS
10
125.256
20
-88.921
11
125.256
21
-88.9212
0
LINE
8
BLACK
6
CONTINUOUS
10
125.256
20
-88.9212
11
125.258
21
-88.9233
0
LINE
8
BLACK
6
CONTINUOUS
10
125.258
20
-88.9233
11
125.259
21
-88.9253
0
LINE
8
BLACK
6
CONTINUOUS
10
125.259
20
-88.9253
11
125.261
21
-88.9291
0
LINE
8
BLACK
6
CONTINUOUS
10
125.261
20
-88.9291
11
125.263
21
-88.9486
0
LINE
8
BLACK
6
CONTINUOUS
10
125.263
20
-88.9486
11
125.268
21
-88.9674
0
LINE
8
BLACK
6
CONTINUOUS
10
125.268
20
-88.9674
11
125.267
21
-88.9705
0
LINE
8
BLACK
6
CONTINUOUS
10
125.267
20
-88.9705
11
125.267
21
-88.9739
0
LINE
8
BLACK
6
CONTINUOUS
10
125.267
20
-88.9739
11
125.266
21
-88.9768
0
LINE
8
BLACK
6
CONTINUOUS
10
125.266
20
-88.9768
11
125.266
21
-88.9802
0
LINE
8
BLACK
6
CONTINUOUS
10
125.266
20
-88.9802
11
125.255
21
-88.9962
0
LINE
8
BLACK
6
CONTINUOUS
10
125.255
20
-88.9962
11
125.246
21
-89.0139
0
LINE
8
BLACK
6
CONTINUOUS
10
125.246
20
-89.0139
11
125.199
21
-89.0615
0
LINE
8
BLACK
6
CONTINUOUS
10
125.199
20
-89.0615
11
125.191
21
-89.0672
0
LINE
8
BLACK
6
CONTINUOUS
10
125.191
20
-89.0672
11
125.189
21
-89.0699
0
LINE
8
BLACK
6
CONTINUOUS
10
125.189
20
-89.0699
11
125.186
21
-89.0708
0
LINE
8
BLACK
6
CONTINUOUS
10
125.186
20
-89.0708
11
125.177
21
-89.0764
0
LINE
8
BLACK
6
CONTINUOUS
10
125.177
20
-89.0764
11
125.158
21
-89.0781
0
LINE
8
BLACK
6
CONTINUOUS
10
125.158
20
-89.0781
11
125.139
21
-89.0832
0
LINE
8
BLACK
6
CONTINUOUS
10
125.139
20
-89.0832
11
125.133
21
-89.0803
0
LINE
8
BLACK
6
CONTINUOUS
10
125.133
20
-89.0803
11
125.126
21
-89.0809
0
LINE
8
BLACK
6
CONTINUOUS
10
125.126
20
-89.0809
11
125.11
21
-89.0697
0
LINE
8
BLACK
6
CONTINUOUS
10
125.11
20
-89.0697
11
125.093
21
-89.0615
0
LINE
8
BLACK
6
CONTINUOUS
10
125.093
20
-89.0615
11
125.045
21
-89.0139
0
LINE
8
BLACK
6
CONTINUOUS
10
125.045
20
-89.0139
11
125.039
21
-89.0058
0
LINE
8
BLACK
6
CONTINUOUS
10
125.039
20
-89.0058
11
125.037
21
-89.0039
0
LINE
8
BLACK
6
CONTINUOUS
10
125.037
20
-89.0039
11
125.036
21
-89.0006
0
LINE
8
BLACK
6
CONTINUOUS
10
125.036
20
-89.0006
11
125.036
21
-89.0005
0
LINE
8
BLACK
6
CONTINUOUS
10
125.036
20
-89.0005
11
125.033
21
-88.9983
0
LINE
8
BLACK
6
CONTINUOUS
10
125.033
20
-88.9983
11
125.033
21
-88.9963
0
LINE
8
BLACK
6
CONTINUOUS
10
125.033
20
-88.9963
11
125.03
21
-88.9925
0
LINE
8
BLACK
6
CONTINUOUS
10
125.03
20
-88.9925
11
125.029
21
-88.9731
0
LINE
8
BLACK
6
CONTINUOUS
10
125.029
20
-88.9731
11
125.023
21
-88.9543
0
LINE
8
BLACK
6
CONTINUOUS
10
125.023
20
-88.9543
11
125.025
21
-88.9512
0
LINE
8
BLACK
6
CONTINUOUS
10
125.025
20
-88.9512
11
125.024
21
-88.9478
0
LINE
8
BLACK
6
CONTINUOUS
10
125.024
20
-88.9478
11
125.026
21
-88.9448
0
LINE
8
BLACK
6
CONTINUOUS
10
125.026
20
-88.9448
11
125.026
21
-88.9414
0
LINE
8
BLACK
6
CONTINUOUS
10
125.026
20
-88.9414
11
125.037
21
-88.9255
0
LINE
8
BLACK
6
CONTINUOUS
10
125.037
20
-88.9255
11
125.045
21
-88.9078
0
LINE
8
BLACK
6
CONTINUOUS
10
125.045
20
-88.9078
11
125.093
21
-88.8602
0
LINE
8
BLACK
6
CONTINUOUS
10
125.093
20
-88.8602
11
125.101
21
-88.8545
0
LINE
8
BLACK
6
CONTINUOUS
10
125.101
20
-88.8545
11
125.103
21
-88.8518
0
LINE
8
BLACK
6
CONTINUOUS
10
125.103
20
-88.8518
11
125.106
21
-88.8509
0
LINE
8
BLACK
6
CONTINUOUS
10
125.106
20
-88.8509
11
125.114
21
-88.8452
0
LINE
8
BLACK
6
CONTINUOUS
10
125.114
20
-88.8452
11
125.134
21
-88.8435
0
LINE
8
BLACK
6
CONTINUOUS
10
125.134
20
-88.8435
11
125.152
21
-88.8385
0
LINE
8
BLACK
6
CONTINUOUS
10
125.152
20
-88.8385
11
125.158
21
-88.8414
0
LINE
8
BLACK
6
CONTINUOUS
10
125.552
20
-87.8904
11
125.556
21
-87.8932
0
LINE
8
BLACK
6
CONTINUOUS
10
125.556
20
-87.8932
11
125.56
21
-87.8938
0
LINE
8
BLACK
6
CONTINUOUS
10
125.56
20
-87.8938
11
125.656
21
-87.9414
0
LINE
8
BLACK
6
CONTINUOUS
10
125.656
20
-87.9414
11
125.674
21
-87.9547
0
LINE
8
BLACK
6
CONTINUOUS
10
125.674
20
-87.9547
11
125.675
21
-87.9554
0
LINE
8
BLACK
6
CONTINUOUS
10
125.675
20
-87.9554
11
125.723
21
-88.003
0
LINE
8
BLACK
6
CONTINUOUS
10
125.723
20
-88.003
11
125.736
21
-88.0214
0
LINE
8
BLACK
6
CONTINUOUS
10
125.736
20
-88.0214
11
125.737
21
-88.0225
0
LINE
8
BLACK
6
CONTINUOUS
10
125.737
20
-88.0225
11
125.784
21
-88.1178
0
LINE
8
BLACK
6
CONTINUOUS
10
125.784
20
-88.1178
11
125.792
21
-88.1427
0
LINE
8
BLACK
6
CONTINUOUS
10
125.792
20
-88.1427
11
125.791
21
-88.1471
0
LINE
8
BLACK
6
CONTINUOUS
10
125.791
20
-88.1471
11
125.792
21
-88.1513
0
LINE
8
BLACK
6
CONTINUOUS
10
125.792
20
-88.1513
11
125.792
21
-88.3894
0
LINE
8
BLACK
6
CONTINUOUS
10
125.792
20
-88.3894
11
125.788
21
-88.4151
0
LINE
8
BLACK
6
CONTINUOUS
10
125.788
20
-88.4151
11
125.785
21
-88.4185
0
LINE
8
BLACK
6
CONTINUOUS
10
125.785
20
-88.4185
11
125.784
21
-88.423
0
LINE
8
BLACK
6
CONTINUOUS
10
125.784
20
-88.423
11
125.775
21
-88.4416
0
LINE
8
BLACK
6
CONTINUOUS
10
125.775
20
-88.4416
11
126.023
21
-88.4168
0
LINE
8
BLACK
6
CONTINUOUS
10
126.023
20
-88.4168
11
126.023
21
-88.0085
0
LINE
8
BLACK
6
CONTINUOUS
10
126.023
20
-88.0085
11
126.028
21
-87.9828
0
LINE
8
BLACK
6
CONTINUOUS
10
126.028
20
-87.9828
11
126.061
21
-87.9435
0
LINE
8
BLACK
6
CONTINUOUS
10
126.061
20
-87.9435
11
126.111
21
-87.9346
0
LINE
8
BLACK
6
CONTINUOUS
10
126.111
20
-87.9346
11
126.156
21
-87.9603
0
LINE
8
BLACK
6
CONTINUOUS
10
126.156
20
-87.9603
11
126.173
21
-88.0085
0
LINE
8
BLACK
6
CONTINUOUS
10
126.173
20
-88.0085
11
126.173
21
-88.4846
0
LINE
8
BLACK
6
CONTINUOUS
10
126.173
20
-88.4846
11
126.172
21
-88.4886
0
LINE
8
BLACK
6
CONTINUOUS
10
126.172
20
-88.4886
11
126.173
21
-88.4903
0
LINE
8
BLACK
6
CONTINUOUS
10
126.173
20
-88.4903
11
126.172
21
-88.4931
0
LINE
8
BLACK
6
CONTINUOUS
10
126.172
20
-88.4931
11
126.169
21
-88.5103
0
LINE
8
BLACK
6
CONTINUOUS
10
126.169
20
-88.5103
11
126.158
21
-88.5225
0
LINE
8
BLACK
6
CONTINUOUS
10
126.158
20
-88.5225
11
126.152
21
-88.537
0
LINE
8
BLACK
6
CONTINUOUS
10
126.152
20
-88.537
11
126.142
21
-88.5416
0
LINE
8
BLACK
6
CONTINUOUS
10
126.142
20
-88.5416
11
126.136
21
-88.5496
0
LINE
8
BLACK
6
CONTINUOUS
10
126.136
20
-88.5496
11
126.12
21
-88.5524
0
LINE
8
BLACK
6
CONTINUOUS
10
126.12
20
-88.5524
11
126.106
21
-88.5593
0
LINE
8
BLACK
6
CONTINUOUS
10
126.106
20
-88.5593
11
125.629
21
-88.6069
0
LINE
8
BLACK
6
CONTINUOUS
10
125.629
20
-88.6069
11
125.603
21
-88.6049
0
LINE
8
BLACK
6
CONTINUOUS
10
125.603
20
-88.6049
11
125.603
21
-88.6047
0
LINE
8
BLACK
6
CONTINUOUS
10
125.603
20
-88.6047
11
125.603
21
-88.6047
0
LINE
8
BLACK
6
CONTINUOUS
10
125.603
20
-88.6047
11
125.582
21
-88.5903
0
LINE
8
BLACK
6
CONTINUOUS
10
125.582
20
-88.5903
11
125.561
21
-88.576
0
LINE
8
BLACK
6
CONTINUOUS
10
125.561
20
-88.576
11
125.561
21
-88.5756
0
LINE
8
BLACK
6
CONTINUOUS
10
125.561
20
-88.5756
11
125.561
21
-88.5753
0
LINE
8
BLACK
6
CONTINUOUS
10
125.561
20
-88.5753
11
125.554
21
-88.5509
0
LINE
8
BLACK
6
CONTINUOUS
10
125.554
20
-88.5509
11
125.547
21
-88.5267
0
LINE
8
BLACK
6
CONTINUOUS
10
125.547
20
-88.5267
11
125.547
21
-88.5262
0
LINE
8
BLACK
6
CONTINUOUS
10
125.547
20
-88.5262
11
125.547
21
-88.5257
0
LINE
8
BLACK
6
CONTINUOUS
10
125.547
20
-88.5257
11
125.558
21
-88.5029
0
LINE
8
BLACK
6
CONTINUOUS
10
125.558
20
-88.5029
11
125.568
21
-88.4799
0
LINE
8
BLACK
6
CONTINUOUS
10
125.568
20
-88.4799
11
125.569
21
-88.4797
0
LINE
8
BLACK
6
CONTINUOUS
10
125.569
20
-88.4797
11
125.569
21
-88.4792
0
LINE
8
BLACK
6
CONTINUOUS
10
125.569
20
-88.4792
11
125.608
21
-88.4402
0
LINE
8
BLACK
6
CONTINUOUS
10
125.608
20
-88.4402
11
125.642
21
-88.3717
0
LINE
8
BLACK
6
CONTINUOUS
10
125.642
20
-88.3717
11
125.642
21
-88.169
0
LINE
8
BLACK
6
CONTINUOUS
10
125.642
20
-88.169
11
125.608
21
-88.1005
0
LINE
8
BLACK
6
CONTINUOUS
10
125.608
20
-88.1005
11
125.578
21
-88.0701
0
LINE
8
BLACK
6
CONTINUOUS
10
125.578
20
-88.0701
11
125.509
21
-88.0358
0
LINE
8
BLACK
6
CONTINUOUS
10
125.509
20
-88.0358
11
125.306
21
-88.0358
0
LINE
8
BLACK
6
CONTINUOUS
10
125.306
20
-88.0358
11
125.238
21
-88.0701
0
LINE
8
BLACK
6
CONTINUOUS
10
125.238
20
-88.0701
11
125.207
21
-88.1005
0
LINE
8
BLACK
6
CONTINUOUS
10
125.207
20
-88.1005
11
125.173
21
-88.169
0
LINE
8
BLACK
6
CONTINUOUS
10
125.173
20
-88.169
11
125.173
21
-88.3717
0
LINE
8
BLACK
6
CONTINUOUS
10
125.173
20
-88.3717
11
125.207
21
-88.4402
0
LINE
8
BLACK
6
CONTINUOUS
10
125.207
20
-88.4402
11
125.246
21
-88.4792
0
LINE
8
BLACK
6
CONTINUOUS
10
125.246
20
-88.4792
11
125.261
21
-88.5006
0
LINE
8
BLACK
6
CONTINUOUS
10
125.261
20
-88.5006
11
125.266
21
-88.5517
0
LINE
8
BLACK
6
CONTINUOUS
10
125.266
20
-88.5517
11
125.236
21
-88.5937
0
LINE
8
BLACK
6
CONTINUOUS
10
125.236
20
-88.5937
11
125.187
21
-88.607
0
LINE
8
BLACK
6
CONTINUOUS
10
125.187
20
-88.607
11
125.14
21
-88.5853
0
LINE
8
BLACK
6
CONTINUOUS
10
125.14
20
-88.5853
11
125.093
21
-88.5377
0
LINE
8
BLACK
6
CONTINUOUS
10
125.093
20
-88.5377
11
125.08
21
-88.5193
0
LINE
8
BLACK
6
CONTINUOUS
10
125.08
20
-88.5193
11
125.079
21
-88.5182
0
LINE
8
BLACK
6
CONTINUOUS
10
125.079
20
-88.5182
11
125.031
21
-88.423
0
LINE
8
BLACK
6
CONTINUOUS
10
125.031
20
-88.423
11
125.024
21
-88.398
0
LINE
8
BLACK
6
CONTINUOUS
10
125.024
20
-88.398
11
125.025
21
-88.3936
0
LINE
8
BLACK
6
CONTINUOUS
10
125.025
20
-88.3936
11
125.023
21
-88.3894
0
LINE
8
BLACK
6
CONTINUOUS
10
125.023
20
-88.3894
11
125.023
21
-88.1513
0
LINE
8
BLACK
6
CONTINUOUS
10
125.023
20
-88.1513
11
125.028
21
-88.1257
0
LINE
8
BLACK
6
CONTINUOUS
10
125.028
20
-88.1257
11
125.031
21
-88.1222
0
LINE
8
BLACK
6
CONTINUOUS
10
125.031
20
-88.1222
11
125.031
21
-88.1178
0
LINE
8
BLACK
6
CONTINUOUS
10
125.031
20
-88.1178
11
125.079
21
-88.0225
0
LINE
8
BLACK
6
CONTINUOUS
10
125.079
20
-88.0225
11
125.092
21
-88.0045
0
LINE
8
BLACK
6
CONTINUOUS
10
125.092
20
-88.0045
11
125.093
21
-88.003
0
LINE
8
BLACK
6
CONTINUOUS
10
125.093
20
-88.003
11
125.14
21
-87.9554
0
LINE
8
BLACK
6
CONTINUOUS
10
125.14
20
-87.9554
11
125.159
21
-87.9426
0
LINE
8
BLACK
6
CONTINUOUS
10
125.159
20
-87.9426
11
125.16
21
-87.9414
0
LINE
8
BLACK
6
CONTINUOUS
10
125.16
20
-87.9414
11
125.255
21
-87.8938
0
LINE
8
BLACK
6
CONTINUOUS
10
125.255
20
-87.8938
11
125.28
21
-87.8863
0
LINE
8
BLACK
6
CONTINUOUS
10
125.28
20
-87.8863
11
125.284
21
-87.8874
0
LINE
8
BLACK
6
CONTINUOUS
10
125.284
20
-87.8874
11
125.289
21
-87.8858
0
LINE
8
BLACK
6
CONTINUOUS
10
125.289
20
-87.8858
11
125.527
21
-87.8858
0
LINE
8
BLACK
6
CONTINUOUS
10
125.527
20
-87.8858
11
125.552
21
-87.8904
0
LINE
8
BLACK
6
CONTINUOUS
10
125.537
20
-86.7222
11
125.554
21
-86.7704
0
LINE
8
BLACK
6
CONTINUOUS
10
125.554
20
-86.7704
11
125.554
21
-87.5323
0
LINE
8
BLACK
6
CONTINUOUS
10
125.554
20
-87.5323
11
125.55
21
-87.5579
0
LINE
8
BLACK
6
CONTINUOUS
10
125.55
20
-87.5579
11
125.517
21
-87.5972
0
LINE
8
BLACK
6
CONTINUOUS
10
125.517
20
-87.5972
11
125.466
21
-87.6061
0
LINE
8
BLACK
6
CONTINUOUS
10
125.466
20
-87.6061
11
125.422
21
-87.5805
0
LINE
8
BLACK
6
CONTINUOUS
10
125.422
20
-87.5805
11
125.404
21
-87.5323
0
LINE
8
BLACK
6
CONTINUOUS
10
125.404
20
-87.5323
11
125.404
21
-86.7704
0
LINE
8
BLACK
6
CONTINUOUS
10
125.404
20
-86.7704
11
125.409
21
-86.7447
0
LINE
8
BLACK
6
CONTINUOUS
10
125.409
20
-86.7447
11
125.442
21
-86.7054
0
LINE
8
BLACK
6
CONTINUOUS
10
125.442
20
-86.7054
11
125.492
21
-86.6965
0
LINE
8
BLACK
6
CONTINUOUS
10
125.492
20
-86.6965
11
125.537
21
-86.7222
0
LINE
8
BLACK
6
CONTINUOUS
10
125.552
20
-85.6999
11
125.556
21
-85.7028
0
LINE
8
BLACK
6
CONTINUOUS
10
125.556
20
-85.7028
11
125.56
21
-85.7033
0
LINE
8
BLACK
6
CONTINUOUS
10
125.56
20
-85.7033
11
125.656
21
-85.7509
0
LINE
8
BLACK
6
CONTINUOUS
10
125.656
20
-85.7509
11
125.674
21
-85.7643
0
LINE
8
BLACK
6
CONTINUOUS
10
125.674
20
-85.7643
11
125.675
21
-85.7649
0
LINE
8
BLACK
6
CONTINUOUS
10
125.675
20
-85.7649
11
125.723
21
-85.8126
0
LINE
8
BLACK
6
CONTINUOUS
10
125.723
20
-85.8126
11
125.736
21
-85.8309
0
LINE
8
BLACK
6
CONTINUOUS
10
125.736
20
-85.8309
11
125.737
21
-85.8321
0
LINE
8
BLACK
6
CONTINUOUS
10
125.737
20
-85.8321
11
125.784
21
-85.9273
0
LINE
8
BLACK
6
CONTINUOUS
10
125.784
20
-85.9273
11
125.789
21
-85.9416
0
LINE
8
BLACK
6
CONTINUOUS
10
125.789
20
-85.9416
11
126.049
21
-85.7139
0
LINE
8
BLACK
6
CONTINUOUS
10
126.049
20
-85.7139
11
126.058
21
-85.7081
0
LINE
8
BLACK
6
CONTINUOUS
10
126.058
20
-85.7081
11
126.061
21
-85.7054
0
LINE
8
BLACK
6
CONTINUOUS
10
126.061
20
-85.7054
11
126.064
21
-85.7049
0
LINE
8
BLACK
6
CONTINUOUS
10
126.064
20
-85.7049
11
126.071
21
-85.7004
0
LINE
8
BLACK
6
CONTINUOUS
10
126.071
20
-85.7004
11
126.091
21
-85.7
0
LINE
8
BLACK
6
CONTINUOUS
10
126.091
20
-85.7
11
126.111
21
-85.6965
0
LINE
8
BLACK
6
CONTINUOUS
10
126.111
20
-85.6965
11
126.116
21
-85.6995
0
LINE
8
BLACK
6
CONTINUOUS
10
126.116
20
-85.6995
11
126.122
21
-85.6994
0
LINE
8
BLACK
6
CONTINUOUS
10
126.122
20
-85.6994
11
126.138
21
-85.712
0
LINE
8
BLACK
6
CONTINUOUS
10
126.138
20
-85.712
11
126.156
21
-85.7222
0
LINE
8
BLACK
6
CONTINUOUS
10
126.156
20
-85.7222
11
126.158
21
-85.7278
0
LINE
8
BLACK
6
CONTINUOUS
10
126.158
20
-85.7278
11
126.162
21
-85.7315
0
LINE
8
BLACK
6
CONTINUOUS
10
126.162
20
-85.7315
11
126.166
21
-85.7514
0
LINE
8
BLACK
6
CONTINUOUS
10
126.166
20
-85.7514
11
126.173
21
-85.7704
0
LINE
8
BLACK
6
CONTINUOUS
10
126.173
20
-85.7704
11
126.173
21
-86.3894
0
LINE
8
BLACK
6
CONTINUOUS
10
126.173
20
-86.3894
11
126.169
21
-86.4151
0
LINE
8
BLACK
6
CONTINUOUS
10
126.169
20
-86.4151
11
126.136
21
-86.4544
0
LINE
8
BLACK
6
CONTINUOUS
10
126.136
20
-86.4544
11
126.085
21
-86.4633
0
LINE
8
BLACK
6
CONTINUOUS
10
126.085
20
-86.4633
11
126.041
21
-86.4376
0
LINE
8
BLACK
6
CONTINUOUS
10
126.041
20
-86.4376
11
126.023
21
-86.3894
0
LINE
8
BLACK
6
CONTINUOUS
10
126.023
20
-86.3894
11
126.023
21
-85.9356
0
LINE
8
BLACK
6
CONTINUOUS
10
126.023
20
-85.9356
11
125.767
21
-86.1601
0
LINE
8
BLACK
6
CONTINUOUS
10
125.767
20
-86.1601
11
125.757
21
-86.166
0
LINE
8
BLACK
6
CONTINUOUS
10
125.757
20
-86.166
11
125.755
21
-86.1686
0
LINE
8
BLACK
6
CONTINUOUS
10
125.755
20
-86.1686
11
125.752
21
-86.1692
0
LINE
8
BLACK
6
CONTINUOUS
10
125.752
20
-86.1692
11
125.744
21
-86.1736
0
LINE
8
BLACK
6
CONTINUOUS
10
125.744
20
-86.1736
11
125.724
21
-86.174
0
LINE
8
BLACK
6
CONTINUOUS
10
125.724
20
-86.174
11
125.704
21
-86.1776
0
LINE
8
BLACK
6
CONTINUOUS
10
125.704
20
-86.1776
11
125.699
21
-86.1746
0
LINE
8
BLACK
6
CONTINUOUS
10
125.699
20
-86.1746
11
125.693
21
-86.1747
0
LINE
8
BLACK
6
CONTINUOUS
10
125.693
20
-86.1747
11
125.677
21
-86.162
0
LINE
8
BLACK
6
CONTINUOUS
10
125.677
20
-86.162
11
125.66
21
-86.1519
0
LINE
8
BLACK
6
CONTINUOUS
10
125.66
20
-86.1519
11
125.658
21
-86.1463
0
LINE
8
BLACK
6
CONTINUOUS
10
125.658
20
-86.1463
11
125.653
21
-86.1425
0
LINE
8
BLACK
6
CONTINUOUS
10
125.653
20
-86.1425
11
125.649
21
-86.1227
0
LINE
8
BLACK
6
CONTINUOUS
10
125.649
20
-86.1227
11
125.642
21
-86.1037
0
LINE
8
BLACK
6
CONTINUOUS
10
125.642
20
-86.1037
11
125.642
21
-85.9785
0
LINE
8
BLACK
6
CONTINUOUS
10
125.642
20
-85.9785
11
125.608
21
-85.91
0
LINE
8
BLACK
6
CONTINUOUS
10
125.608
20
-85.91
11
125.578
21
-85.8796
0
LINE
8
BLACK
6
CONTINUOUS
10
125.578
20
-85.8796
11
125.509
21
-85.8454
0
LINE
8
BLACK
6
CONTINUOUS
10
125.509
20
-85.8454
11
125.306
21
-85.8454
0
LINE
8
BLACK
6
CONTINUOUS
10
125.306
20
-85.8454
11
125.238
21
-85.8796
0
LINE
8
BLACK
6
CONTINUOUS
10
125.238
20
-85.8796
11
125.207
21
-85.91
0
LINE
8
BLACK
6
CONTINUOUS
10
125.207
20
-85.91
11
125.173
21
-85.9785
0
LINE
8
BLACK
6
CONTINUOUS
10
125.173
20
-85.9785
11
125.173
21
-86.2288
0
LINE
8
BLACK
6
CONTINUOUS
10
125.173
20
-86.2288
11
125.207
21
-86.2974
0
LINE
8
BLACK
6
CONTINUOUS
10
125.207
20
-86.2974
11
125.246
21
-86.3364
0
LINE
8
BLACK
6
CONTINUOUS
10
125.246
20
-86.3364
11
125.261
21
-86.3577
0
LINE
8
BLACK
6
CONTINUOUS
10
125.261
20
-86.3577
11
125.266
21
-86.4088
0
LINE
8
BLACK
6
CONTINUOUS
10
125.266
20
-86.4088
11
125.236
21
-86.4508
0
LINE
8
BLACK
6
CONTINUOUS
10
125.236
20
-86.4508
11
125.187
21
-86.4641
0
LINE
8
BLACK
6
CONTINUOUS
10
125.187
20
-86.4641
11
125.14
21
-86.4424
0
LINE
8
BLACK
6
CONTINUOUS
10
125.14
20
-86.4424
11
125.093
21
-86.3948
0
LINE
8
BLACK
6
CONTINUOUS
10
125.093
20
-86.3948
11
125.08
21
-86.3765
0
LINE
8
BLACK
6
CONTINUOUS
10
125.08
20
-86.3765
11
125.079
21
-86.3753
0
LINE
8
BLACK
6
CONTINUOUS
10
125.079
20
-86.3753
11
125.031
21
-86.2801
0
LINE
8
BLACK
6
CONTINUOUS
10
125.031
20
-86.2801
11
125.024
21
-86.2551
0
LINE
8
BLACK
6
CONTINUOUS
10
125.024
20
-86.2551
11
125.025
21
-86.2508
0
LINE
8
BLACK
6
CONTINUOUS
10
125.025
20
-86.2508
11
125.023
21
-86.2466
0
LINE
8
BLACK
6
CONTINUOUS
10
125.023
20
-86.2466
11
125.023
21
-85.9608
0
LINE
8
BLACK
6
CONTINUOUS
10
125.023
20
-85.9608
11
125.028
21
-85.9352
0
LINE
8
BLACK
6
CONTINUOUS
10
125.028
20
-85.9352
11
125.031
21
-85.9318
0
LINE
8
BLACK
6
CONTINUOUS
10
125.031
20
-85.9318
11
125.031
21
-85.9273
0
LINE
8
BLACK
6
CONTINUOUS
10
125.031
20
-85.9273
11
125.079
21
-85.8321
0
LINE
8
BLACK
6
CONTINUOUS
10
125.079
20
-85.8321
11
125.092
21
-85.8141
0
LINE
8
BLACK
6
CONTINUOUS
10
125.092
20
-85.8141
11
125.093
21
-85.8126
0
LINE
8
BLACK
6
CONTINUOUS
10
125.093
20
-85.8126
11
125.14
21
-85.7649
0
LINE
8
BLACK
6
CONTINUOUS
10
125.14
20
-85.7649
11
125.159
21
-85.7521
0
LINE
8
BLACK
6
CONTINUOUS
10
125.159
20
-85.7521
11
125.16
21
-85.7509
0
LINE
8
BLACK
6
CONTINUOUS
10
125.16
20
-85.7509
11
125.255
21
-85.7033
0
LINE
8
BLACK
6
CONTINUOUS
10
125.255
20
-85.7033
11
125.28
21
-85.6959
0
LINE
8
BLACK
6
CONTINUOUS
10
125.28
20
-85.6959
11
125.284
21
-85.6969
0
LINE
8
BLACK
6
CONTINUOUS
10
125.284
20
-85.6969
11
125.289
21
-85.6954
0
LINE
8
BLACK
6
CONTINUOUS
10
125.289
20
-85.6954
11
125.527
21
-85.6954
0
LINE
8
BLACK
6
CONTINUOUS
10
125.527
20
-85.6954
11
125.552
21
-85.6999
0
LINE
8
BLACK
6
CONTINUOUS
10
125.933
20
-84.7475
11
125.937
21
-84.7504
0
LINE
8
BLACK
6
CONTINUOUS
10
125.937
20
-84.7504
11
125.941
21
-84.7509
0
LINE
8
BLACK
6
CONTINUOUS
10
125.941
20
-84.7509
11
126.036
21
-84.7985
0
LINE
8
BLACK
6
CONTINUOUS
10
126.036
20
-84.7985
11
126.054
21
-84.8119
0
LINE
8
BLACK
6
CONTINUOUS
10
126.054
20
-84.8119
11
126.056
21
-84.8126
0
LINE
8
BLACK
6
CONTINUOUS
10
126.056
20
-84.8126
11
126.104
21
-84.8602
0
LINE
8
BLACK
6
CONTINUOUS
10
126.104
20
-84.8602
11
126.116
21
-84.8786
0
LINE
8
BLACK
6
CONTINUOUS
10
126.116
20
-84.8786
11
126.118
21
-84.8797
0
LINE
8
BLACK
6
CONTINUOUS
10
126.118
20
-84.8797
11
126.165
21
-84.9749
0
LINE
8
BLACK
6
CONTINUOUS
10
126.165
20
-84.9749
11
126.173
21
-84.9999
0
LINE
8
BLACK
6
CONTINUOUS
10
126.173
20
-84.9999
11
126.172
21
-85.0042
0
LINE
8
BLACK
6
CONTINUOUS
10
126.172
20
-85.0042
11
126.173
21
-85.0085
0
LINE
8
BLACK
6
CONTINUOUS
10
126.173
20
-85.0085
11
126.173
21
-85.2466
0
LINE
8
BLACK
6
CONTINUOUS
10
126.173
20
-85.2466
11
126.169
21
-85.2722
0
LINE
8
BLACK
6
CONTINUOUS
10
126.169
20
-85.2722
11
126.166
21
-85.2756
0
LINE
8
BLACK
6
CONTINUOUS
10
126.166
20
-85.2756
11
126.165
21
-85.2801
0
LINE
8
BLACK
6
CONTINUOUS
10
126.165
20
-85.2801
11
126.118
21
-85.3753
0
LINE
8
BLACK
6
CONTINUOUS
10
126.118
20
-85.3753
11
126.104
21
-85.3933
0
LINE
8
BLACK
6
CONTINUOUS
10
126.104
20
-85.3933
11
126.104
21
-85.3948
0
LINE
8
BLACK
6
CONTINUOUS
10
126.104
20
-85.3948
11
126.056
21
-85.4424
0
LINE
8
BLACK
6
CONTINUOUS
10
126.056
20
-85.4424
11
126.035
21
-85.4574
0
LINE
8
BLACK
6
CONTINUOUS
10
126.035
20
-85.4574
11
125.984
21
-85.4619
0
LINE
8
BLACK
6
CONTINUOUS
10
125.984
20
-85.4619
11
125.942
21
-85.4324
0
LINE
8
BLACK
6
CONTINUOUS
10
125.942
20
-85.4324
11
125.928
21
-85.3829
0
LINE
8
BLACK
6
CONTINUOUS
10
125.928
20
-85.3829
11
125.95
21
-85.3364
0
LINE
8
BLACK
6
CONTINUOUS
10
125.95
20
-85.3364
11
125.989
21
-85.2974
0
LINE
8
BLACK
6
CONTINUOUS
10
125.989
20
-85.2974
11
126.023
21
-85.2288
0
LINE
8
BLACK
6
CONTINUOUS
10
126.023
20
-85.2288
11
126.023
21
-85.0262
0
LINE
8
BLACK
6
CONTINUOUS
10
126.023
20
-85.0262
11
125.989
21
-84.9576
0
LINE
8
BLACK
6
CONTINUOUS
10
125.989
20
-84.9576
11
125.959
21
-84.9272
0
LINE
8
BLACK
6
CONTINUOUS
10
125.959
20
-84.9272
11
125.89
21
-84.893
0
LINE
8
BLACK
6
CONTINUOUS
10
125.89
20
-84.893
11
125.825
21
-84.893
0
LINE
8
BLACK
6
CONTINUOUS
10
125.825
20
-84.893
11
125.71
21
-84.9312
0
LINE
8
BLACK
6
CONTINUOUS
10
125.71
20
-84.9312
11
125.151
21
-85.4901
0
LINE
8
BLACK
6
CONTINUOUS
10
125.151
20
-85.4901
11
125.138
21
-85.4995
0
LINE
8
BLACK
6
CONTINUOUS
10
125.138
20
-85.4995
11
125.136
21
-85.502
0
LINE
8
BLACK
6
CONTINUOUS
10
125.136
20
-85.502
11
125.134
21
-85.5023
0
LINE
8
BLACK
6
CONTINUOUS
10
125.134
20
-85.5023
11
125.13
21
-85.505
0
LINE
8
BLACK
6
CONTINUOUS
10
125.13
20
-85.505
11
125.107
21
-85.507
0
LINE
8
BLACK
6
CONTINUOUS
10
125.107
20
-85.507
11
125.085
21
-85.5109
0
LINE
8
BLACK
6
CONTINUOUS
10
125.085
20
-85.5109
11
125.082
21
-85.5092
0
LINE
8
BLACK
6
CONTINUOUS
10
125.082
20
-85.5092
11
125.079
21
-85.5095
0
LINE
8
BLACK
6
CONTINUOUS
10
125.079
20
-85.5095
11
125.06
21
-85.4965
0
LINE
8
BLACK
6
CONTINUOUS
10
125.06
20
-85.4965
11
125.041
21
-85.4852
0
LINE
8
BLACK
6
CONTINUOUS
10
125.041
20
-85.4852
11
125.04
21
-85.482
0
LINE
8
BLACK
6
CONTINUOUS
10
125.04
20
-85.482
11
125.037
21
-85.48
0
LINE
8
BLACK
6
CONTINUOUS
10
125.037
20
-85.48
11
125.031
21
-85.4582
0
LINE
8
BLACK
6
CONTINUOUS
10
125.031
20
-85.4582
11
125.023
21
-85.437
0
LINE
8
BLACK
6
CONTINUOUS
10
125.023
20
-85.437
11
125.023
21
-84.818
0
LINE
8
BLACK
6
CONTINUOUS
10
125.023
20
-84.818
11
125.028
21
-84.7923
0
LINE
8
BLACK
6
CONTINUOUS
10
125.028
20
-84.7923
11
125.061
21
-84.753
0
LINE
8
BLACK
6
CONTINUOUS
10
125.061
20
-84.753
11
125.111
21
-84.7441
0
LINE
8
BLACK
6
CONTINUOUS
10
125.111
20
-84.7441
11
125.156
21
-84.7698
0
LINE
8
BLACK
6
CONTINUOUS
10
125.156
20
-84.7698
11
125.173
21
-84.818
0
LINE
8
BLACK
6
CONTINUOUS
10
125.173
20
-84.818
11
125.173
21
-85.256
0
LINE
8
BLACK
6
CONTINUOUS
10
125.173
20
-85.256
11
125.617
21
-84.8126
0
LINE
8
BLACK
6
CONTINUOUS
10
125.617
20
-84.8126
11
125.638
21
-84.7976
0
LINE
8
BLACK
6
CONTINUOUS
10
125.638
20
-84.7976
11
125.642
21
-84.7972
0
LINE
8
BLACK
6
CONTINUOUS
10
125.642
20
-84.7972
11
125.646
21
-84.7945
0
LINE
8
BLACK
6
CONTINUOUS
10
125.646
20
-84.7945
11
125.789
21
-84.7468
0
LINE
8
BLACK
6
CONTINUOUS
10
125.789
20
-84.7468
11
125.811
21
-84.7435
0
LINE
8
BLACK
6
CONTINUOUS
10
125.811
20
-84.7435
11
125.812
21
-84.743
0
LINE
8
BLACK
6
CONTINUOUS
10
125.812
20
-84.743
11
125.908
21
-84.743
0
LINE
8
BLACK
6
CONTINUOUS
10
125.908
20
-84.743
11
125.933
21
-84.7475
0
LINE
8
BLACK
6
CONTINUOUS
10
125.813
20
-83.9513
11
125.839
21
-83.9959
0
LINE
8
BLACK
6
CONTINUOUS
10
125.839
20
-83.9959
11
125.83
21
-84.0464
0
LINE
8
BLACK
6
CONTINUOUS
10
125.83
20
-84.0464
11
125.79
21
-84.0791
0
LINE
8
BLACK
6
CONTINUOUS
10
125.79
20
-84.0791
11
125.321
21
-84.2466
0
LINE
8
BLACK
6
CONTINUOUS
10
125.321
20
-84.2466
11
125.79
21
-84.414
0
LINE
8
BLACK
6
CONTINUOUS
10
125.79
20
-84.414
11
125.813
21
-84.4269
0
LINE
8
BLACK
6
CONTINUOUS
10
125.813
20
-84.4269
11
125.839
21
-84.4712
0
LINE
8
BLACK
6
CONTINUOUS
10
125.839
20
-84.4712
11
125.83
21
-84.5218
0
LINE
8
BLACK
6
CONTINUOUS
10
125.83
20
-84.5218
11
125.791
21
-84.555
0
LINE
8
BLACK
6
CONTINUOUS
10
125.791
20
-84.555
11
125.74
21
-84.5553
0
LINE
8
BLACK
6
CONTINUOUS
10
125.74
20
-84.5553
11
125.073
21
-84.3172
0
LINE
8
BLACK
6
CONTINUOUS
10
125.073
20
-84.3172
11
125.05
21
-84.3043
0
LINE
8
BLACK
6
CONTINUOUS
10
125.05
20
-84.3043
11
125.05
21
-84.3039
0
LINE
8
BLACK
6
CONTINUOUS
10
125.05
20
-84.3039
11
125.05
21
-84.3037
0
LINE
8
BLACK
6
CONTINUOUS
10
125.05
20
-84.3037
11
125.037
21
-84.2818
0
LINE
8
BLACK
6
CONTINUOUS
10
125.037
20
-84.2818
11
125.024
21
-84.26
0
LINE
8
BLACK
6
CONTINUOUS
10
125.024
20
-84.26
11
125.024
21
-84.2595
0
LINE
8
BLACK
6
CONTINUOUS
10
125.024
20
-84.2595
11
125.024
21
-84.2591
0
LINE
8
BLACK
6
CONTINUOUS
10
125.024
20
-84.2591
11
125.029
21
-84.2344
0
LINE
8
BLACK
6
CONTINUOUS
10
125.029
20
-84.2344
11
125.033
21
-84.2094
0
LINE
8
BLACK
6
CONTINUOUS
10
125.033
20
-84.2094
11
125.033
21
-84.2091
0
LINE
8
BLACK
6
CONTINUOUS
10
125.033
20
-84.2091
11
125.033
21
-84.2087
0
LINE
8
BLACK
6
CONTINUOUS
10
125.033
20
-84.2087
11
125.053
21
-84.1926
0
LINE
8
BLACK
6
CONTINUOUS
10
125.053
20
-84.1926
11
125.072
21
-84.1762
0
LINE
8
BLACK
6
CONTINUOUS
10
125.072
20
-84.1762
11
125.073
21
-84.1762
0
LINE
8
BLACK
6
CONTINUOUS
10
125.073
20
-84.1762
11
125.073
21
-84.1759
0
LINE
8
BLACK
6
CONTINUOUS
10
125.073
20
-84.1759
11
125.74
21
-83.9378
0
LINE
8
BLACK
6
CONTINUOUS
10
125.74
20
-83.9378
11
125.765
21
-83.9335
0
LINE
8
BLACK
6
CONTINUOUS
10
125.765
20
-83.9335
11
125.813
21
-83.9513
  0
ENDSEC
  0
EOF
